<?xml version="1.0" encoding="UTF-8" standalone="no"?>
<!-- Created with Inkscape (http://www.inkscape.org/) -->

<svg
   width="134.99998mm"
   height="135mm"
   viewBox="0 0 134.99998 135"
   version="1.1"
   id="svg1"
   sodipodi:docname="favicon.svg"
   inkscape:version="1.3.2 (091e20e, 2023-11-25)"
   xml:space="preserve"
   xmlns:inkscape="http://www.inkscape.org/namespaces/inkscape"
   xmlns:sodipodi="http://sodipodi.sourceforge.net/DTD/sodipodi-0.dtd"
   xmlns="http://www.w3.org/2000/svg"
   xmlns:svg="http://www.w3.org/2000/svg"><sodipodi:namedview
     id="namedview1"
     pagecolor="#505050"
     bordercolor="#ffffff"
     borderopacity="1"
     inkscape:showpageshadow="0"
     inkscape:pageopacity="0"
     inkscape:pagecheckerboard="1"
     inkscape:deskcolor="#505050"
     inkscape:document-units="mm"
     inkscape:zoom="0.85622409"
     inkscape:cx="369.06226"
     inkscape:cy="369.64622"
     inkscape:window-width="1920"
     inkscape:window-height="1080"
     inkscape:window-x="1710"
     inkscape:window-y="0"
     inkscape:window-maximized="0"
     inkscape:current-layer="svg1" /><defs
     id="defs1"><rect
       x="-92.162186"
       y="5.2916088"
       width="69.23188"
       height="22.930304"
       id="rect1-8" /></defs><g
     id="g67"
     inkscape:label="Badge"
     transform="matrix(0.07461605,0,0,0.07461605,-359.13229,-195.19887)"><rect
       style="vector-effect:non-scaling-stroke;fill:#14488a;fill-opacity:1;stroke:none;stroke-width:1.01741;stroke-linecap:round;stroke-linejoin:round;stroke-dasharray:none;-inkscape-stroke:hairline"
       id="rect1"
       width="134.99998"
       height="135"
       x="6.2939455e-07"
       y="2e-06"
       inkscape:label="Field"
       transform="matrix(13.401944,0,0,13.401944,4813.0704,2616.0442)" /><path
       style="color:#000000;fill:#eaf3fc;fill-opacity:1;stroke:#cfcfcf;stroke-width:7.53859;stroke-linecap:round;stroke-linejoin:round;stroke-miterlimit:3.6;stroke-dasharray:none;stroke-opacity:1;paint-order:fill markers stroke"
       d="m 5717.6451,2811.9693 a 26.640046,26.671358 0 0 0 -26.635,26.6663 v 20.7138 l -75.8326,-43.8189 a 26.640046,26.671358 0 0 0 -36.3784,9.7719 26.640046,26.671358 0 0 0 9.7433,36.4211 l 102.4677,59.2166 v 172.626 l -133.5878,-77.2292 a 26.640046,26.671358 0 0 0 -36.3956,9.7547 26.640046,26.671358 0 0 0 9.7606,36.4383 l 160.2228,92.627 v 11.6644 c -32.4373,-5.3256 -72.4884,-16.8386 -108.757,-31.4319 -46.1399,-18.5654 -82.3797,-37.1094 -82.3797,-37.1094 a 26.642711,26.674025 0 0 0 -38.7497,22.3998 c 0,0 -2.0496,40.6503 -9.0388,89.8915 -5.5069,38.798 -15.5883,79.378 -27.2193,110.1408 l -10.1041,-5.8322 -0.036,-185.3056 a 26.640046,26.671358 0 0 0 -26.6514,-26.6492 26.640046,26.671358 0 0 0 -26.6351,26.6664 l 0.052,154.493 -149.4486,-86.3475 v -118.3986 a 26.640046,26.671358 0 0 0 -26.635,-26.6837 26.640046,26.671358 0 0 0 -26.6349,26.6837 v 87.6204 l -17.9401,-10.374 a 26.640046,26.671358 0 0 0 -36.3956,9.7719 26.640046,26.671358 0 0 0 9.7605,36.4384 l 17.9057,10.3568 -75.7984,43.8017 a 26.640046,26.671358 0 0 0 -9.7603,36.4211 26.640046,26.671358 0 0 0 36.3955,9.7719 l 102.4676,-59.1993 149.3625,86.313 -133.5877,77.1432 a 26.640046,26.671358 0 0 0 -9.7605,36.4383 26.640046,26.671358 0 0 0 36.3784,9.772 l 160.2745,-92.5582 10.0869,5.8322 c -20.8266,25.4466 -50.8012,54.4036 -81.5549,78.5368 -39.1341,30.7093 -73.3066,52.851 -73.3066,52.851 a 26.642711,26.674025 0 0 0 0.018,44.7996 c 0,0 34.1415,22.1033 73.255,52.7821 30.8188,24.1729 60.8892,53.1938 81.6924,78.6571 l -10.087,5.8322 -160.3774,-92.6268 a 26.640046,26.671358 0 0 0 -36.3784,9.7719 26.640046,26.671358 0 0 0 9.7604,36.4382 l 133.6909,77.2122 -149.414,86.3474 -102.4679,-59.2166 a 26.640046,26.671358 0 0 0 -36.3953,9.7719 26.640046,26.671358 0 0 0 9.7604,36.4213 l 75.7983,43.8187 -17.9057,10.3398 a 26.640046,26.671358 0 0 0 -9.7605,36.4382 26.640046,26.671358 0 0 0 36.3955,9.772 l 17.9228,-10.3568 v 87.6032 a 26.640046,26.671358 0 0 0 26.6524,26.6836 26.640046,26.671358 0 0 0 26.635,-26.6836 v -118.3987 l 149.3968,-86.3303 -0.052,154.3899 a 26.640046,26.671358 0 0 0 26.6351,26.6834 26.640046,26.671358 0 0 0 26.6522,-26.6663 l 0.036,-185.185 10.1042,-5.8495 c 11.61,30.7757 21.6781,71.2511 27.1849,109.986 7.005,49.2743 9.073,89.9603 9.073,89.9603 a 26.642711,26.674025 0 0 0 38.7497,22.3824 c 0,0 36.208,-18.5292 82.311,-37.092 36.3264,-14.6264 76.4742,-26.1836 108.9116,-31.4834 v 11.6471 l -160.3087,92.6957 a 26.640046,26.671358 0 0 0 -9.7604,36.4384 26.640046,26.671358 0 0 0 36.3955,9.7546 l 133.6736,-77.2808 v 172.6777 l -102.4676,59.1993 a 26.640046,26.671358 0 0 0 -9.7432,36.4383 26.640046,26.671358 0 0 0 36.3782,9.7719 l 75.8326,-43.8189 v 20.7139 a 26.640046,26.671358 0 0 0 26.6523,26.6663 26.640046,26.671358 0 0 0 26.6351,-26.6663 v -20.7139 l 75.8325,43.8189 a 26.640046,26.671358 0 0 0 36.3784,-9.7719 26.640046,26.671358 0 0 0 -9.7605,-36.4383 l -102.4504,-59.1993 v -172.6262 l 133.5877,77.2293 a 26.640046,26.671358 0 0 0 36.3783,-9.7719 26.640046,26.671358 0 0 0 -9.7432,-36.4211 l -160.2228,-92.6441 v -11.6472 c 32.4371,5.3257 72.5063,16.8216 108.7741,31.4146 46.1399,18.5655 82.3625,37.1093 82.3625,37.1093 a 26.642711,26.674025 0 0 0 38.7498,-22.3997 c 0,0 2.0494,-40.6501 9.0387,-89.8915 5.5072,-38.8001 15.6045,-79.3606 27.2365,-110.1235 l 10.0869,5.8322 0.036,185.2883 a 26.640046,26.671358 0 0 0 26.6521,26.6663 26.640046,26.671358 0 0 0 26.6352,-26.6834 l -0.052,-154.493 149.4485,86.3474 v 118.416 a 26.640046,26.671358 0 0 0 26.6351,26.6663 26.640046,26.671358 0 0 0 26.635,-26.6663 v -87.6378 l 17.9401,10.3741 a 26.640046,26.671358 0 0 0 36.3954,-9.7548 26.640046,26.671358 0 0 0 -9.7603,-36.4384 l -17.9229,-10.3568 75.8154,-43.8016 a 26.640046,26.671358 0 0 0 9.7605,-36.4382 26.640046,26.671358 0 0 0 -36.3956,-9.7548 l -102.4676,59.1993 -149.3797,-86.313 133.6048,-77.1606 a 26.640046,26.671358 0 0 0 9.7605,-36.4209 26.640046,26.671358 0 0 0 -36.3783,-9.7892 l -160.2915,92.5752 -10.0869,-5.8321 c 20.8256,-25.4492 50.8131,-54.4168 81.5719,-78.5539 39.1341,-30.7095 73.3066,-52.8338 73.3066,-52.8338 a 26.642711,26.674025 0 0 0 -0.018,-44.7996 c 0,0 -34.1414,-22.1205 -73.2549,-52.7995 -30.8155,-24.17 -60.8714,-53.1953 -81.6752,-78.6571 l 10.0696,-5.8322 160.3777,92.627 a 26.640046,26.671358 0 0 0 36.3784,-9.772 26.640046,26.671358 0 0 0 -9.7607,-36.4211 l -133.691,-77.2292 149.4141,-86.3303 102.4675,59.2166 a 26.640046,26.671358 0 0 0 36.3955,-9.7719 26.640046,26.671358 0 0 0 -9.7603,-36.4384 l -75.8155,-43.8016 17.9228,-10.357 a 26.640046,26.671358 0 0 0 9.7605,-36.4209 26.640046,26.671358 0 0 0 -36.3955,-9.7721 l -17.9229,10.357 v -87.6205 a 26.640046,26.671358 0 0 0 -26.6521,-26.6665 26.640046,26.671358 0 0 0 -26.6351,26.6665 v 118.4158 l -149.3969,86.313 0.052,-154.3897 a 26.640046,26.671358 0 0 0 -26.6364,-26.6664 26.640046,26.671358 0 0 0 -26.6522,26.6664 l -0.036,185.1851 -10.1042,5.8322 c -11.609,-30.7754 -21.6785,-71.2538 -27.1849,-109.9859 -7.0052,-49.2742 -9.0731,-89.943 -9.0731,-89.9431 a 26.642711,26.674025 0 0 0 -38.7497,-22.3998 c 0,0 -36.2079,18.5465 -82.3109,37.1094 -36.3265,14.6263 -76.4742,26.1664 -108.9117,31.4662 v -11.6471 l 160.3087,-92.6786 a 26.640046,26.671358 0 0 0 9.7432,-36.4383 26.640046,26.671358 0 0 0 -36.3782,-9.7547 l -133.6737,77.2808 V 2920.923 l 102.4506,-59.1995 a 26.640046,26.671358 0 0 0 9.7603,-36.4211 26.640046,26.671358 0 0 0 -36.3955,-9.7719 l -75.8154,43.8189 v -20.7138 a 26.640046,26.671358 0 0 0 -26.6523,-26.6663 z m -207.1349,349.5358 c 15.6764,7.516 22.8212,11.6955 51.861,23.3804 40.0452,16.113 86.1766,32.1859 128.6389,37.5738 v 136.0329 l -100.3541,58.0294 -117.6926,-68.0078 c 16.6169,-39.5246 25.7976,-87.6157 31.8761,-130.4414 4.396,-30.971 4.34,-39.2297 5.6707,-56.5673 z m 414.3729,0.018 c 1.335,17.3475 1.2976,25.616 5.7049,56.6187 6.0802,42.7671 15.2371,90.7845 31.8075,130.2867 l -117.7097,68.0251 -100.3885,-57.9607 v -136.0156 c 42.5064,-5.3583 88.697,-21.4466 128.7934,-37.5911 28.9967,-11.6751 36.1257,-15.8479 51.7924,-23.3631 z m 64.1475,233.0984 c 25.8913,34.1678 62.9152,66.1674 96.9345,92.8507 24.599,19.2943 31.7679,23.3817 46.1045,33.2038 -14.3425,9.8305 -21.5326,13.933 -46.1561,33.2556 -33.968,26.6554 -70.9362,58.5962 -96.8313,92.7129 l -117.7097,-68.0078 -0.036,-116.0073 z m -542.7194,0.088 117.7098,68.0251 0.036,115.9901 -117.6754,67.9905 c -25.8916,-34.1708 -62.9298,-66.1652 -96.9516,-92.8505 -24.5913,-19.2883 -31.7501,-23.3638 -46.0873,-33.1867 14.3432,-9.8312 21.5212,-13.9376 46.1388,-33.2555 33.9668,-26.6547 70.9363,-58.5975 96.8314,-92.713 z m 271.3511,9.9784 100.3884,57.9778 0.052,115.9558 -100.3713,58.0466 -100.3885,-57.9778 -0.052,-115.9901 z m 127.0579,220.1438 117.6926,68.0077 c -16.6138,39.5228 -25.7809,87.6027 -31.859,130.4244 -4.3959,30.971 -4.34,39.2297 -5.6707,56.5673 -15.6764,-7.516 -22.821,-11.6955 -51.861,-23.3804 -40.0489,-16.1147 -86.1732,-32.1876 -128.6389,-37.5739 v -136.0157 z m -254.0127,0.07 100.3885,57.9778 v 135.9812 c -42.5064,5.3584 -88.697,21.4638 -128.7934,37.6082 -28.9988,11.6762 -36.1258,15.8481 -51.7924,23.3633 -1.3348,-17.3471 -1.297,-25.6296 -5.7051,-56.636 -6.0797,-42.7656 -15.238,-90.7682 -31.8073,-130.2694 z"
       id="path74-9-4-9-6"
       inkscape:label="Snowflake" /></g></svg>
