<?xml version="1.0" encoding="UTF-8" standalone="no"?>
<!-- Created with Inkscape (http://www.inkscape.org/) -->
<svg xmlns:inkscape="http://www.inkscape.org/namespaces/inkscape" xmlns:sodipodi="http://sodipodi.sourceforge.net/DTD/sodipodi-0.dtd" xmlns="http://www.w3.org/2000/svg" xmlns:svg="http://www.w3.org/2000/svg" width="18mm" height="18mm" viewBox="0 0 18 18" version="1.1" id="svg1" xml:space="preserve" inkscape:version="1.3.2 (091e20e, 2023-11-25)" sodipodi:docname="favicon.svg">
  <sodipodi:namedview id="namedview1" pagecolor="#505050" bordercolor="#ffffff" borderopacity="1" inkscape:showpageshadow="0" inkscape:pageopacity="0" inkscape:pagecheckerboard="1" inkscape:deskcolor="#d1d1d1" inkscape:document-units="mm" inkscape:zoom="5.1203175" inkscape:cx="16.600533" inkscape:cy="42.575485" inkscape:window-width="1728" inkscape:window-height="1027" inkscape:window-x="1728" inkscape:window-y="25" inkscape:window-maximized="0" inkscape:current-layer="layer1"/>
  <defs id="defs1"/>
  <g inkscape:label="Layer 1" inkscape:groupmode="layer" id="layer1" transform="translate(-0.90000057,-2.1323026)">
    <g id="g1" transform="matrix(0.01175926,0,0,0.01175926,1.5666667,2.7989687)">
      <g id="g4" transform="matrix(1.2518406,0,0,1.2518406,-46.197213,-64.519152)" style="fill:#344767;fill-opacity:1">
        <path d="m 757.02,185.66 v 84.035 H 654.61 V 185.66 H 552.18 v 84.035 H 449.77 V 185.66 H 339.5 v 223.2 h 527.79 v -223.2 z" id="path1" style="fill:#344767;fill-opacity:1"/>
        <path d="m 399.5,1049.5 h 137.86 v -97.379 c 0,-17.402 14.109,-31.512 31.512,-31.512 h 68.27 c 17.402,0 31.512,14.109 31.512,31.512 v 97.379 h 137.86 V 429.82 h -407 z" id="path2-5" style="fill:#344767;fill-opacity:1"/>
        <path d="m 279.83,491.38 v 76.023 H 187.197 V 491.38 H 93.513 v 558.23 h 283.69 V 491.38 Z" id="path3" style="fill:#344767;fill-opacity:1"/>
        <path d="m 1015.1,491.38 v 76.023 H 922.459 V 491.38 h -93.684 v 558.23 h 283.71 V 491.38 Z" id="path4" style="fill:#344767;fill-opacity:1"/>
      </g>
    </g>
  </g>
</svg>
