<?xml version="1.0" encoding="UTF-8" standalone="no"?>
<!-- Created with Inkscape (http://www.inkscape.org/) -->

<svg
   width="320.71399mm"
   height="18mm"
   viewBox="0 0 320.71399 18"
   version="1.1"
   id="svg1"
   xml:space="preserve"
   inkscape:version="1.3.2 (091e20e, 2023-11-25)"
   sodipodi:docname="primary-logo-light.svg"
   xmlns:inkscape="http://www.inkscape.org/namespaces/inkscape"
   xmlns:sodipodi="http://sodipodi.sourceforge.net/DTD/sodipodi-0.dtd"
   xmlns="http://www.w3.org/2000/svg"
   xmlns:svg="http://www.w3.org/2000/svg"><sodipodi:namedview
     id="namedview1"
     pagecolor="#505050"
     bordercolor="#ffffff"
     borderopacity="1"
     inkscape:showpageshadow="0"
     inkscape:pageopacity="0"
     inkscape:pagecheckerboard="1"
     inkscape:deskcolor="#d1d1d1"
     inkscape:document-units="mm"
     inkscape:zoom="0.4525764"
     inkscape:cx="841.84682"
     inkscape:cy="260.72946"
     inkscape:window-width="1920"
     inkscape:window-height="1027"
     inkscape:window-x="1470"
     inkscape:window-y="25"
     inkscape:window-maximized="0"
     inkscape:current-layer="layer1" /><defs
     id="defs1" /><g
     inkscape:label="Layer 1"
     inkscape:groupmode="layer"
     id="layer1"
     transform="translate(-0.90000057)"><path
       style="font-size:25.4px;font-family:'Cormorant SC';-inkscape-font-specification:'Cormorant SC, Normal';fill:#f8f8f8;stroke:#f8f8f8;stroke-width:0.8;stroke-linecap:round"
       d="m 28.0592,1.7059662 q -1.5748,0 -2.3876,0.8128 -0.7874,0.8128 -1.143,2.7685999 0,0.0508 -0.1524,0.0508 -0.127,0 -0.127,-0.0508 0.1016,-0.9144 0.2286,-2.3875999 0.127,-1.4732 0.127,-2.20980001 0,-0.127 0.127,-0.127 0.1524,0 0.1524,0.127 0,0.55880001 1.3716,0.55880001 2.1844,0.0762 5.1054,0.0762 1.4986,0 3.175,-0.0508 l 1.7272,-0.0254 q 0.9144,0 1.3462,-0.127 0.4572,-0.12700001 0.5842,-0.50800001 0.0254,-0.1016 0.1524,-0.1016 0.127,0 0.127,0.1016 -0.0762,0.73660001 -0.1524,2.23520001 -0.0762,1.4985999 -0.0762,2.4383999 0,0.0508 -0.1524,0.0508 -0.1524,0 -0.1524,-0.0508 -0.0762,-1.9811999 -0.8128,-2.7685999 -0.7366,-0.8128 -2.4384,-0.8128 -1.143,0 -1.6256,0.1016 -0.4826,0.1016 -0.6604,0.4318 -0.1778,0.3302 -0.1778,1.1176 V 15.066366 q 0,0.7874 0.1778,1.143 0.1778,0.3556 0.6858,0.4826 0.508,0.127 1.6002,0.127 0.0762,0 0.0762,0.1524 0,0.1524 -0.0762,0.1524 -0.8382,0 -1.3462,-0.0254 l -1.9812,-0.0254 -1.905,0.0254 q -0.508,0.0254 -1.397,0.0254 -0.0508,0 -0.0508,-0.1524 0,-0.1524 0.0508,-0.1524 1.0922,0 1.6002,-0.127 0.508,-0.127 0.6858,-0.4826 0.2032,-0.381 0.2032,-1.143 V 3.3061662 q 0,-0.7874 -0.1778,-1.0922 -0.1778,-0.3302 -0.6604,-0.4064 -0.4826,-0.1016 -1.651,-0.1016 z m 21.894824,5.6387999 q 0,-0.762 -0.1524,-1.1176 -0.127,-0.381 -0.5334,-0.5334 -0.381,-0.1524 -1.1938,-0.1524 -0.0762,0 -0.0762,-0.1524 0,-0.1524 0.0762,-0.1524 l 1.1176,0.0254 q 0.9144,0.0508 1.5494,0.0508 0.5588,0 1.524,-0.0508 l 1.143,-0.0254 q 0.0762,0 0.0762,0.1524 0,0.1524 -0.0762,0.1524 -0.8382,0 -1.2446,0.1524 -0.381,0.127 -0.5334,0.4826 -0.1524,0.3556 -0.1524,1.1176 v 7.7723999 q 0,0.762 0.1524,1.143 0.1524,0.3556 0.5334,0.4826 0.4064,0.127 1.2446,0.127 0.0762,0 0.0762,0.1524 0,0.1524 -0.0762,0.1524 -0.7112,0 -1.143,-0.0254 l -1.524,-0.0254 -1.5494,0.0254 q -0.4064,0.0254 -1.1176,0.0254 -0.0762,0 -0.0762,-0.1524 0,-0.1524 0.0762,-0.1524 0.8382,0 1.2192,-0.127 0.381,-0.127 0.508,-0.4826 0.1524,-0.381 0.1524,-1.143 z m -7.9502,3.5559999 h 8.6106 v 0.4572 h -8.6106 z m -0.6858,-3.6067999 q 0,-0.762 -0.1524,-1.1176 -0.127,-0.3556 -0.5334,-0.4826 -0.381,-0.1524 -1.2192,-0.1524 -0.0508,0 -0.0508,-0.1524 0,-0.1524 0.0508,-0.1524 l 1.143,0.0254 q 0.9652,0.0508 1.4986,0.0508 0.635,0 1.6002,-0.0508 l 1.0922,-0.0254 q 0.0508,0 0.0508,0.1524 0,0.1524 -0.0508,0.1524 -0.8128,0 -1.2192,0.1524 -0.4064,0.1524 -0.5588,0.5334 -0.127,0.3556 -0.127,1.1176 v 7.7215999 q 0,0.7874 0.127,1.143 0.1524,0.3556 0.5334,0.4826 0.381,0.127 1.2446,0.127 0.0508,0 0.0508,0.1524 0,0.1524 -0.0508,0.1524 -0.7112,0 -1.1176,-0.0254 l -1.5748,-0.0254 -1.4986,0.0254 q -0.4318,0.0254 -1.1684,0.0254 -0.0508,0 -0.0508,-0.1524 0,-0.1524 0.0508,-0.1524 0.8382,0 1.2192,-0.127 0.4064,-0.127 0.5588,-0.4826 0.1524,-0.381 0.1524,-1.143 z m 13.868393,9.8297999 q -0.0508,0 -0.0508,-0.1524 0,-0.1524 0.0508,-0.1524 0.8382,0 1.2192,-0.127 0.381,-0.127 0.508,-0.4826 0.1524,-0.381 0.1524,-1.143 V 7.2939661 q 0,-0.762 -0.1524,-1.1176 -0.127,-0.3556 -0.508,-0.4826 -0.381,-0.1524 -1.2192,-0.1524 -0.0508,0 -0.0508,-0.1524 0,-0.1524 0.0508,-0.1524 h 8.8392 q 0.254,0 0.254,0.2032 l 0.0254,1.5748 q 0.0254,0.4826 0.0254,1.2192 0,0.0762 -0.1524,0.0762 -0.1524,0 -0.1524,-0.0762 -0.1016,-1.1684 -0.8636,-1.905 -0.7366,-0.762 -1.8288,-0.762 h -0.7112 q -0.889,0 -1.2954,0.1524 -0.4064,0.127 -0.5588,0.4826 -0.1524,0.3556 -0.1524,1.1176 v 7.6453999 q 0,0.7366 0.1524,1.1176 0.1524,0.3556 0.5588,0.508 0.4318,0.127 1.2954,0.127 h 1.2192 q 1.0414,0 1.8288,-0.8128 0.8128,-0.8382 1.0922,-2.159 0,-0.0762 0.127,-0.0762 0.1524,0 0.1524,0.0762 -0.1778,1.8288 -0.1778,2.9972 0,0.2032 -0.0762,0.3048 -0.0762,0.0762 -0.3048,0.0762 z m 7.8232,-5.461 q -0.1016,0 -1.1176,-0.1524 -0.9906,-0.1778 -3.9116,-0.1778 v -0.5334 q 2.8956,0 3.8862,-0.127 1.016,-0.127 1.143,-0.127 0.127,0 0.127,0.5334 0,0.5842 -0.127,0.5842 z M 82.567615,0.96936619 q 1.2192,0 2.4638,0.22860001 1.2446,0.2286 1.9812,0.6604 0.2286,0.1016 0.2794,0.2286 0.0762,0.1016 0.1016,0.381 l 0.2794,2.8447999 q 0,0.0762 -0.127,0.1016 -0.127,0 -0.1524,-0.0762 -0.5588,-1.9557999 -2.0828,-2.8701999 -1.4986,-0.9398 -3.7338,-0.9398 -1.9304,0 -3.3782,0.8636 -1.4478,0.8382 -2.2352,2.3875999 -0.7874,1.5494 -0.7874,3.5814 0,2.3621999 0.9652,4.3687999 0.9906,2.0066 2.6416,3.175 1.6764,1.1684 3.6068,1.1684 1.8288,0 3.175,-0.9906 1.3462,-1.016 2.0574,-3.0988 0,-0.0762 0.1016,-0.0762 0.0762,0 0.127,0.0254 0.0762,0.0254 0.0762,0.0762 l -0.3556,2.8702 q -0.0508,0.3048 -0.127,0.4064 -0.0508,0.0762 -0.2794,0.1778 -2.286,0.9652 -4.826,0.9652 -3.048,0 -5.1054,-1.2192 -2.032,-1.2446 -2.9972,-3.1496 -0.9652,-1.905 -0.9652,-4.0131999 0,-2.3368 1.2954,-4.191 1.2954,-1.8541999 3.429,-2.8701999 2.1336,-1.01600001 4.572,-1.01600001 z M 96.00423,17.428566 q -1.778,0 -3.175,-0.8382 -1.3716,-0.8382 -2.1336,-2.2606 -0.762,-1.4224 -0.762,-3.0734 0,-1.9811999 1.016,-3.4035999 1.0414,-1.4478 2.6162,-2.1844 1.6002,-0.7366 3.2512,-0.7366 1.778,0 3.1242,0.889 1.3716,0.8636 2.0828,2.2606 0.7366,1.397 0.7366,2.9209999 0,1.7018 -0.9144,3.2004 -0.9144,1.4732 -2.4638,2.3622 -1.5494,0.8636 -3.3782,0.8636 z m 0.6604,-0.5334 q 1.9812,0 3.1496,-1.397 1.1938,-1.397 1.1938,-3.8608 0,-1.7017999 -0.6096,-3.0987999 -0.5842,-1.397 -1.7272,-2.2352 -1.143,-0.8382 -2.7178,-0.8382 -2.032,0 -3.1496,1.3716 -1.1176,1.3462 -1.1176,3.7845999 0,1.7526 0.5842,3.175 0.6096,1.4224 1.7272,2.2606 1.143,0.8382 2.667,0.8382 z m 19.02459,-9.1693999 q 0,-1.27 -0.4064,-1.7272 -0.4064,-0.4572 -1.5748,-0.4572 -0.0762,0 -0.0762,-0.1524 0,-0.1524 0.0762,-0.1524 l 1.016,0.0254 q 0.762,0.0508 1.2192,0.0508 0.3556,0 1.0668,-0.0508 l 0.9652,-0.0254 q 0.0508,0 0.0508,0.1524 0,0.1524 -0.0508,0.1524 -1.016,0 -1.397,0.4572 -0.3556,0.4572 -0.3556,1.7272 v 4.7243999 q 0,2.3622 -1.3208,3.683 -1.3208,1.3208 -3.556,1.3208 -1.4224,0 -2.5908,-0.5588 -1.1684,-0.5842 -1.8542,-1.651 -0.6858,-1.0668 -0.6858,-2.54 V 7.2939661 q 0,-0.762 -0.1524,-1.1176 -0.127,-0.3556 -0.5334,-0.4826 -0.381,-0.1524 -1.1938,-0.1524 -0.0762,0 -0.0762,-0.1524 0,-0.1524 0.0762,-0.1524 l 1.143,0.0254 q 0.9144,0.0508 1.4478,0.0508 0.635,0 1.6002,-0.0508 l 1.0922,-0.0254 q 0.0762,0 0.0762,0.1524 0,0.1524 -0.0762,0.1524 -0.8128,0 -1.2192,0.1524 -0.4064,0.1524 -0.5588,0.5334 -0.127,0.3556 -0.127,1.1176 v 4.6989999 q 0,2.3622 1.1684,3.5052 1.1938,1.1176 3.048,1.1176 1.7526,0 2.7432,-1.0668 1.016,-1.0922 1.016,-3.0988 z m 5.15618,-1.9304 0.508,0.0762 v 8.4835999 q 0,1.3462 0.381,1.905 0.381,0.5588 1.3208,0.5588 0.0508,0 0.0508,0.1524 0,0.1524 -0.0508,0.1524 -0.5588,0 -0.8636,-0.0254 l -1.0668,-0.0254 -1.0922,0.0254 q -0.3302,0.0254 -0.9144,0.0254 -0.0508,0 -0.0508,-0.1524 0,-0.1524 0.0508,-0.1524 0.9398,0 1.3208,-0.5588 0.4064,-0.5588 0.4064,-1.905 z m 9.4742,11.6077999 q 0,0.0508 -0.127,0.0762 -0.127,0.0254 -0.1778,-0.0254 L 121.6836,7.3193661 q -0.8128,-0.9652 -1.4224,-1.3716 -0.5842,-0.4064 -1.143,-0.4064 -0.0508,0 -0.0508,-0.1524 0,-0.1524 0.0508,-0.1524 l 1.4224,0.0254 1.3462,-0.0254 q 0.1778,0 0.2794,0.1016 0.127,0.1016 0.3556,0.4318 0.2032,0.3302 0.5588,0.7874 l 6.985,8.6105999 z m 0,0 -0.508,-0.7874 V 8.0051661 q 0,-1.3462 -0.381,-1.905 -0.3556,-0.5588 -1.2954,-0.5588 -0.0762,0 -0.0762,-0.1524 0,-0.1524 0.0762,-0.1524 l 0.8636,0.0254 q 0.6604,0.0508 1.0668,0.0508 0.4064,0 1.1176,-0.0508 l 0.889,-0.0254 q 0.0762,0 0.0762,0.1524 0,0.1524 -0.0762,0.1524 -0.9398,0 -1.3462,0.5588 -0.4064,0.5588 -0.4064,1.905 z m 6.32459,-11.8363999 q -0.9652,0 -1.524,0.2794 -0.5588,0.254 -0.889,0.889 -0.3048,0.635 -0.4826,1.8034 0,0.0508 -0.1524,0.0508 -0.127,0 -0.127,-0.0508 0.0762,-0.5842 0.1778,-1.8796 0.1016,-1.2954 0.1016,-1.9812 0,-0.127 0.1524,-0.127 0.1524,0 0.1524,0.127 0,0.3302 0.381,0.4318 0.381,0.0762 0.9398,0.0762 2.2352,0.0508 3.8354,0.0508 l 2.2098,-0.0254 q 0.4572,-0.0254 1.1938,-0.0254 0.9144,0 1.3462,-0.1016 0.4318,-0.127 0.5588,-0.508 0.0508,-0.0762 0.1778,-0.0762 0.127,0 0.127,0.0762 -0.1524,2.7432 -0.1524,3.9624 0,0.0508 -0.1524,0.0508 -0.127,0 -0.127,-0.0508 -0.0254,-1.143 -0.2794,-1.778 -0.2286,-0.635 -0.7874,-0.9144 -0.5588,-0.2794 -1.5494,-0.2794 -1.0922,0 -1.4732,0.3556 -0.3556,0.3302 -0.3556,1.3716 v 7.7723999 q 0,0.7874 0.1524,1.143 0.1524,0.3556 0.5842,0.4826 0.4572,0.127 1.4478,0.127 0.0762,0 0.0762,0.1524 0,0.1524 -0.0762,0.1524 -0.7874,0 -1.2192,-0.0254 l -1.778,-0.0254 -1.7018,0.0254 q -0.4572,0.0254 -1.27,0.0254 -0.0508,0 -0.0508,-0.1524 0,-0.1524 0.0508,-0.1524 0.9652,0 1.4224,-0.127 0.4572,-0.127 0.6096,-0.4826 0.1778,-0.381 0.1778,-1.143 V 7.2431661 q 0,-0.7366 -0.127,-1.0668 -0.1016,-0.3556 -0.4572,-0.4826 -0.3556,-0.127 -1.143,-0.127 z m 21.71699,11.8617999 q -1.778,0 -3.175,-0.8382 -1.3716,-0.8382 -2.1336,-2.2606 -0.762,-1.4224 -0.762,-3.0734 0,-1.9811999 1.016,-3.4035999 1.0414,-1.4478 2.6162,-2.1844 1.6002,-0.7366 3.2512,-0.7366 1.778,0 3.1242,0.889 1.3716,0.8636 2.0828,2.2606 0.7366,1.397 0.7366,2.9209999 0,1.7018 -0.9144,3.2004 -0.9144,1.4732 -2.4638,2.3622 -1.5494,0.8636 -3.3782,0.8636 z m 0.6604,-0.5334 q 1.9812,0 3.1496,-1.397 1.1938,-1.397 1.1938,-3.8608 0,-1.7017999 -0.6096,-3.0987999 -0.5842,-1.397 -1.7272,-2.2352 -1.143,-0.8382 -2.7178,-0.8382 -2.032,0 -3.1496,1.3716 -1.1176,1.3462 -1.1176,3.7845999 0,1.7526 0.5842,3.175 0.6096,1.4224 1.7272,2.2606 1.143,0.8382 2.667,0.8382 z m 7.89939,0.2286 q -0.0508,0 -0.0508,-0.1524 0,-0.1524 0.0508,-0.1524 0.8382,0 1.2192,-0.127 0.381,-0.127 0.508,-0.4826 0.1524,-0.381 0.1524,-1.143 V 7.2939661 q 0,-0.762 -0.1524,-1.1176 -0.127,-0.3556 -0.508,-0.4826 -0.381,-0.1524 -1.2192,-0.1524 -0.0508,0 -0.0508,-0.1524 0,-0.1524 0.0508,-0.1524 h 8.8392 q 0.254,0 0.254,0.2032 l 0.0254,1.5748 q 0.0254,0.4826 0.0254,1.2192 0,0.0762 -0.1524,0.0762 -0.1524,0 -0.1524,-0.0762 -0.127,-1.2192 -0.8382,-1.9304 -0.7112,-0.7366 -1.8542,-0.7366 h -0.7112 q -0.889,0 -1.2954,0.1524 -0.4064,0.127 -0.5588,0.4826 -0.1524,0.3556 -0.1524,1.1176 v 7.6453999 q 0,0.8128 0.1778,1.1938 0.1778,0.3556 0.6858,0.508 0.5334,0.1524 1.651,0.1524 0.0762,0 0.0762,0.1524 0,0.1524 -0.0762,0.1524 -0.9144,0 -1.397,-0.0254 l -1.905,-0.0254 -1.3716,0.0254 q -0.4318,0.0254 -1.27,0.0254 z m 7.7978,-5.1562 q -0.1016,0 -1.1176,-0.1524 -0.9906,-0.1778 -3.9116,-0.1778 v -0.5588 q 2.8956,0 3.8862,-0.1016 1.016,-0.127 1.143,-0.127 0.127,0 0.127,0.5334 0,0.5842 -0.127,0.5842 z m 11.17598,-8.6613998 q 0,-0.762 -0.1524,-1.1176 -0.1524,-0.3556 -0.6096,-0.4826 -0.4318,-0.1524 -1.397,-0.1524 -0.0508,0 -0.0508,-0.1524 0,-0.1524 0.0508,-0.1524 l 1.27,0.0254 q 1.0668,0.0508 1.7018,0.0508 0.7366,0 1.8034,-0.0508 l 1.1938,-0.0254 q 0.0762,0 0.0762,0.1524 0,0.1524 -0.0762,0.1524 -0.9398,0 -1.397,0.1524 -0.4318,0.1524 -0.6096,0.5334 -0.1524,0.3556 -0.1524,1.1176 V 15.066366 q 0,0.7874 0.1524,1.143 0.1524,0.3556 0.5842,0.4826 0.4572,0.127 1.4224,0.127 0.0762,0 0.0762,0.1524 0,0.1524 -0.0762,0.1524 -0.762,0 -1.2192,-0.0254 l -1.778,-0.0254 -1.7272,0.0254 q -0.4572,0.0254 -1.27,0.0254 -0.0508,0 -0.0508,-0.1524 0,-0.1524 0.0508,-0.1524 0.9652,0 1.397,-0.127 0.4572,-0.127 0.6096,-0.4826 0.1778,-0.381 0.1778,-1.143 z m 2.3368,5.0545999 1.27,-1.016 3.7084,4.7243999 q 1.8542,2.413 2.8194,3.4036 0.9906,0.9906 1.524,1.1684 0.5334,0.1778 1.5494,0.1778 0.0762,0 0.0762,0.1524 0,0.1524 -0.0762,0.1524 h -2.8448 q -0.2032,0 -0.7366,0 -0.508,0.0254 -1.4478,-1.27 -0.9398,-1.3208 -1.8034,-2.413 z m 4.7498,-5.0545999 q 0.8382,-0.8382 0.8382,-1.2446 0,-0.508 -1.4986,-0.508 -0.0508,0 -0.0508,-0.1524 0,-0.1524 0.0508,-0.1524 l 1.0922,0.0254 q 1.016,0.0508 1.8542,0.0508 0.8382,0 1.7526,-0.0508 l 0.9398,-0.0254 q 0.0762,0 0.0762,0.1524 0,0.1524 -0.0762,0.1524 -1.0414,0 -2.2098,0.4572 -1.1684,0.4572 -2.1844,1.4478 l -6.5024,6.3753999 h -0.635 z m 12.5984,13.5127998 q 0.0508,0 0.0508,0.1524 0,0.1524 -0.0508,0.1524 -0.7112,0 -1.0922,-0.0254 l -1.6002,-0.0254 -1.4986,0.0254 q -0.4318,0.0254 -1.1684,0.0254 -0.0508,0 -0.0508,-0.1524 0,-0.1524 0.0508,-0.1524 0.8382,0 1.2192,-0.127 0.4064,-0.127 0.5588,-0.4826 0.1524,-0.381 0.1524,-1.143 V 7.2939661 q 0,-0.762 -0.1524,-1.1176 -0.127,-0.3556 -0.5334,-0.4826 -0.381,-0.1524 -1.2192,-0.1524 -0.0508,0 -0.0508,-0.1524 0,-0.1524 0.0508,-0.1524 l 1.1684,0.0254 q 0.9144,0.0508 1.4732,0.0508 0.4572,0 0.8382,-0.0254 0.4064,-0.0254 0.6858,-0.0508 0.8128,-0.0762 1.4986,-0.0762 1.651,0 2.5146,0.635 0.8636,0.635 0.8636,1.8288 0,1.0414 -0.6096,1.9304 -0.6096,0.8889999 -1.6764,1.4223999 -1.0668,0.508 -2.3368,0.508 -0.8128,0 -1.397,-0.1016 l -0.0254,-0.508 q 0.635,0.1778 1.6002,0.1778 1.5748,0 2.1844,-0.6858 0.635,-0.7111999 0.635,-2.0573999 0,-2.794 -2.413,-2.794 -0.9652,0 -1.27,0.4064 -0.2794,0.4064 -0.2794,1.4224 v 7.7215999 q 0,0.7874 0.127,1.143 0.127,0.3556 0.508,0.4826 0.381,0.127 1.2446,0.127 z m 7.5438,0 q 0.0508,0 0.0508,0.1524 0,0.1524 -0.0508,0.1524 h -2.9718 q -0.4572,0 -1.651,-1.5748 -1.1938,-1.5748 -2.8448,-4.318 l 1.3462,-0.5334 q 1.4732,2.413 2.4638,3.7084 0.9906,1.2954 1.8288,1.8542 0.8636,0.5588 1.8288,0.5588 z m 4.26722,-1.7526 q 0,0.7874 0.127,1.143 0.1524,0.3556 0.5334,0.4826 0.381,0.127 1.2446,0.127 0.0508,0 0.0508,0.1524 0,0.1524 -0.0508,0.1524 -0.7112,0 -1.1176,-0.0254 l -1.6002,-0.0254 -1.4986,0.0254 q -0.4318,0.0254 -1.1684,0.0254 -0.0508,0 -0.0508,-0.1524 0,-0.1524 0.0508,-0.1524 0.8636,0 1.2446,-0.127 0.381,-0.127 0.508,-0.4826 0.1524,-0.3556 0.1524,-1.143 V 7.2939661 q 0,-0.762 -0.1524,-1.1176 -0.127,-0.3556 -0.5334,-0.4826 -0.381,-0.1524 -1.2192,-0.1524 -0.0508,0 -0.0508,-0.1524 0,-0.1524 0.0508,-0.1524 l 1.1684,0.0254 q 0.9144,0.0508 1.4986,0.0508 0.6604,0 1.6256,-0.0508 l 1.0922,-0.0254 q 0.0508,0 0.0508,0.1524 0,0.1524 -0.0508,0.1524 -0.8128,0 -1.2192,0.1524 -0.4064,0.1524 -0.5588,0.5334 -0.127,0.3556 -0.127,1.1176 z m 10.46477,2.3622 q -2.032,0 -3.556,-0.8382 -1.4986,-0.8636 -2.286,-2.2606 -0.7874,-1.397 -0.7874,-2.9464 0,-1.9811999 0.889,-3.4289999 0.889,-1.4732 2.54,-2.2352 1.651,-0.7874 3.8862,-0.7874 1.0668,0 2.032,0.2032 0.9652,0.2032 1.6256,0.5842 0.1524,0.0762 0.1778,0.2032 0.0508,0.127 0.0762,0.3556 l 0.254,2.3876 q 0,0.0762 -0.1524,0.1016 -0.127,0 -0.1524,-0.0762 -0.5588,-1.7526 -1.6764,-2.5654 -1.1176,-0.8128 -2.794,-0.8128 -2.2352,0 -3.5814,1.5494 -1.3462,1.524 -1.3462,4.1909999 0,1.7526 0.6604,3.1242 0.6858,1.3462 1.905,2.1082 1.2446,0.762 2.8956,0.762 1.27,0 1.8542,-0.2286 0.6096,-0.2286 0.8128,-0.8636 0.2286,-0.6604 0.2286,-2.032 0,-0.6604 -0.1524,-0.9144 -0.127,-0.2794 -0.5842,-0.3556 -0.4318,-0.1016 -1.5494,-0.1016 -0.1524,0 -0.1524,-0.2032 0,-0.0762 0.0254,-0.127 0.0508,-0.0762 0.1016,-0.0762 1.3208,0.1016 2.667,0.1016 0.6096,0 2.032,-0.0508 0.0508,0 0.0762,0.0762 0.0508,0.0508 0.0508,0.1016 0,0.1778 -0.127,0.1778 -0.508,-0.0254 -0.7112,0.0762 -0.2032,0.1016 -0.254,0.4318 -0.0508,0.3048 -0.0508,1.1176 0,1.143 0.0508,1.6002 0.0508,0.4572 0.0508,0.635 0,0.1524 -0.0508,0.2032 -0.0254,0.0254 -0.2286,0.1016 -1.6764,0.7112 -4.699,0.7112 z m 9.57578,-10.1345999 q 0,1.0922 0.7366,1.778 0.7366,0.6604 2.2098,1.3969999 1.0414,0.5334 1.651,0.9652 0.635,0.4318 1.0668,1.0668 0.4318,0.635 0.4318,1.524 0,0.9398 -0.5334,1.7272 -0.508,0.762 -1.4732,1.2192 -0.9652,0.4572 -2.2606,0.4572 -1.8034,0 -3.048,-0.889 -0.127,-0.0508 -0.1778,-0.1524 -0.0254,-0.1016 -0.0508,-0.3302 l -0.254,-2.5146 q -0.0254,-0.1016 0.1016,-0.127 0.1524,-0.0254 0.2032,0.0762 0.3556,1.4732 1.397,2.5146 1.0668,1.016 2.3622,1.016 0.889,0 1.524,-0.508 0.6604,-0.5334 0.6604,-1.6256 0,-1.1684 -0.762,-1.905 -0.762,-0.7366 -2.2098,-1.4986 -1.016,-0.5588 -1.6256,-0.9652 -0.5842,-0.4318 -0.9906,-1.0413999 -0.4064,-0.6096 -0.4064,-1.4732 0,-1.4478 1.1176,-2.2606 1.1176,-0.8128 2.7178,-0.8128 1.2954,0 2.54,0.5842 0.2286,0.127 0.2794,0.2032 0.0762,0.0762 0.1016,0.2286 l 0.1524,2.2098 q 0,0.1016 -0.1524,0.127 -0.127,0.0254 -0.1524,-0.0762 -0.127,-0.635 -0.5842,-1.2954 -0.4318,-0.6858 -1.1176,-1.143 -0.6858,-0.4572 -1.524,-0.4572 -0.9144,0 -1.4224,0.5588 -0.508,0.5588 -0.508,1.4224 z m 20.06602,-2.0574 q 0.0508,0 0.0508,0.1524 0,0.1524 -0.0508,0.1524 -0.7366,0 -1.27,0.4318 -0.508,0.4064 -0.9144,1.4224 l -3.8354,9.7027999 q -0.0254,0.1016 -0.2794,0.1016 -0.254,0 -0.2794,-0.1016 l -4.6228,-9.7535999 q -0.508,-1.0668 -0.889,-1.4224 -0.381,-0.381 -1.0414,-0.381 -0.0762,0 -0.0762,-0.1524 0,-0.1524 0.0762,-0.1524 l 0.9652,0.0254 q 0.7112,0.0508 1.1176,0.0508 0.635,0 1.5494,-0.0508 l 1.016,-0.0254 q 0.0508,0 0.0508,0.1524 0,0.1524 -0.0508,0.1524 -1.3208,0 -1.3208,0.7874 0,0.2794 0.2032,0.762 l 4.0132,8.3057999 -0.7874,1.4224 3.6576,-9.5757999 q 0.1778,-0.5334 0.1778,-0.762 0,-0.9398 -1.7018,-0.9398 -0.0762,0 -0.0762,-0.1524 0,-0.1524 0.0762,-0.1524 l 0.9144,0.0254 q 0.762,0.0508 1.3716,0.0508 0.4064,0 1.016,-0.0508 z m 6.88339,12.1919999 q -1.778,0 -3.175,-0.8382 -1.3716,-0.8382 -2.1336,-2.2606 -0.762,-1.4224 -0.762,-3.0734 0,-1.9811999 1.016,-3.4035999 1.0414,-1.4478 2.6162,-2.1844 1.6002,-0.7366 3.2512,-0.7366 1.778,0 3.1242,0.889 1.3716,0.8636 2.0828,2.2606 0.7366,1.397 0.7366,2.9209999 0,1.7018 -0.9144,3.2004 -0.9144,1.4732 -2.4638,2.3622 -1.5494,0.8636 -3.3782,0.8636 z m 0.6604,-0.5334 q 1.9812,0 3.1496,-1.397 1.1938,-1.397 1.1938,-3.8608 0,-1.7017999 -0.6096,-3.0987999 -0.5842,-1.397 -1.7272,-2.2352 -1.143,-0.8382 -2.7178,-0.8382 -2.032,0 -3.1496,1.3716 -1.1176,1.3462 -1.1176,3.7845999 0,1.7526 0.5842,3.175 0.6096,1.4224 1.7272,2.2606 1.143,0.8382 2.667,0.8382 z m 11.32839,-1.9304 q 0,0.7366 0.127,1.0922 0.1524,0.3556 0.5334,0.508 0.4064,0.1524 1.1938,0.1524 h 1.7018 q 1.3208,0 2.1082,-0.8382 0.8128,-0.8382 1.0922,-2.3114 0,-0.0508 0.1016,-0.0508 0.0762,0 0.127,0.0254 0.0762,0.0254 0.0762,0.0762 -0.1778,1.1684 -0.1778,3.1242 0,0.2032 -0.1016,0.3048 -0.0762,0.0762 -0.2794,0.0762 h -9.9314 q -0.0508,0 -0.0508,-0.1524 0,-0.1524 0.0508,-0.1524 0.8382,0 1.2192,-0.127 0.381,-0.127 0.508,-0.4826 0.127,-0.381 0.127,-1.143 V 7.2939661 q 0,-0.762 -0.1524,-1.1176 -0.127,-0.3556 -0.508,-0.4826 -0.381,-0.1524 -1.1938,-0.1524 -0.0508,0 -0.0508,-0.1524 0,-0.1524 0.0508,-0.1524 l 1.143,0.0254 q 0.9652,0.0508 1.4986,0.0508 0.635,0 1.6002,-0.0508 l 1.0668,-0.0254 q 0.0762,0 0.0762,0.1524 0,0.1524 -0.0762,0.1524 -0.8382,0 -1.2192,0.1524 -0.381,0.127 -0.5334,0.508 -0.127,0.3556 -0.127,1.1176 z m 14.40179,2.2606 q -0.7112,0 -1.6002,-0.0762 -0.3048,-0.0254 -0.762,-0.0508 -0.4572,-0.0254 -1.0414,-0.0254 l -1.4986,0.0254 q -0.4318,0.0254 -1.1684,0.0254 -0.0508,0 -0.0508,-0.1524 0,-0.1524 0.0508,-0.1524 0.8636,0 1.2446,-0.127 0.4064,-0.127 0.5334,-0.4826 0.1524,-0.381 0.1524,-1.143 V 7.2939661 q 0,-0.762 -0.1524,-1.1176 -0.127,-0.3556 -0.5334,-0.4826 -0.381,-0.1524 -1.2192,-0.1524 -0.0508,0 -0.0508,-0.1524 0,-0.1524 0.0508,-0.1524 l 1.143,0.0254 q 0.9652,0.0508 1.4986,0.0508 0.7874,0 1.5748,-0.0762 1.016,-0.0508 1.524,-0.0508 2.1336,0 3.683,0.762 1.5494,0.762 2.3622,2.1082 0.8128,1.3462 0.8128,3.0479999 0,1.7526 -0.8382,3.1496 -0.8382,1.397 -2.3368,2.1844 -1.4732,0.7874 -3.3782,0.7874 z m -0.3048,-0.3556 q 2.3876,0 3.7084,-1.4224 1.3208,-1.4224 1.3208,-4.064 0,-2.5399999 -1.3208,-4.1909999 -1.2954,-1.651 -3.9116,-1.651 -1.1684,0 -1.651,0.381 -0.4572,0.381 -0.4572,1.4224 v 7.4421999 q 0,1.143 0.4572,1.6256 0.4826,0.4572 1.8542,0.4572 z"
       id="text1"
       aria-label="The Count of Krigsvold" /><g
       id="g1"
       transform="matrix(0.0127,0,0,0.0127,3.7950178e-7,3.4266082e-6)"><g
         id="g4"
         transform="matrix(1.2518406,0,0,1.2518406,-46.197213,-64.519152)"
         style="fill:#f8f8f8;fill-opacity:1"><path
           d="m 757.02,185.66 v 84.035 H 654.61 V 185.66 H 552.18 v 84.035 H 449.77 V 185.66 H 339.5 v 223.2 h 527.79 v -223.2 z"
           id="path1"
           style="fill:#f8f8f8;fill-opacity:1" /><path
           d="m 399.5,1049.5 h 137.86 v -97.379 c 0,-17.402 14.109,-31.512 31.512,-31.512 h 68.27 c 17.402,0 31.512,14.109 31.512,31.512 v 97.379 h 137.86 V 429.82 h -407 z"
           id="path2-5"
           style="fill:#f8f8f8;fill-opacity:1" /><path
           d="m 279.83,491.38 v 76.023 H 187.197 V 491.38 H 93.513 v 558.23 h 283.69 V 491.38 Z"
           id="path3"
           style="fill:#f8f8f8;fill-opacity:1" /><path
           d="m 1015.1,491.38 v 76.023 H 922.459 V 491.38 h -93.684 v 558.23 h 283.71 V 491.38 Z"
           id="path4"
           style="fill:#f8f8f8;fill-opacity:1" /></g></g><g
       id="g2"
       transform="matrix(0.01876478,0,0,0.01876478,308.62113,-0.79787287)"
       style="stroke:none;stroke-opacity:1"><path
         id="rect1-1"
         style="fill:none;fill-opacity:1;stroke:#f8f8f8;stroke-width:29.744;stroke-linecap:round;stroke-dasharray:none;stroke-opacity:1"
         d="M 20.280384,57.391703 H 405.29039 L 677.53527,329.63665 V 714.64667 L 405.29039,986.89156 H 20.280384 L -251.9646,714.64667 V 329.63665 Z"
         sodipodi:nodetypes="ccccccccc" /><g
         fill-rule="evenodd"
         id="g73"
         transform="matrix(0.69767428,0,0,0.69767428,-205.92079,103.65423)"
         style="fill:#f8f8f8;fill-opacity:1;stroke:none;stroke-opacity:1"><path
           d="m 148.92,388.75 c 19.047,5.1953 3.4648,39.828 -25.973,41.559 -19.047,0 -31.168,-10.391 -24.242,-22.512 -19.047,-1.7305 -25.973,-19.047 -10.391,-25.973 -15.586,-12.121 -15.586,-29.438 0,-31.168 -3.4648,-10.391 -1.7305,-22.512 6.9258,-25.973 6.9258,-1.7305 15.586,5.1953 20.777,17.316 13.852,-13.852 25.973,-1.7305 22.512,19.047 20.777,-5.1953 20.777,15.586 10.391,27.707 z"
           id="path1-7"
           style="fill:#f8f8f8;fill-opacity:1;stroke:none;stroke-opacity:1" /><path
           d="m 218.18,430.3 c 10.391,17.316 -25.973,29.438 -46.754,6.9258 -13.852,-12.121 -12.121,-29.438 0,-31.168 -10.391,-17.316 -3.4648,-32.902 13.852,-25.973 -1.7305,-19.047 10.391,-31.168 22.512,-20.777 6.9258,-10.391 17.316,-15.586 24.242,-12.121 6.9258,5.1953 6.9258,15.586 1.7305,27.707 17.316,1.7305 17.316,19.047 0,29.438 15.586,12.121 1.7305,25.973 -15.586,25.973 z"
           id="path2"
           style="fill:#f8f8f8;fill-opacity:1;stroke:none;stroke-opacity:1" /><path
           d="m 110.82,444.16 c 10.391,-17.316 36.363,10.391 27.707,38.094 -6.9258,17.316 -22.512,25.973 -29.438,13.852 -10.391,19.047 -27.707,19.047 -29.438,1.7305 -15.586,8.6562 -31.168,3.4648 -27.707,-10.391 -12.121,-1.7305 -20.777,-8.6562 -20.777,-17.316 0,-6.9258 10.391,-13.852 22.512,-13.852 -6.9258,-17.316 8.6562,-24.242 25.973,-13.852 3.4648,-20.777 22.512,-13.852 31.168,1.7305 z"
           id="path3-5"
           style="fill:#f8f8f8;fill-opacity:1;stroke:none;stroke-opacity:1" /><path
           d="m 348.05,225.97 c 15.586,3.4648 3.4648,32.902 -22.512,34.633 -15.586,0 -25.973,-8.6562 -20.777,-17.316 -17.316,-3.4648 -22.512,-17.316 -8.6562,-24.242 -13.852,-10.391 -13.852,-24.242 0,-25.973 -3.4648,-10.391 -1.7305,-19.047 5.1953,-20.777 6.9258,-3.4648 13.852,3.4648 19.047,12.121 10.391,-10.391 22.512,0 19.047,17.316 17.316,-3.4648 17.316,13.852 8.6562,24.242 z"
           id="path4-6"
           style="fill:#f8f8f8;fill-opacity:1;stroke:none;stroke-opacity:1" /><path
           d="m 415.59,262.34 c 10.391,17.316 -25.973,27.707 -46.754,6.9258 -12.121,-13.852 -12.121,-31.168 0,-32.902 -10.391,-17.316 -3.4648,-32.902 13.852,-25.973 -1.7305,-19.047 10.391,-29.438 22.512,-20.777 6.9258,-10.391 17.316,-15.586 24.242,-10.391 6.9258,3.4648 6.9258,15.586 1.7305,25.973 17.316,1.7305 17.316,20.777 0,31.168 17.316,10.391 1.7305,24.242 -15.586,25.973 z"
           id="path5"
           style="fill:#f8f8f8;fill-opacity:1;stroke:none;stroke-opacity:1" /><path
           d="m 308.23,274.46 c 10.391,-15.586 36.363,10.391 27.707,39.828 -6.9258,17.316 -22.512,24.242 -29.438,13.852 -10.391,17.316 -27.707,17.316 -29.438,0 -15.586,10.391 -31.168,3.4648 -27.707,-10.391 -12.121,-1.7305 -20.777,-8.6562 -20.777,-15.586 0,-8.6562 10.391,-15.586 22.512,-15.586 -6.9258,-15.586 8.6562,-24.242 27.707,-12.121 1.7305,-20.777 20.777,-15.586 29.438,0 z"
           id="path6"
           style="fill:#f8f8f8;fill-opacity:1;stroke:none;stroke-opacity:1" /><path
           d="m 666.67,130.73 c 17.316,3.4648 5.1953,32.902 -22.512,34.633 -15.586,0 -25.973,-8.6562 -20.777,-19.047 -17.316,-1.7305 -24.242,-17.316 -8.6562,-24.242 -13.852,-10.391 -13.852,-24.242 -1.7305,-25.973 -1.7305,-10.391 0,-19.047 6.9258,-22.512 6.9258,-1.7305 13.852,3.4648 19.047,13.852 10.391,-10.391 22.512,0 19.047,17.316 17.316,-5.1953 19.047,13.852 8.6562,25.973 z"
           id="path7"
           style="fill:#f8f8f8;fill-opacity:1;stroke:none;stroke-opacity:1" /><path
           d="m 744.59,191.34 c 10.391,17.316 -25.973,27.707 -46.754,6.9258 -12.121,-13.852 -12.121,-31.168 0,-31.168 -10.391,-19.047 -1.7305,-34.633 13.852,-27.707 0,-19.047 12.121,-29.438 22.512,-19.047 6.9258,-10.391 17.316,-15.586 24.242,-12.121 6.9258,3.4648 8.6562,15.586 1.7305,27.707 19.047,1.7305 17.316,19.047 0,29.438 17.316,10.391 1.7305,25.973 -15.586,25.973 z"
           id="path8"
           style="fill:#f8f8f8;fill-opacity:1;stroke:none;stroke-opacity:1" /><path
           d="m 626.84,179.22 c 12.121,-15.586 38.094,10.391 29.438,39.828 -6.9258,17.316 -22.512,24.242 -29.438,13.852 -10.391,17.316 -27.707,17.316 -29.438,0 -15.586,8.6562 -31.168,3.4648 -27.707,-10.391 -12.121,-1.7305 -22.512,-8.6562 -22.512,-15.586 1.7305,-8.6562 10.391,-15.586 24.242,-15.586 -6.9258,-15.586 8.6562,-24.242 25.973,-12.121 1.7305,-20.777 22.512,-15.586 29.438,0 z"
           id="path9"
           style="fill:#f8f8f8;fill-opacity:1;stroke:none;stroke-opacity:1" /><path
           d="m 1135.9,494.37 c -3.4648,19.047 -38.094,3.4648 -39.828,-25.973 -1.7305,-17.316 10.391,-31.168 20.777,-24.242 3.4648,-20.777 19.047,-27.707 27.707,-10.391 10.391,-15.586 27.707,-17.316 29.438,-1.7305 12.121,-3.4648 22.512,0 25.973,6.9258 1.7305,6.9258 -3.4648,17.316 -15.586,22.512 12.121,12.121 0,25.973 -20.777,22.512 6.9258,19.047 -13.852,20.777 -27.707,10.391 z"
           id="path10"
           style="fill:#f8f8f8;fill-opacity:1;stroke:none;stroke-opacity:1" /><path
           d="m 1096.1,563.64 c -17.316,10.391 -29.438,-25.973 -6.9258,-46.754 12.121,-13.852 29.438,-12.121 31.168,0 17.316,-12.121 32.902,-3.4648 25.973,13.852 19.047,-1.7305 31.168,10.391 20.777,20.777 10.391,6.9258 15.586,17.316 12.121,24.242 -3.4648,6.9258 -15.586,8.6562 -27.707,3.4648 0,17.316 -19.047,17.316 -29.438,-1.7305 -10.391,17.316 -25.973,3.4648 -25.973,-13.852 z"
           id="path11"
           style="fill:#f8f8f8;fill-opacity:1;stroke:none;stroke-opacity:1" /><path
           d="m 1082.2,456.28 c 15.586,10.391 -10.391,38.094 -39.828,27.707 -17.316,-5.1953 -24.242,-20.777 -13.852,-27.707 -17.316,-10.391 -19.047,-27.707 0,-29.438 -10.391,-17.316 -5.1953,-32.902 8.6562,-29.438 1.7305,-12.121 8.6562,-20.777 17.316,-20.777 6.9258,0 13.852,10.391 13.852,22.512 17.316,-6.9258 24.242,8.6562 13.852,27.707 20.777,1.7305 13.852,20.777 0,29.438 z"
           id="path12"
           style="fill:#f8f8f8;fill-opacity:1;stroke:none;stroke-opacity:1" /><path
           d="m 886.58,435.5 c 0,-17.316 31.168,-8.6562 36.363,15.586 3.4648,15.586 -5.1953,27.707 -13.852,22.512 0,17.316 -12.121,25.973 -22.512,13.852 -6.9258,13.852 -20.777,15.586 -24.242,3.4648 -8.6562,5.1953 -19.047,3.4648 -22.512,-1.7305 -1.7305,-5.1953 1.7305,-13.852 10.391,-20.777 -12.121,-8.6562 -3.4648,-20.777 13.852,-20.777 -6.9258,-15.586 8.6562,-19.047 22.512,-12.121 z"
           id="path13"
           style="fill:#f8f8f8;fill-opacity:1;stroke:none;stroke-opacity:1" /><path
           d="m 907.36,361.04 c 15.586,-12.121 32.902,22.512 15.586,46.754 -12.121,13.852 -27.707,17.316 -31.168,3.4648 -15.586,13.852 -32.902,8.6562 -29.438,-8.6562 -17.316,5.1953 -31.168,-5.1953 -22.512,-17.316 -12.121,-5.1953 -19.047,-15.586 -15.586,-22.512 1.7305,-6.9258 13.852,-10.391 25.973,-6.9258 -1.7305,-17.316 15.586,-20.777 29.438,-3.4648 8.6562,-19.047 24.242,-6.9258 27.707,8.6562 z"
           id="path14"
           style="fill:#f8f8f8;fill-opacity:1;stroke:none;stroke-opacity:1" /><path
           d="m 938.53,466.67 c -17.316,-8.6562 5.1953,-39.828 34.633,-34.633 17.316,3.4648 27.707,17.316 17.316,25.973 20.777,6.9258 22.512,24.242 5.1953,29.438 12.121,13.852 10.391,31.168 -5.1953,29.438 0,12.121 -3.4648,22.512 -12.121,24.242 -8.6562,0 -15.586,-8.6562 -19.047,-20.777 -13.852,8.6562 -24.242,-5.1953 -17.316,-24.242 -19.047,1.7305 -17.316,-19.047 -3.4648,-29.438 z"
           id="path15"
           style="fill:#f8f8f8;fill-opacity:1;stroke:none;stroke-opacity:1" /><path
           d="m 522.95,335.07 c -8.6562,-17.316 25.973,-29.438 48.484,-8.6562 12.121,13.852 12.121,31.168 -1.7305,32.902 12.121,17.316 5.1953,32.902 -12.121,25.973 1.7305,19.047 -10.391,31.168 -22.512,20.777 -5.1953,10.391 -15.586,15.586 -22.512,12.121 -6.9258,-3.4648 -8.6562,-15.586 -3.4648,-27.707 -17.316,-1.7305 -17.316,-19.047 0,-29.438 -17.316,-12.121 -3.4648,-25.973 13.852,-25.973 z"
           id="path16"
           style="fill:#f8f8f8;fill-opacity:1;stroke:none;stroke-opacity:1" /><path
           d="m 528.14,239.83 c 6.9258,-19.047 38.094,0 36.363,31.168 -1.7305,17.316 -15.586,29.438 -24.242,20.777 -5.1953,19.047 -22.512,24.242 -29.438,6.9258 -12.121,13.852 -29.438,12.121 -29.438,-3.4648 -12.121,1.7305 -22.512,-1.7305 -24.242,-10.391 -1.7305,-6.9258 6.9258,-15.586 19.047,-19.047 -10.391,-13.852 3.4648,-25.973 22.512,-19.047 -3.4648,-20.777 17.316,-19.047 29.438,-6.9258 z"
           id="path17"
           style="fill:#f8f8f8;fill-opacity:1;stroke:none;stroke-opacity:1" /><path
           d="m 590.48,326.41 c -20.777,3.4648 -17.316,-34.633 10.391,-46.754 17.316,-6.9258 32.902,0 29.438,12.121 20.777,-3.4648 31.168,10.391 19.047,22.512 19.047,5.1953 24.242,20.777 10.391,27.707 8.6562,10.391 8.6562,22.512 3.4648,27.707 -6.9258,5.1953 -17.316,1.7305 -25.973,-8.6562 -8.6562,17.316 -24.242,10.391 -27.707,-10.391 -17.316,12.121 -25.973,-6.9258 -19.047,-24.242 z"
           id="path18"
           style="fill:#f8f8f8;fill-opacity:1;stroke:none;stroke-opacity:1" /><path
           d="m 285.71,492.64 c 8.6562,15.586 -22.512,25.973 -41.559,6.9258 -12.121,-10.391 -12.121,-25.973 0,-27.707 -10.391,-15.586 -3.4648,-29.438 12.121,-24.242 -1.7305,-15.586 8.6562,-25.973 19.047,-17.316 5.1953,-8.6562 13.852,-13.852 20.777,-10.391 6.9258,3.4648 6.9258,13.852 1.7305,24.242 15.586,0 15.586,17.316 0,25.973 15.586,10.391 3.4648,22.512 -12.121,22.512 z"
           id="path19"
           style="fill:#f8f8f8;fill-opacity:1;stroke:none;stroke-opacity:1" /><path
           d="m 141.99,522.08 c -5.1953,-17.316 29.438,-20.777 43.289,1.7305 8.6562,13.852 5.1953,27.707 -6.9258,27.707 6.9258,17.316 -1.7305,29.438 -15.586,20.777 -1.7305,15.586 -13.852,24.242 -22.512,13.852 -6.9258,6.9258 -17.316,10.391 -22.512,5.1953 -5.1953,-5.1953 -5.1953,-15.586 1.7305,-24.242 -13.852,-3.4648 -10.391,-19.047 6.9258,-25.973 -13.852,-12.121 1.7305,-22.512 15.586,-19.047 z"
           id="path20"
           style="fill:#f8f8f8;fill-opacity:1;stroke:none;stroke-opacity:1" /><path
           d="m 320.35,402.6 c -17.316,1.7305 -15.586,-31.168 8.6562,-41.559 15.586,-6.9258 29.438,-1.7305 25.973,10.391 17.316,-3.4648 29.438,8.6562 17.316,19.047 15.586,5.1953 22.512,19.047 10.391,24.242 5.1953,8.6562 6.9258,19.047 1.7305,24.242 -5.1953,3.4648 -15.586,1.7305 -22.512,-6.9258 -6.9258,13.852 -22.512,8.6562 -25.973,-10.391 -13.852,10.391 -20.777,-5.1953 -15.586,-19.047 z"
           id="path21"
           style="fill:#f8f8f8;fill-opacity:1;stroke:none;stroke-opacity:1" /><path
           d="m 735.93,357.57 c -19.047,5.1953 -19.047,-32.902 6.9258,-46.754 15.586,-8.6562 32.902,-3.4648 29.438,8.6562 20.777,-5.1953 34.633,6.9258 22.512,20.777 19.047,3.4648 25.973,19.047 13.852,25.973 6.9258,10.391 10.391,20.777 3.4648,25.973 -5.1953,6.9258 -15.586,3.4648 -25.973,-3.4648 -6.9258,15.586 -22.512,10.391 -27.707,-10.391 -15.586,13.852 -25.973,-3.4648 -22.512,-20.777 z"
           id="path22"
           style="fill:#f8f8f8;fill-opacity:1;stroke:none;stroke-opacity:1" /><path
           d="m 742.86,293.51 c -1.7305,17.316 -32.902,5.1953 -36.363,-20.777 -1.7305,-15.586 8.6562,-27.707 17.316,-22.512 1.7305,-17.316 15.586,-24.242 24.242,-10.391 8.6562,-13.852 24.242,-15.586 25.973,-1.7305 10.391,-3.4648 20.777,-1.7305 22.512,5.1953 3.4648,5.1953 -1.7305,13.852 -12.121,19.047 10.391,10.391 1.7305,22.512 -17.316,20.777 6.9258,17.316 -12.121,19.047 -24.242,10.391 z"
           id="path23"
           style="fill:#f8f8f8;fill-opacity:1;stroke:none;stroke-opacity:1" /><path
           d="m 962.77,319.48 c 3.4648,17.316 -29.438,15.586 -39.828,-8.6562 -6.9258,-15.586 0,-29.438 10.391,-25.973 -3.4648,-19.047 8.6562,-29.438 19.047,-17.316 5.1953,-17.316 19.047,-22.512 24.242,-10.391 8.6562,-5.1953 19.047,-6.9258 24.242,-1.7305 3.4648,5.1953 1.7305,15.586 -6.9258,22.512 13.852,6.9258 8.6562,22.512 -10.391,24.242 10.391,15.586 -5.1953,22.512 -20.777,17.316 z"
           id="path24"
           style="fill:#f8f8f8;fill-opacity:1;stroke:none;stroke-opacity:1" /><path
           d="m 978.36,393.94 c -8.6562,19.047 -39.828,-1.7305 -36.363,-31.168 3.4648,-19.047 15.586,-29.438 25.973,-20.777 5.1953,-19.047 24.242,-22.512 27.707,-5.1953 13.852,-13.852 31.168,-10.391 29.438,3.4648 13.852,0 24.242,3.4648 24.242,12.121 1.7305,6.9258 -6.9258,15.586 -19.047,19.047 10.391,13.852 -3.4648,25.973 -22.512,17.316 1.7305,20.777 -19.047,19.047 -29.438,5.1953 z"
           id="path25"
           style="fill:#f8f8f8;fill-opacity:1;stroke:none;stroke-opacity:1" /><path
           d="m 441.56,134.2 c 17.316,3.4648 3.4648,34.633 -22.512,36.363 -17.316,0 -27.707,-10.391 -20.777,-19.047 -19.047,-3.4648 -24.242,-17.316 -10.391,-24.242 -13.852,-10.391 -13.852,-24.242 0,-25.973 -3.4648,-10.391 0,-20.777 5.1953,-22.512 6.9258,-3.4648 15.586,3.4648 20.777,13.852 10.391,-10.391 22.512,0 19.047,17.316 17.316,-5.1953 17.316,12.121 8.6562,24.242 z"
           id="path26"
           style="fill:#f8f8f8;fill-opacity:1;stroke:none;stroke-opacity:1" /><path
           d="m 519.48,196.54 c 8.6562,17.316 -27.707,27.707 -46.754,6.9258 -13.852,-13.852 -13.852,-31.168 0,-32.902 -12.121,-17.316 -3.4648,-32.902 13.852,-25.973 -1.7305,-19.047 10.391,-29.438 20.777,-20.777 6.9258,-10.391 17.316,-13.852 24.242,-10.391 6.9258,3.4648 8.6562,15.586 3.4648,25.973 17.316,1.7305 17.316,20.777 -1.7305,31.168 17.316,10.391 3.4648,24.242 -13.852,25.973 z"
           id="path27"
           style="fill:#f8f8f8;fill-opacity:1;stroke:none;stroke-opacity:1" /><path
           d="m 202.6,291.77 c 19.047,-3.4648 19.047,32.902 -6.9258,46.754 -17.316,8.6562 -32.902,3.4648 -29.438,-8.6562 -20.777,5.1953 -34.633,-6.9258 -22.512,-20.777 -19.047,-5.1953 -25.973,-19.047 -12.121,-27.707 -8.6562,-8.6562 -10.391,-20.777 -5.1953,-25.973 6.9258,-5.1953 17.316,-3.4648 27.707,5.1953 5.1953,-15.586 22.512,-10.391 27.707,8.6562 15.586,-12.121 25.973,5.1953 20.777,22.512 z"
           id="path28"
           style="fill:#f8f8f8;fill-opacity:1;stroke:none;stroke-opacity:1" /><path
           d="m 715.15,94.371 c 1.7305,13.852 -27.707,12.121 -38.094,-8.6562 -5.1953,-13.852 0,-25.973 10.391,-22.512 -3.4648,-17.316 6.9258,-25.973 17.316,-17.316 3.4648,-13.852 15.586,-17.316 20.777,-6.9258 8.6562,-6.9258 17.316,-6.9258 22.512,-1.7305 3.4648,3.4648 0,13.852 -6.9258,20.777 12.121,5.1953 6.9258,17.316 -8.6562,20.777 8.6562,13.852 -5.1953,19.047 -17.316,15.586 z"
           id="path29"
           style="fill:#f8f8f8;fill-opacity:1;stroke:none;stroke-opacity:1" /><path
           d="m 824.24,210.39 c -6.9258,19.047 -38.094,-1.7305 -34.633,-31.168 1.7305,-19.047 15.586,-29.438 24.242,-20.777 6.9258,-19.047 24.242,-22.512 29.438,-5.1953 13.852,-13.852 31.168,-12.121 29.438,3.4648 12.121,-1.7305 22.512,3.4648 24.242,12.121 1.7305,6.9258 -6.9258,15.586 -19.047,19.047 10.391,13.852 -3.4648,24.242 -24.242,17.316 3.4648,20.777 -17.316,19.047 -29.438,5.1953 z"
           id="path30"
           style="fill:#f8f8f8;fill-opacity:1;stroke:none;stroke-opacity:1" /><path
           d="m 822.51,113.42 c 8.6562,12.121 -19.047,24.242 -38.094,8.6562 -10.391,-8.6562 -12.121,-22.512 -1.7305,-24.242 -10.391,-13.852 -5.1953,-27.707 8.6562,-22.512 -3.4648,-15.586 5.1953,-25.973 15.586,-19.047 5.1953,-8.6562 12.121,-13.852 17.316,-10.391 6.9258,1.7305 8.6562,12.121 5.1953,20.777 13.852,0 15.586,13.852 1.7305,24.242 15.586,6.9258 5.1953,20.777 -8.6562,22.512 z"
           id="path31"
           style="fill:#f8f8f8;fill-opacity:1;stroke:none;stroke-opacity:1" /><path
           d="m 588.75,89.176 c 15.586,1.7305 6.9258,29.438 -15.586,32.902 -13.852,3.4648 -25.973,-5.1953 -20.777,-13.852 -15.586,0 -22.512,-12.121 -12.121,-19.047 -12.121,-8.6562 -13.852,-20.777 -3.4648,-24.242 -3.4648,-8.6562 -1.7305,-17.316 3.4648,-20.777 5.1953,-1.7305 13.852,1.7305 19.047,10.391 8.6562,-10.391 20.777,-1.7305 19.047,13.852 15.586,-6.9258 17.316,8.6562 10.391,20.777 z"
           id="path32"
           style="fill:#f8f8f8;fill-opacity:1;stroke:none;stroke-opacity:1" /><path
           d="m 503.89,90.91 c 12.121,6.9258 -5.1953,29.438 -27.707,22.512 -13.852,-3.4648 -19.047,-13.852 -12.121,-20.777 -13.852,-6.9258 -15.586,-19.047 -1.7305,-20.777 -8.6562,-12.121 -5.1953,-24.242 6.9258,-22.512 0,-8.6562 3.4648,-15.586 10.391,-17.316 5.1953,0 10.391,6.9258 12.121,17.316 12.121,-6.9258 19.047,5.1953 10.391,19.047 15.586,0 12.121,15.586 1.7305,22.512 z"
           id="path33"
           style="fill:#f8f8f8;fill-opacity:1;stroke:none;stroke-opacity:1" /><path
           d="m 261.47,241.56 c 12.121,8.6562 -6.9258,29.438 -27.707,24.242 -13.852,-5.1953 -20.777,-15.586 -12.121,-20.777 -13.852,-6.9258 -15.586,-20.777 -1.7305,-22.512 -8.6562,-12.121 -5.1953,-24.242 6.9258,-22.512 0,-8.6562 5.1953,-15.586 10.391,-15.586 6.9258,0 12.121,6.9258 12.121,15.586 12.121,-5.1953 19.047,6.9258 12.121,20.777 13.852,0 10.391,13.852 0,20.777 z"
           id="path34"
           style="fill:#f8f8f8;fill-opacity:1;stroke:none;stroke-opacity:1" /><path
           d="m 363.64,141.12 c 13.852,-5.1953 17.316,22.512 -1.7305,34.633 -12.121,6.9258 -24.242,5.1953 -24.242,-5.1953 -13.852,5.1953 -24.242,-3.4648 -17.316,-13.852 -13.852,-1.7305 -19.047,-12.121 -10.391,-19.047 -6.9258,-6.9258 -8.6562,-15.586 -5.1953,-19.047 3.4648,-5.1953 12.121,-3.4648 20.777,1.7305 3.4648,-12.121 17.316,-8.6562 20.777,5.1953 12.121,-10.391 19.047,1.7305 17.316,15.586 z"
           id="path35"
           style="fill:#f8f8f8;fill-opacity:1;stroke:none;stroke-opacity:1" /><path
           d="m 931.6,232.9 c 5.1953,13.852 -22.512,19.047 -34.633,0 -8.6562,-10.391 -6.9258,-24.242 3.4648,-22.512 -6.9258,-15.586 1.7305,-25.973 13.852,-19.047 0,-13.852 10.391,-20.777 17.316,-12.121 6.9258,-6.9258 15.586,-8.6562 19.047,-5.1953 5.1953,3.4648 5.1953,12.121 0,19.047 12.121,3.4648 10.391,17.316 -5.1953,22.512 12.121,10.391 0,19.047 -13.852,17.316 z"
           id="path36"
           style="fill:#f8f8f8;fill-opacity:1;stroke:none;stroke-opacity:1" /><path
           d="m 1134.2,402.6 c 5.1953,13.852 -22.512,19.047 -34.633,0 -8.6562,-12.121 -5.1953,-24.242 3.4648,-24.242 -5.1953,-13.852 1.7305,-24.242 13.852,-17.316 1.7305,-13.852 10.391,-20.777 19.047,-12.121 5.1953,-6.9258 13.852,-10.391 19.047,-6.9258 3.4648,5.1953 3.4648,13.852 -1.7305,20.777 12.121,3.4648 10.391,17.316 -5.1953,22.512 12.121,10.391 0,19.047 -13.852,17.316 z"
           id="path37"
           style="fill:#f8f8f8;fill-opacity:1;stroke:none;stroke-opacity:1" /><path
           d="m 1101.3,341.99 c 8.6562,15.586 -22.512,24.242 -41.559,6.9258 -10.391,-12.121 -10.391,-27.707 1.7305,-29.438 -10.391,-13.852 -3.4648,-29.438 10.391,-22.512 0,-17.316 10.391,-25.973 19.047,-17.316 6.9258,-10.391 15.586,-13.852 22.512,-10.391 5.1953,3.4648 6.9258,13.852 1.7305,22.512 15.586,1.7305 15.586,17.316 0,27.707 13.852,8.6562 1.7305,22.512 -13.852,22.512 z"
           id="path38"
           style="fill:#f8f8f8;fill-opacity:1;stroke:none;stroke-opacity:1" /><path
           d="m 1051.1,281.39 c 5.1953,13.852 -24.242,19.047 -36.363,0 -8.6562,-10.391 -5.1953,-24.242 3.4648,-22.512 -5.1953,-15.586 1.7305,-25.973 13.852,-19.047 1.7305,-13.852 12.121,-20.777 19.047,-12.121 5.1953,-6.9258 13.852,-8.6562 19.047,-5.1953 5.1953,3.4648 3.4648,12.121 -1.7305,19.047 12.121,3.4648 10.391,17.316 -3.4648,22.512 10.391,10.391 -1.7305,19.047 -13.852,17.316 z"
           id="path39"
           style="fill:#f8f8f8;fill-opacity:1;stroke:none;stroke-opacity:1" /><path
           d="m 1016.4,219.05 c 3.4648,17.316 -31.168,17.316 -43.289,-8.6562 -6.9258,-13.852 -1.7305,-29.438 10.391,-25.973 -5.1953,-19.047 6.9258,-29.438 19.047,-19.047 3.4648,-17.316 17.316,-22.512 24.242,-10.391 8.6562,-6.9258 19.047,-8.6562 24.242,-3.4648 5.1953,5.1953 1.7305,15.586 -5.1953,24.242 13.852,5.1953 8.6562,20.777 -10.391,25.973 12.121,13.852 -5.1953,22.512 -19.047,17.316 z"
           id="path40"
           style="fill:#f8f8f8;fill-opacity:1;stroke:none;stroke-opacity:1" /><path
           d="m 881.39,127.27 c -1.7305,15.586 -29.438,8.6562 -34.633,-12.121 -1.7305,-13.852 3.4648,-25.973 13.852,-20.777 C 858.8785,78.786 871,71.86 877.925,82.251 c 6.9258,-12.121 19.047,-15.586 22.512,-5.1953 8.6562,-3.4648 17.316,-3.4648 20.777,1.7305 1.7305,5.1953 -1.7305,13.852 -8.6562,19.047 10.391,6.9258 3.4648,19.047 -12.121,19.047 6.9258,13.852 -8.6562,17.316 -19.047,10.391 z"
           id="path41"
           style="fill:#f8f8f8;fill-opacity:1;stroke:none;stroke-opacity:1" /><path
           d="m 948.92,158.44 c 6.9258,10.391 -13.852,20.777 -29.438,8.6562 -8.6562,-8.6562 -10.391,-19.047 -1.7305,-20.777 -8.6562,-10.391 -5.1953,-20.777 5.1953,-17.316 -1.7305,-12.121 5.1953,-19.047 12.121,-13.852 3.4648,-6.9258 10.391,-12.121 13.852,-10.391 5.1953,1.7305 6.9258,10.391 5.1953,17.316 10.391,0 12.121,10.391 1.7305,19.047 12.121,5.1953 3.4648,15.586 -6.9258,17.316 z"
           id="path42"
           style="fill:#f8f8f8;fill-opacity:1;stroke:none;stroke-opacity:1" /><path
           d="m 637.23,63.203 c -8.6562,10.391 13.852,19.047 27.707,8.6562 10.391,-8.6562 10.391,-19.047 3.4648,-20.777 8.6562,-10.391 3.4648,-20.777 -6.9258,-17.316 1.7305,-12.121 -3.4648,-19.047 -12.121,-13.852 -3.4648,-6.9258 -8.6562,-12.121 -13.852,-10.391 -5.1953,1.7305 -6.9258,10.391 -3.4648,17.316 -12.121,0 -12.121,10.391 -1.7305,19.047 -12.121,5.1953 -5.1953,15.586 6.9258,17.316 z"
           id="path43"
           style="fill:#f8f8f8;fill-opacity:1;stroke:none;stroke-opacity:1" /><path
           d="m 462.34,343.72 c 13.852,8.6562 -5.1953,29.438 -27.707,24.242 -13.852,-3.4648 -19.047,-15.586 -12.121,-20.777 -13.852,-6.9258 -15.586,-20.777 -1.7305,-22.512 -8.6562,-12.121 -5.1953,-24.242 6.9258,-20.777 0,-10.391 3.4648,-17.316 10.391,-17.316 5.1953,0 10.391,6.9258 12.121,15.586 12.121,-5.1953 19.047,6.9258 12.121,20.777 13.852,0 10.391,13.852 0,20.777 z"
           id="path44"
           style="fill:#f8f8f8;fill-opacity:1;stroke:none;stroke-opacity:1" /><path
           d="m 335.93,516.88 c 0,12.121 -24.242,8.6562 -29.438,-10.391 -3.4648,-10.391 3.4648,-20.777 10.391,-17.316 -1.7305,-12.121 8.6562,-19.047 15.586,-10.391 5.1953,-10.391 15.586,-13.852 17.316,-5.1953 6.9258,-3.4648 15.586,-1.7305 17.316,1.7305 3.4648,3.4648 0,10.391 -6.9258,15.586 10.391,6.9258 3.4648,15.586 -8.6562,15.586 5.1953,12.121 -6.9258,15.586 -15.586,10.391 z"
           id="path45"
           style="fill:#f8f8f8;fill-opacity:1;stroke:none;stroke-opacity:1" /><path
           d="m 396.54,445.89 c -8.6562,-10.391 10.391,-22.512 27.707,-12.121 8.6562,5.1953 12.121,15.586 3.4648,19.047 10.391,8.6562 8.6562,19.047 -3.4648,17.316 5.1953,12.121 -1.7305,20.777 -10.391,17.316 -1.7305,6.9258 -6.9258,12.121 -12.121,10.391 -5.1953,-1.7305 -6.9258,-8.6562 -5.1953,-15.586 -12.121,1.7305 -13.852,-8.6562 -5.1953,-19.047 -12.121,-3.4648 -5.1953,-15.586 5.1953,-17.316 z"
           id="path46"
           style="fill:#f8f8f8;fill-opacity:1;stroke:none;stroke-opacity:1" /><path
           d="m 202.6,570.56 c -8.6562,-10.391 12.121,-22.512 27.707,-12.121 10.391,5.1953 12.121,15.586 5.1953,19.047 8.6562,8.6562 6.9258,19.047 -3.4648,19.047 3.4648,10.391 -1.7305,19.047 -10.391,15.586 -3.4648,6.9258 -8.6562,12.121 -13.852,10.391 -3.4648,-1.7305 -6.9258,-8.6562 -5.1953,-15.586 -10.391,1.7305 -13.852,-8.6562 -5.1953,-19.047 -12.121,-3.4648 -5.1953,-13.852 5.1953,-17.316 z"
           id="path47"
           style="fill:#f8f8f8;fill-opacity:1;stroke:none;stroke-opacity:1" /><path
           d="m 509.09,468.4 c -8.6562,8.6562 -20.777,-12.121 -10.391,-27.707 6.9258,-10.391 17.316,-12.121 20.777,-3.4648 8.6562,-10.391 20.777,-6.9258 17.316,3.4648 12.121,-1.7305 20.777,3.4648 15.586,12.121 6.9258,1.7305 12.121,8.6562 10.391,13.852 -1.7305,3.4648 -8.6562,6.9258 -15.586,3.4648 0,12.121 -10.391,13.852 -19.047,3.4648 -5.1953,12.121 -15.586,5.1953 -19.047,-5.1953 z"
           id="path48"
           style="fill:#f8f8f8;fill-opacity:1;stroke:none;stroke-opacity:1" /><path
           d="m 604.33,393.94 c -3.4648,-13.852 25.973,-13.852 34.633,6.9258 5.1953,13.852 1.7305,25.973 -8.6562,22.512 3.4648,15.586 -6.9258,24.242 -15.586,15.586 -5.1953,13.852 -15.586,19.047 -20.777,8.6562 -8.6562,5.1953 -15.586,6.9258 -20.777,1.7305 -3.4648,-3.4648 -1.7305,-12.121 5.1953,-19.047 -12.121,-5.1953 -6.9258,-19.047 8.6562,-20.777 -10.391,-12.121 3.4648,-19.047 17.316,-15.586 z"
           id="path49"
           style="fill:#f8f8f8;fill-opacity:1;stroke:none;stroke-opacity:1" /><path
           d="m 725.54,435.5 c -10.391,8.6562 -22.512,-12.121 -10.391,-27.707 6.9258,-10.391 17.316,-12.121 19.047,-3.4648 10.391,-8.6562 20.777,-6.9258 19.047,5.1953 10.391,-3.4648 19.047,1.7305 13.852,10.391 6.9258,3.4648 12.121,8.6562 10.391,13.852 -1.7305,5.1953 -8.6562,6.9258 -15.586,5.1953 0,10.391 -10.391,12.121 -19.047,3.4648 -5.1953,12.121 -15.586,5.1953 -17.316,-6.9258 z"
           id="path50"
           style="fill:#f8f8f8;fill-opacity:1;stroke:none;stroke-opacity:1" /><path
           d="m 692.64,503.03 c -17.316,0 -12.121,-32.902 13.852,-39.828 15.586,-5.1953 27.707,1.7305 24.242,13.852 17.316,-1.7305 25.973,10.391 13.852,20.777 15.586,5.1953 19.047,19.047 6.9258,24.242 5.1953,8.6562 5.1953,19.047 0,22.512 -6.9258,3.4648 -15.586,0 -22.512,-8.6562 -6.9258,13.852 -20.777,5.1953 -22.512,-12.121 -15.586,8.6562 -20.777,-8.6562 -13.852,-20.777 z"
           id="path51"
           style="fill:#f8f8f8;fill-opacity:1;stroke:none;stroke-opacity:1" /><path
           d="m 782.68,459.74 c -8.6562,-8.6562 12.121,-20.777 27.707,-10.391 10.391,5.1953 13.852,15.586 5.1953,19.047 10.391,8.6562 8.6562,19.047 -3.4648,17.316 3.4648,12.121 -1.7305,20.777 -10.391,17.316 -1.7305,6.9258 -6.9258,12.121 -12.121,10.391 -5.1952,-1.73 -6.9258,-8.6562 -6.9258,-15.586 -10.391,1.7305 -12.121,-10.391 -3.4648,-19.047 -12.121,-3.4648 -6.9258,-15.586 3.4648,-19.047 z"
           id="path52"
           style="fill:#f8f8f8;fill-opacity:1;stroke:none;stroke-opacity:1" /><path
           d="m 924.68,530.73 c 13.852,-5.1953 19.047,22.512 1.7305,34.633 -12.121,8.6562 -24.242,6.9258 -24.242,-3.4648 -13.852,6.9258 -24.242,0 -17.316,-12.121 -13.852,-1.7305 -20.777,-10.391 -12.121,-19.047 -6.9258,-5.1953 -10.391,-13.852 -6.9258,-17.316 3.4648,-5.1953 12.121,-5.1953 20.777,0 1.7305,-12.121 15.586,-10.391 20.777,3.4648 10.391,-12.121 19.047,0 17.316,13.852 z"
           id="path53"
           style="fill:#f8f8f8;fill-opacity:1;stroke:none;stroke-opacity:1" /><path
           d="m 1028.6,613.85 c -17.316,1.7305 -12.121,-31.168 12.121,-38.094 15.586,-5.1953 29.438,1.7305 24.242,12.121 19.047,-1.7305 27.707,12.121 15.586,20.777 15.586,6.9258 19.047,20.777 6.9258,25.973 5.1953,8.6562 5.1953,19.047 -1.7305,22.512 -5.1953,3.4648 -13.852,0 -20.777,-8.6562 -8.6562,12.121 -22.512,5.1953 -22.512,-12.121 -15.586,8.6562 -20.777,-8.6562 -13.852,-22.512 z"
           id="path54"
           style="fill:#f8f8f8;fill-opacity:1;stroke:none;stroke-opacity:1" /><path
           d="m 971.43,625.97 c -8.6562,-8.6562 10.391,-22.512 27.707,-12.121 8.6562,5.1953 12.121,15.586 3.4648,19.047 10.391,8.6562 8.6562,20.777 -3.4648,19.047 5.1953,10.391 -1.7305,19.047 -10.391,15.586 -1.7305,6.9258 -6.9258,12.121 -12.121,10.391 -5.1953,0 -6.9258,-6.9258 -5.1953,-15.586 -12.121,1.7305 -13.852,-8.6562 -5.1953,-19.047 -12.121,-3.4648 -5.1953,-13.852 5.1953,-17.316 z"
           id="path55"
           style="fill:#f8f8f8;fill-opacity:1;stroke:none;stroke-opacity:1" /><path
           d="m 282.25,142.86 c 13.852,-3.4648 17.316,24.242 -1.7305,36.363 -12.121,6.9258 -24.242,5.1953 -24.242,-5.1953 -13.852,5.1953 -24.242,-3.4648 -17.316,-13.852 -13.852,-1.7305 -19.047,-13.852 -10.391,-19.047 -6.9258,-6.9258 -8.6562,-15.586 -5.1953,-20.777 3.4648,-3.4648 12.121,-3.4648 20.777,3.4648 3.4648,-13.852 17.316,-10.391 20.777,5.1953 12.121,-10.391 19.047,1.7305 17.316,13.852 z"
           id="path56"
           style="fill:#f8f8f8;fill-opacity:1;stroke:none;stroke-opacity:1" /><path
           d="m 60.605,388.75 c 13.852,-3.4648 17.316,24.242 -1.7305,36.363 -12.121,6.9258 -24.242,5.1953 -24.242,-5.1953 -13.852,5.1953 -24.242,-3.4648 -17.316,-13.852 -13.852,-1.7305 -19.047,-12.121 -10.391,-19.047 -6.9258,-6.9258 -8.6562,-15.586 -5.1953,-19.047 3.4648,-5.1953 12.121,-3.4648 20.777,1.7305 3.4648,-12.121 17.316,-10.391 20.777,5.1953 12.121,-10.391 20.777,1.7305 17.316,13.852 z"
           id="path57"
           style="fill:#f8f8f8;fill-opacity:1;stroke:none;stroke-opacity:1" /><path
           d="m 64.07,523.81 c 1.7305,-15.586 29.438,-5.1953 31.168,17.316 1.7305,13.852 -6.9258,24.242 -15.586,19.047 -1.7305,15.586 -13.852,20.777 -20.777,8.6562 -6.9258,12.121 -19.047,12.121 -20.777,1.7305 -10.391,3.4648 -17.316,1.7305 -20.777,-5.1953 -1.7305,-5.1953 3.4648,-12.121 12.121,-15.586 -10.391,-10.391 -1.7305,-20.777 13.852,-17.316 -5.1953,-15.586 10.391,-17.316 20.777,-8.6562 z"
           id="path58"
           style="fill:#f8f8f8;fill-opacity:1;stroke:none;stroke-opacity:1" /><path
           d="m 199.13,219.05 c 13.852,6.9258 -5.1953,27.707 -27.707,22.512 -12.121,-3.4648 -19.047,-13.852 -12.121,-20.777 -13.852,-6.9258 -15.586,-20.777 -1.7305,-22.512 -8.6562,-10.391 -5.1953,-22.512 6.9258,-20.777 0,-8.6562 5.1953,-17.316 10.391,-17.316 6.9258,0 12.121,6.9258 12.121,15.586 12.121,-5.1953 19.047,6.9258 12.121,20.777 15.586,0 10.391,15.586 0,22.512 z"
           id="path59"
           style="fill:#f8f8f8;fill-opacity:1;stroke:none;stroke-opacity:1" /><path
           d="m 79.652,302.16 c -8.6562,10.391 13.852,20.777 27.707,8.6562 10.391,-6.9258 10.391,-19.047 3.4648,-20.777 8.6562,-8.6562 3.4648,-20.777 -6.9258,-17.316 1.7305,-12.121 -3.4648,-19.047 -12.121,-13.852 -3.4648,-6.9258 -8.6562,-12.121 -13.852,-10.391 -5.1953,3.4648 -6.9258,10.391 -3.4648,17.316 -12.121,0 -12.121,10.391 -1.7305,19.047 -12.121,5.1953 -5.1953,15.586 6.9258,17.316 z"
           id="path60"
           style="fill:#f8f8f8;fill-opacity:1;stroke:none;stroke-opacity:1" /><path
           d="m 55.41,350.65 c 6.9258,10.391 22.512,-6.9258 15.586,-24.242 -3.4648,-10.391 -13.852,-15.586 -17.316,-8.6562 -6.9258,-10.391 -19.047,-10.391 -19.047,0 -10.391,-5.1953 -20.777,-1.7305 -17.316,6.9258 -8.6562,1.7305 -13.852,6.9258 -13.852,12.121 0,3.4648 6.9258,8.6562 15.586,8.6562 -5.1953,10.391 5.1953,13.852 17.316,6.9258 1.7305,12.121 13.852,8.6562 19.047,-1.7305 z"
           id="path61"
           style="fill:#f8f8f8;fill-opacity:1;stroke:none;stroke-opacity:1" /><path
           d="m 275.32,639.83 c -5.1953,8.6562 -15.586,15.586 -25.973,13.852 -3.4648,1.7305 -3.4648,3.4648 -8.6562,3.4648 -1.7305,-3.4648 -1.7305,-5.1953 0,-8.6562 -8.6562,-8.6562 -6.9258,-20.777 -1.7305,-29.438 3.4648,3.4648 10.391,6.9258 17.316,12.121 6.9258,3.4648 13.852,6.9258 19.047,8.6562 z m 6.9258,-5.1953 c -3.4648,6.9258 -13.852,1.7305 -25.973,-5.1953 -10.391,-6.9258 -20.777,-12.121 -17.316,-20.777 5.1953,-6.9258 13.852,-6.9258 20.777,-5.1953 8.6562,0 12.121,-5.1953 17.316,-12.121 3.4648,-5.1953 5.1953,-5.1953 6.9258,-6.9258 l 3.4648,3.4648 c -3.4648,1.7305 -5.1953,1.7305 -6.9258,6.9258 -1.7305,5.1953 -5.1953,12.121 -3.4648,17.316 5.1953,6.9258 10.391,12.121 5.1953,22.512 z"
           id="path62"
           style="fill:#f8f8f8;fill-opacity:1;stroke:none;stroke-opacity:1" /><path
           d="m 315.15,641.56 c 3.4648,10.391 13.852,17.316 25.973,15.586 3.4648,1.7305 3.4648,3.4648 8.6562,3.4648 1.7305,-3.4648 1.7305,-5.1953 1.7305,-8.6562 6.9258,-8.6562 5.1953,-22.512 0,-31.168 -3.4648,3.4648 -10.391,6.9258 -17.316,12.121 -8.6562,3.4648 -13.852,6.9258 -19.047,8.6562 z m -10.391,-5.1953 c 5.1953,8.6562 15.586,1.7305 27.707,-5.1953 13.852,-6.9258 24.242,-12.121 19.047,-20.777 -5.1953,-6.9258 -13.852,-8.6562 -20.777,-6.9258 -10.391,1.7305 -13.852,-5.1953 -17.316,-12.121 -3.4648,-5.1953 -5.1953,-6.9258 -8.6562,-8.6562 l -3.4648,5.1953 c 3.4648,0 5.1953,1.7305 6.9258,6.9258 3.4648,5.1953 6.9258,12.121 3.4648,19.047 -5.1953,6.9258 -12.121,12.121 -6.9258,22.512 z"
           id="path63"
           style="fill:#f8f8f8;fill-opacity:1;stroke:none;stroke-opacity:1" /><path
           d="m 70.996,606.93 c -1.7305,10.391 1.7305,24.242 10.391,29.438 1.7305,3.4648 1.7305,5.1953 5.1953,8.6562 3.4648,-3.4648 3.4648,-3.4648 6.9258,-6.9258 10.391,-1.7305 19.047,-12.121 20.777,-22.512 -6.9258,0 -13.852,-1.7305 -22.512,-3.4648 -6.9258,0 -15.586,-1.7305 -20.777,-5.1953 z m -1.7305,-10.391 c -1.7305,10.391 8.6562,12.121 24.242,15.586 13.852,1.7305 24.242,5.1953 25.973,-5.1953 1.7305,-8.6562 -3.4648,-13.852 -10.391,-19.047 -8.6562,-5.1953 -6.9258,-10.391 -5.1953,-19.047 0,-6.9258 0,-8.6562 -1.7305,-12.121 h -5.1953 c 1.7305,3.4648 1.7305,5.1953 0,12.121 -1.7305,5.1953 -3.4648,12.121 -8.6562,15.586 -8.6562,1.7305 -17.316,1.7305 -19.047,12.121 z"
           id="path64"
           style="fill:#f8f8f8;fill-opacity:1;stroke:none;stroke-opacity:1" /><path
           d="m 510.82,549.79 c 5.1953,10.391 15.586,17.316 25.973,15.586 3.4648,1.7305 5.1953,3.4648 8.6562,3.4648 1.7305,-3.4648 1.7305,-5.1953 1.7305,-8.6562 6.9258,-8.6562 6.9258,-22.512 1.7305,-31.168 -5.1953,3.4648 -12.121,6.9258 -19.047,12.121 -6.9258,3.4648 -13.852,6.9258 -19.047,8.6562 z m -8.6562,-5.1953 c 5.1953,8.6562 13.852,1.7305 27.707,-5.1953 12.121,-6.9258 22.512,-12.121 17.316,-20.777 -3.4648,-6.9258 -12.121,-8.6562 -20.777,-6.9258 -8.6562,1.7305 -12.121,-5.1953 -17.316,-12.121 -3.4648,-5.1953 -5.1953,-6.9258 -8.6562,-8.6562 l -3.4648,5.1953 c 3.4648,0 5.1953,1.7305 8.6562,6.9258 1.7305,5.1953 5.1953,12.121 1.7305,19.047 -3.4648,6.9258 -10.391,12.121 -5.1953,22.512 z"
           id="path65"
           style="fill:#f8f8f8;fill-opacity:1;stroke:none;stroke-opacity:1" /><path
           d="m 290.91,395.67 c -3.4648,8.6562 -13.852,15.586 -24.242,13.852 -3.4648,1.7305 -5.1953,3.4648 -8.6562,3.4648 -1.7305,-3.4648 -1.7305,-5.1953 -1.7305,-8.6562 -6.9258,-8.6562 -5.1953,-20.777 0,-27.707 3.4648,3.4648 10.391,6.9258 17.316,10.391 6.9258,3.4648 12.121,6.9258 17.316,8.6562 z m 8.6562,-5.1953 c -5.1953,8.6562 -13.852,1.7305 -25.973,-5.1953 -12.121,-6.9258 -20.777,-12.121 -17.316,-19.047 5.1953,-6.9258 13.852,-8.6562 20.777,-6.9258 8.6562,1.7305 12.121,-3.4648 15.586,-10.391 3.4648,-5.1953 5.1953,-6.9258 8.6562,-8.6562 l 3.4648,3.4648 c -3.4648,1.7305 -5.1953,3.4648 -6.9258,8.6562 -3.4648,5.1953 -6.9258,10.391 -3.4648,15.586 3.4648,6.9258 10.391,12.121 5.1953,22.512 z"
           id="path66"
           style="fill:#f8f8f8;fill-opacity:1;stroke:none;stroke-opacity:1" /><path
           d="m 858.88,676.19 c -1.7305,10.391 0,22.512 10.391,27.707 1.7305,5.1953 1.7305,5.1953 3.4648,8.6562 5.1953,-1.7305 5.1953,-3.4648 8.6562,-6.9258 10.391,-1.7305 17.316,-10.391 19.047,-22.512 -5.1953,1.7305 -12.121,0 -20.777,-1.7305 -8.656,-1.7305 -15.586,-3.4648 -20.777,-5.1953 z m -3.4648,-10.391 c -1.7305,8.6562 10.391,10.391 24.242,13.852 13.852,1.7305 25.973,5.1953 27.707,-3.4648 1.7305,-8.6562 -5.1953,-15.586 -12.121,-19.047 -6.9258,-5.1953 -5.1953,-12.121 -5.1953,-20.777 1.7305,-6.9258 0,-8.6562 0,-12.121 l -5.1953,1.7305 c 1.7305,1.7305 1.7305,3.4648 0,10.391 -1.7305,5.1953 -3.4648,13.852 -8.6562,15.586 -8.6562,3.4648 -17.316,1.7305 -20.777,13.852 z"
           id="path67"
           style="fill:#f8f8f8;fill-opacity:1;stroke:none;stroke-opacity:1" /><path
           d="m 805.2,548.05 c -3.4648,10.391 0,22.512 10.391,27.707 0,5.1953 1.7305,5.1953 3.4648,10.391 3.4648,-3.4648 5.1953,-3.4648 6.9258,-6.9258 12.121,-1.7305 19.047,-12.121 20.777,-22.512 -5.1953,0 -13.852,-1.7305 -20.777,-3.4648 -8.6562,-1.7305 -15.586,-3.4648 -20.777,-5.1953 z m -3.4648,-10.391 c -1.7305,10.391 10.391,12.121 24.242,13.852 13.852,3.4648 25.973,6.9258 27.707,-3.4648 1.7305,-8.6562 -5.1953,-15.586 -12.121,-19.047 -8.6562,-5.1953 -6.9258,-12.121 -5.1953,-20.777 1.7305,-20.777 -1.7305,-13.852 -5.1953,0 -1.7305,5.1953 -3.4648,13.852 -10.391,15.586 -8.6562,3.4648 -17.316,3.4648 -19.047,13.852 z"
           id="path68"
           style="fill:#f8f8f8;fill-opacity:1;stroke:none;stroke-opacity:1" /><path
           d="m 822.51,281.39 c -3.4648,15.586 0,31.168 13.852,39.828 1.7305,5.1953 1.7305,6.9258 5.1953,12.121 6.9258,-3.4648 6.9258,-3.4648 10.391,-8.6562 15.586,-1.7305 25.973,-17.316 27.707,-31.168 -6.9258,0 -17.316,-1.7305 -27.707,-5.1953 -12.121,-1.7305 -22.512,-3.4648 -29.438,-6.9258 z m -5.1953,-13.852 c -1.7305,13.852 13.852,15.586 34.633,19.047 19.047,3.4648 34.633,8.6562 38.094,-5.1953 1.7305,-12.121 -6.9258,-20.777 -15.586,-25.973 -12.121,-6.9258 -10.391,-8.6562 -8.6562,-20.777 3.4648,-24.242 -3.4648,-19.047 -6.9258,-8.6562 -3.4648,8.6562 -5.1953,19.047 -13.852,22.512 -12.121,3.4648 -24.242,3.4648 -27.707,19.047 z"
           id="path69"
           style="fill:#f8f8f8;fill-opacity:1;stroke:none;stroke-opacity:1" /><path
           d="m 590.48,509.96 c -3.4648,8.6562 -12.121,13.852 -20.777,12.121 -3.4648,1.7305 -3.4648,1.7305 -6.9258,3.4648 -1.7305,-3.4648 -1.7305,-5.1953 -1.7305,-8.6562 -5.1953,-6.9258 -5.1953,-17.316 0,-24.242 3.4648,3.4648 8.6562,6.9258 13.852,10.391 6.9258,3.4648 12.121,6.9258 15.586,6.9258 z m 8.6562,-5.1953 c -5.1953,6.9258 -12.121,1.7305 -22.512,-3.4648 -10.391,-5.1953 -19.047,-10.391 -15.586,-17.316 3.4648,-5.1953 10.391,-6.9258 17.316,-5.1953 8.6562,1.7305 10.391,-3.4648 13.852,-8.6562 3.4648,-5.1953 5.1953,-6.9258 6.9258,-6.9258 l 3.4648,3.4648 c -3.4648,0 -3.4648,1.7305 -6.9258,5.1953 -1.7305,5.1953 -5.1953,10.391 -1.7305,15.586 3.4648,5.1953 8.6562,10.391 5.1953,17.316 z"
           id="path70"
           style="fill:#f8f8f8;fill-opacity:1;stroke:none;stroke-opacity:1" /><path
           d="m 683.98,591.34 c 3.4648,10.391 13.852,17.316 25.973,15.586 3.4648,3.4648 3.4648,3.4648 8.6562,5.1953 1.7305,-5.1953 1.7305,-6.9258 1.7305,-10.391 6.9258,-8.6562 5.1953,-20.777 0,-31.168 -3.4648,5.1953 -10.391,8.6562 -17.316,12.121 -8.6562,3.4648 -13.852,8.6562 -19.047,8.6562 z m -10.391,-5.1953 c 5.1953,8.6562 15.586,1.7305 27.707,-5.1953 13.852,-6.9258 24.242,-12.121 19.047,-20.777 -5.1953,-6.9258 -13.852,-8.6562 -20.777,-6.9258 -10.391,1.7305 -13.852,-5.1953 -17.316,-12.121 -3.4648,-5.1953 -5.1953,-6.9258 -8.6562,-6.9258 l -3.4648,3.4648 c 3.4648,0 5.1953,1.7305 6.9258,6.9258 3.4648,5.1953 6.9258,13.852 3.4648,19.047 -5.1953,6.9258 -12.121,12.121 -6.9258,22.512 z"
           id="path71"
           style="fill:#f8f8f8;fill-opacity:1;stroke:none;stroke-opacity:1" /><path
           d="m 921.21,691.77 c 3.4648,10.391 13.852,19.047 24.242,17.316 3.4648,1.7305 5.1953,3.4648 8.6562,5.1953 1.7305,-5.1953 1.7305,-6.9258 1.7305,-10.391 8.6562,-8.6562 8.6562,-20.777 3.4648,-29.438 -3.4648,3.4648 -10.391,5.1953 -19.047,8.6562 -6.9258,5.1953 -13.852,8.6562 -19.047,8.6562 z m -8.6562,-6.9258 c 3.4648,10.391 13.852,3.4648 27.707,-1.7305 12.121,-6.9258 24.242,-10.391 19.047,-20.777 -3.4648,-6.9258 -12.121,-8.6562 -20.777,-6.9258 -8.6562,0 -12.121,-6.9258 -15.586,-13.852 -3.4648,-5.1953 -5.1953,-6.9258 -8.6562,-8.6562 l -3.4648,3.4648 c 3.4648,1.7305 5.1953,3.4648 6.9258,8.6562 1.7305,5.1953 5.1953,12.121 1.7305,17.316 -5.1953,8.6562 -12.121,12.121 -6.9258,22.512 z"
           id="path72"
           style="fill:#f8f8f8;fill-opacity:1;stroke:none;stroke-opacity:1" /><path
           d="m 635.5,458.01 c 38.094,-67.531 48.484,-102.16 38.094,-180.09 -1.7305,-12.121 -15.586,-83.117 3.4648,-81.387 10.391,0 13.852,25.973 15.586,34.633 12.121,67.531 25.973,114.29 6.9258,183.55 -17.316,60.605 -55.41,128.14 -41.559,192.21 3.4648,12.121 22.512,20.777 32.902,22.512 -48.484,79.652 -41.559,202.6 -39.828,292.64 1.7305,48.484 15.586,95.238 15.586,96.969 10.391,-96.969 -1.7305,-15.586 -3.4648,-102.16 -3.4648,-86.582 -15.586,-218.18 41.559,-289.18 17.316,-5.1953 38.094,-13.852 50.215,-19.047 67.531,-27.707 96.969,-25.973 166.23,-31.168 36.363,-1.7305 67.531,-12.121 95.238,-36.363 10.391,-10.391 39.828,-39.828 53.68,-34.633 13.852,3.4648 -10.391,20.777 -13.852,24.242 -39.828,39.828 -50.215,67.531 -109.09,79.652 -29.438,6.9258 -60.605,10.391 -91.773,15.586 -46.754,10.391 -86.582,43.289 -117.75,79.652 -32.902,36.363 -32.902,36.363 -32.902,83.117 0,150.65 -5.1953,128.14 0,280.52 3.4648,72.727 84.848,43.289 83.117,121.21 h -65.801 c -5.1953,0 -5.1953,-27.707 -17.316,-29.438 v 29.438 h -84.848 c -5.1953,-12.121 -5.1953,-19.047 -3.4648,-31.168 13.852,-107.36 15.586,-105.63 -8.6562,-221.64 0,0 19.047,93.508 6.9258,155.84 0,17.316 -13.852,79.652 -15.586,96.969 h -100.43 v -48.484 c -13.852,6.9258 -27.707,19.047 -32.902,48.484 h -64.07 c 10.391,-107.36 95.238,-110.82 95.238,-167.96 v -285.71 c 24.242,13.852 60.605,15.586 70.996,62.336 15.586,69.266 -5.1953,70.996 -13.852,128.14 -12.121,84.848 -5.1953,126.41 -1.7305,211.25 15.586,-76.191 1.7305,-131.6 13.852,-212.99 8.6562,-58.875 27.707,-57.145 12.121,-128.14 -13.852,-62.336 -51.949,-58.875 -83.117,-72.727 -3.4648,-20.777 -12.121,-34.633 -20.777,-57.145 -10.391,-24.242 -31.168,-43.289 -53.68,-51.949 -36.363,-15.586 -60.605,-24.242 -100.43,-34.633 -51.949,-12.121 -84.848,-20.777 -119.48,-65.801 -13.852,-17.316 -22.512,-27.707 -39.828,-43.289 -25.973,-24.242 -20.777,-48.484 13.852,-17.316 45.023,39.828 46.754,64.07 114.29,76.191 27.707,5.1953 67.531,20.777 95.238,24.242 19.047,1.7305 53.68,6.9258 58.875,-19.047 1.7305,-8.6562 1.7305,-29.438 1.7305,-36.363 0,-62.336 8.6562,-58.875 -39.828,-100.43 -24.242,-20.777 -36.363,-45.023 -48.484,-74.457 -12.121,-25.973 1.7305,-34.633 17.316,-12.121 27.707,39.828 19.047,45.023 62.336,76.191 50.215,36.363 43.289,50.215 48.484,105.63 1.7305,29.438 8.6562,69.266 25.973,95.238 6.9258,10.391 13.852,19.047 24.242,24.242 12.121,8.6562 22.512,3.4648 27.707,-1.7305 -3.4648,17.316 -17.316,38.094 -13.852,72.727 1.7305,10.391 25.973,55.41 32.902,81.387 0,-48.484 -24.242,-55.41 -25.973,-83.117 -3.4648,-17.316 8.6562,-60.605 12.121,-72.727 3.4648,-10.391 3.4648,-17.316 6.9258,-29.438 15.586,-45.023 38.094,-83.117 60.605,-122.95 z"
           id="path73"
           style="fill:#f8f8f8;fill-opacity:1;stroke:none;stroke-opacity:1" /></g></g></g></svg>
