<?xml version="1.0" encoding="UTF-8" standalone="no"?>
<svg
   width="50cm"
   height="50cm"
   version="1.1"
   viewBox="0 0 1417.3228 1417.3229"
   id="svg1"
   sodipodi:docname="Krigsvold-Kamon-transparent-light.svg"
   inkscape:version="1.3.2 (091e20e, 2023-11-25)"
   xmlns:inkscape="http://www.inkscape.org/namespaces/inkscape"
   xmlns:sodipodi="http://sodipodi.sourceforge.net/DTD/sodipodi-0.dtd"
   xmlns="http://www.w3.org/2000/svg"
   xmlns:svg="http://www.w3.org/2000/svg">
  <defs
     id="defs1" />
  <sodipodi:namedview
     id="namedview1"
     pagecolor="#ffffff"
     bordercolor="#000000"
     borderopacity="0.25"
     inkscape:showpageshadow="2"
     inkscape:pageopacity="0.0"
     inkscape:pagecheckerboard="0"
     inkscape:deskcolor="#d1d1d1"
     inkscape:document-units="pt"
     inkscape:zoom="0.24155236"
     inkscape:cx="877.6565"
     inkscape:cy="1053.6018"
     inkscape:window-width="1920"
     inkscape:window-height="1052"
     inkscape:window-x="1470"
     inkscape:window-y="28"
     inkscape:window-maximized="0"
     inkscape:current-layer="svg1" />
  <g
     id="g4"
     transform="matrix(1.2518406,0,0,1.2518406,-46.197213,-64.519152)"
     style="fill:#f8f8f8;fill-opacity:1">
    <path
       d="m 757.02,185.66 v 84.035 H 654.61 V 185.66 H 552.18 v 84.035 H 449.77 V 185.66 H 339.5 v 223.2 h 527.79 v -223.2 z"
       id="path1"
       style="fill:#f8f8f8;fill-opacity:1" />
    <path
       d="m 399.5,1049.5 h 137.86 v -97.379 c 0,-17.402 14.109,-31.512 31.512,-31.512 h 68.27 c 17.402,0 31.512,14.109 31.512,31.512 v 97.379 h 137.86 V 429.82 h -407 z"
       id="path2-5"
       style="fill:#f8f8f8;fill-opacity:1" />
    <path
       d="m 279.83,491.38 v 76.023 H 187.197 V 491.38 H 93.513 v 558.23 h 283.69 V 491.38 Z"
       id="path3"
       style="fill:#f8f8f8;fill-opacity:1" />
    <path
       d="m 1015.1,491.38 v 76.023 H 922.459 V 491.38 h -93.684 v 558.23 h 283.71 V 491.38 Z"
       id="path4"
       style="fill:#f8f8f8;fill-opacity:1" />
  </g>
</svg>
