<?xml version="1.0" encoding="UTF-8" standalone="no"?>
<!-- Created with Inkscape (http://www.inkscape.org/) -->

<svg
   width="311.29501mm"
   height="18mm"
   viewBox="0 0 311.29501 18"
   version="1.1"
   id="svg1"
   xml:space="preserve"
   inkscape:version="1.3.2 (091e20e, 2023-11-25)"
   sodipodi:docname="Krigsvold-Wordmark-Kamon-Paths.svg"
   xmlns:inkscape="http://www.inkscape.org/namespaces/inkscape"
   xmlns:sodipodi="http://sodipodi.sourceforge.net/DTD/sodipodi-0.dtd"
   xmlns="http://www.w3.org/2000/svg"
   xmlns:svg="http://www.w3.org/2000/svg"><sodipodi:namedview
     id="namedview1"
     pagecolor="#505050"
     bordercolor="#ffffff"
     borderopacity="1"
     inkscape:showpageshadow="0"
     inkscape:pageopacity="0"
     inkscape:pagecheckerboard="1"
     inkscape:deskcolor="#d1d1d1"
     inkscape:document-units="mm"
     inkscape:zoom="0.32001984"
     inkscape:cx="1218.6744"
     inkscape:cy="79.682559"
     inkscape:window-width="1920"
     inkscape:window-height="1052"
     inkscape:window-x="1470"
     inkscape:window-y="28"
     inkscape:window-maximized="0"
     inkscape:current-layer="layer1" /><defs
     id="defs1" /><g
     inkscape:label="Layer 1"
     inkscape:groupmode="layer"
     id="layer1"
     transform="translate(-0.90000057)"><path
       style="font-weight:bold;font-size:25.4px;font-family:'Cormorant SC';-inkscape-font-specification:'Cormorant SC, Bold';fill:#f8f8f8;stroke-width:0.999999;stroke-linecap:round"
       d="m 27.622799,1.320803 q -3.0226,0 -4.3434,3.937 -0.0254,0.0762 -0.1524,0.0762 -0.127,-0.0254 -0.127,-0.1016 0.1016,-1.016 0.2286,-2.6162 0.127,-1.62559998 0.127,-2.43839997 0,-0.127 0.127,-0.127 0.1524,0 0.1524,0.127 0,0.55879999 1.4478,0.55879999 2.1844,0.0762 5.1054,0.0762 1.4986,0 3.175,-0.0508 l 1.7272,-0.0254 q 0.9652,0 1.397,-0.127 0.4572,-0.12699999 0.5842,-0.50799999 0.0254,-0.1015999973157 0.1524,-0.1015999973157 0.1524,0 0.1524,0.1015999973157 -0.0762,0.76199999 -0.1778,2.43839997 -0.0762,1.6764 -0.0762,2.6924 0,0.0762 -0.127,0.0762 -0.127,0 -0.1524,-0.0762 -0.381,-1.9558 -1.4224,-2.921 -1.0414,-0.9906 -2.5654,-0.9906 -0.7366,0 -0.9906,0.3302 -0.2286,0.3048 -0.2286,1.1938 v 11.7094 q 0,0.7874 0.1524,1.143 0.1524,0.3556 0.5842,0.4826 0.4318,0.127 1.3716,0.127 0.0762,0 0.0762,0.1524 0,0.1524 -0.0762,0.1524 -0.9144,0 -1.4478,-0.0254 l -2.1082,-0.0254 -2.0574,0.0254 q -0.5334,0.0254 -1.4732,0.0254 -0.0762,0 -0.0762,-0.1524 0,-0.1524 0.0762,-0.1524 0.9144,0 1.3462,-0.127 0.4572,-0.127 0.6096,-0.4826 0.1778,-0.381 0.1778,-1.143 v -11.7602 q 0,-0.8636 -0.2286,-1.1684 -0.2286,-0.3048 -0.9398,-0.3048 z m 20.878794,5.5117999 q 0,-0.762 -0.127,-1.1176 -0.127,-0.3809999 -0.4572,-0.5333999 -0.3302,-0.1524 -1.0414,-0.1524 -0.0762,0 -0.0762,-0.1524 0,-0.1524 0.0762,-0.1524 l 1.2192,0.0254 q 1.016,0.0508 1.7018,0.0508 0.6096,0 1.6764,-0.0508 l 1.2192,-0.0254 q 0.0762,0 0.0762,0.1524 0,0.1524 -0.0762,0.1524 -0.7112,0 -1.0668,0.1524 -0.3302,0.127 -0.4572,0.4825999 -0.127,0.3556 -0.127,1.1176 v 7.7724001 q 0,0.762 0.127,1.143 0.127,0.3556 0.4572,0.4826 0.3302,0.127 1.0668,0.127 0.0762,0 0.0762,0.1524 0,0.1524 -0.0762,0.1524 -0.7874,0 -1.2192,-0.0254 l -1.6764,-0.0254 -1.7018,0.0254 q -0.4318,0.0254 -1.2192,0.0254 -0.0762,0 -0.0762,-0.1524 0,-0.1524 0.0762,-0.1524 0.7112,0 1.0414,-0.127 0.3302,-0.127 0.4572,-0.4826 0.127,-0.381 0.127,-1.143 z m -7.442199,3.4544001 h 8.610599 v 0.6604 h -8.610599 z m -1.1938,-3.5052001 q 0,-0.762 -0.127,-1.1176 -0.127,-0.3555999 -0.4826,-0.4825999 -0.3302,-0.1524 -1.016,-0.1524 -0.0762,0 -0.0762,-0.1524 0,-0.1524 0.0762,-0.1524 l 1.2192,0.0254 q 1.016,0.0508 1.651,0.0508 0.6858,0 1.7018,-0.0508 l 1.2192,-0.0254 q 0.0508,0 0.0508,0.1524 0,0.1524 -0.0508,0.1524 -1.016,0 -1.3462,0.3556 -0.3048,0.3555999 -0.3048,1.4477999 v 7.7216001 q 0,0.762 0.127,1.1176 0.127,0.3556 0.4572,0.508 0.3556,0.127 1.0668,0.127 0.0508,0 0.0508,0.1524 0,0.1524 -0.0508,0.1524 -0.7874,0 -1.2192,-0.0254 l -1.7018,-0.0254 -1.651,0.0254 q -0.4572,0.0254 -1.27,0.0254 -0.0508,0 -0.0508,-0.1524 0,-0.1524 0.0508,-0.1524 0.7366,0 1.0668,-0.127 0.3556,-0.127 0.4826,-0.4826 0.127,-0.381 0.127,-1.143 z m 14.3764,9.8298001 q -0.0508,0 -0.0508,-0.1524 0,-0.1524 0.0508,-0.1524 0.7366,0 1.0668,-0.127 0.3302,-0.127 0.4572,-0.4826 0.127,-0.381 0.127,-1.143 V 6.7818029 q 0,-0.762 -0.127,-1.1176 -0.127,-0.3555999 -0.4826,-0.4825999 -0.3302,-0.1524 -1.0414,-0.1524 -0.0508,0 -0.0508,-0.1524 0,-0.1524 0.0508,-0.1524 h 9.0932 q 0.254,0 0.254,0.2032 l 0.0254,1.5747999 q 0.0254,0.4826 0.0254,1.2192 0,0.0762 -0.1524,0.0762 -0.127,0 -0.1524,-0.0762 -0.4826,-1.1176 -1.4732,-1.8796 -0.9906,-0.7873999 -2.0066,-0.7873999 h -0.1778 q -0.5588,0 -0.8382,0.1524 -0.254,0.127 -0.3556,0.4825999 -0.0762,0.3556 -0.0762,1.1176 v 7.6454001 q 0,0.762 0.0762,1.1176 0.1016,0.3556 0.3556,0.508 0.2794,0.127 0.8382,0.127 h 0.2794 q 1.1938,0 2.3622,-0.8382 1.1684,-0.8636 1.7272,-2.1336 0.0508,-0.0762 0.1778,-0.0762 0.127,0 0.127,0.0762 -0.1778,1.8288 -0.1778,2.9972 0,0.2032 -0.0762,0.3048 -0.0762,0.0762 -0.3048,0.0762 z m 8.0518,-5.4356 q -0.127,0 -1.2446,-0.1524 -1.0922,-0.1524 -3.7592,-0.1524 v -0.635 q 2.667,0 3.7592,-0.127 1.1176,-0.1524001 1.2446,-0.1524001 0.1778,0 0.1778,0.5588001 0,0.254 -0.0508,0.4572 -0.0508,0.2032 -0.127,0.2032 z M 81.902592,0.45720303 q 1.1176,0 2.3368,0.20319999 1.2192,0.1778 1.905,0.48259998 0.2286,0.0762 0.2794,0.2032 0.0762,0.1016 0.127,0.381 l 0.3048,3.5306 q 0,0.0762 -0.127,0.1016 -0.127,0.0254 -0.1524,-0.0762 -0.8636,-2.0066 -2.3114,-3.0988 -1.4478,-1.0922 -3.3528,-1.0922 -2.5146,0 -3.8862,1.8542 -1.3716,1.8542 -1.3716,4.9783999 0,2.3368001 0.7366,4.2672001 0.762,1.9304 2.1082,3.0734 1.3716,1.1176 3.0988,1.1176 1.6256,0 2.8956,-1.0668 1.2954,-1.0922 2.3114,-3.302 0.0254,-0.1016 0.1524,-0.0762 0.1524,0.0254 0.1524,0.1016 l -0.381,3.4544 q -0.0508,0.3048 -0.127,0.4064 -0.0508,0.0762 -0.2794,0.1778 -2.2606,0.8382 -4.6482,0.8382 -3.0988,0 -5.1816,-1.2192 -2.0828,-1.2446 -3.0734,-3.1242 -0.9652,-1.905 -0.9652,-3.9624001 0,-2.413 1.2954,-4.2671999 1.3208,-1.8542 3.4798,-2.8702 2.1844,-1.01599997 4.6736,-1.01599997 z M 95.186803,16.916403 q -1.8034,0 -3.2258,-0.8382 -1.4224,-0.8636 -2.2098,-2.286 -0.7874,-1.4478 -0.7874,-3.1242 0,-1.9304001 0.9906,-3.3528001 1.016,-1.4224 2.5654,-2.1589999 1.5748,-0.7366 3.2258,-0.7366 1.8034,0 3.175,0.889 1.396997,0.8635999 2.158997,2.2859999 0.762,1.397 0.762,2.9464001 0,1.7018 -0.889,3.175 -0.889,1.4478 -2.412997,2.3368 -1.524,0.8636 -3.3528,0.8636 z m 0.5842,-0.5842 q 1.4224,0 2.286,-1.397 0.889,-1.397 0.889,-3.8608 0,-1.6764001 -0.508,-3.0480001 -0.508,-1.3716 -1.4478,-2.159 -0.9144,-0.8127999 -2.1336,-0.8127999 -1.4732,0 -2.2352,1.2191999 -0.762,1.2192 -0.762,3.6068 0,1.8034001 0.508,3.3020001 0.5334,1.4732 1.4224,2.3114 0.889,0.8382 1.9812,0.8382 z M 114.33839,7.6708029 q 0,-1.3462 -0.5334,-1.9812 -0.508,-0.6603999 -1.6256,-0.6603999 -0.0762,0 -0.0762,-0.1524 0,-0.1524 0.0762,-0.1524 l 1.0668,0.0254 q 0.8636,0.0508 1.397,0.0508 0.4064,0 1.2192,-0.0508 l 1.0414,-0.0254 q 0.0508,0 0.0508,0.1524 0,0.1524 -0.0508,0.1524 -1.016,0 -1.4732,0.6349999 -0.4572,0.635 -0.4572,2.0066 v 4.2672001 q 0,2.3622 -1.2954,3.683 -1.2954,1.3208 -3.5052,1.3208 -1.4224,0 -2.6416,-0.5588 -1.1938,-0.5842 -1.9304,-1.651 -0.7112,-1.0668 -0.7112,-2.54 V 6.7818029 q 0,-0.762 -0.127,-1.1176 -0.1016,-0.3555999 -0.4572,-0.4825999 -0.3302,-0.1524 -1.0414,-0.1524 -0.0762,0 -0.0762,-0.1524 0,-0.1524 0.0762,-0.1524 l 1.2192,0.0254 q 1.016,0.0508 1.6256,0.0508 0.6858,0 1.7018,-0.0508 l 1.2192,-0.0254 q 0.0508,0 0.0508,0.1524 0,0.1524 -0.0508,0.1524 -0.7112,0 -1.0668,0.1524 -0.3302,0.1524 -0.4572,0.5333999 -0.127,0.3556 -0.127,1.1176 v 4.6990001 q 0,2.2606 0.9652,3.3274 0.9906,1.0414 2.5654,1.0414 1.5748,0 2.4892,-1.016 0.9398,-1.016 0.9398,-2.8956 z m 5.08002,-2.3875999 0.4826,0.0762 v 8.0264 q 0,1.4986 0.4572,2.2098 0.4826,0.7112 1.4732,0.7112 0.0762,0 0.0762,0.1524 0,0.1524 -0.0762,0.1524 -0.6096,0 -0.9398,-0.0254 l -1.2192,-0.0254 -1.2192,0.0254 q -0.3556,0.0254 -1.016,0.0254 -0.0508,0 -0.0508,-0.1524 0,-0.1524 0.0508,-0.1524 1.016,0 1.4986,-0.7112 0.4826,-0.7112 0.4826,-2.2098 z m 9.7028,11.6078 q 0,0.0508 -0.127,0.0762 -0.127,0.0254 -0.1778,-0.0254 l -8.9916,-10.1346001 q -0.8636,-0.9652 -1.4732,-1.3715999 -0.5842,-0.4064 -1.143,-0.4064 -0.0508,0 -0.0508,-0.1524 0,-0.1524 0.0508,-0.1524 l 1.4224,0.0254 q 0.2032,0 0.5588,0 0.3556,-0.0254 1.8034,-0.0254 0.2032,0 0.3302,0.127 0.1524,0.127 0.4572,0.4826 0.2032,0.3047999 0.5588,0.7111999 l 6.5024,7.2644001 z m 0,0 -0.508,-0.7874 V 7.9756029 q 0,-1.524 -0.4572,-2.2352 -0.4572,-0.7111999 -1.4732,-0.7111999 -0.0508,0 -0.0508,-0.1524 0,-0.1524 0.0508,-0.1524 l 0.9652,0.0254 q 0.762,0.0508 1.1938,0.0508 0.4318,0 1.2446,-0.0508 l 1.016,-0.0254 q 0.0762,0 0.0762,0.1524 0,0.1524 -0.0762,0.1524 -1.016,0 -1.4986,0.7111999 -0.4826,0.7112 -0.4826,2.2352 z m 6.37538,-11.6586 q -0.9652,0 -1.8542,0.8127999 -0.8636,0.8128 -1.3716,2.2098 -0.0254,0.0762 -0.1524,0.0762 -0.127,0 -0.127,-0.0762 0.1016,-0.8128 0.2286,-2.1082 0.127,-1.3207999 0.127,-1.9811999 0,-0.127 0.127,-0.127 0.1524,0 0.1524,0.127 0,0.3302 0.381,0.4318 0.381,0.0762 0.9652,0.0762 2.1844,0.0508 3.8354,0.0508 l 2.2098,-0.0254 q 0.4318,-0.0254 1.1684,-0.0254 0.9906,0 1.4732,-0.1016 0.508,-0.127 0.635,-0.508 0.0254,-0.0762 0.1524,-0.0762 0.1524,0 0.1524,0.0762 l -0.0762,1.27 q -0.1524,2.2351999 -0.1524,2.9209999 0,0.0762 -0.1524,0.0762 -0.1524,0 -0.1524,-0.0762 -0.127,-0.7874 -0.5842,-1.4732 -0.4572,-0.7112 -1.0922,-1.1176 -0.6096,-0.4317999 -1.2446,-0.4317999 -0.6096,0 -0.8128,0.3301999 -0.2032,0.3048 -0.2032,1.2192 v 7.7724001 q 0,0.762 0.127,1.143 0.1524,0.3556 0.5334,0.4826 0.381,0.127 1.2192,0.127 0.0762,0 0.0762,0.1524 0,0.1524 -0.0762,0.1524 -0.8382,0 -1.3208,-0.0254 l -1.905,-0.0254 -1.8542,0.0254 q -0.4826,0.0254 -1.3716,0.0254 -0.0508,0 -0.0508,-0.1524 0,-0.1524 0.0508,-0.1524 0.8636,0 1.2446,-0.127 0.4064,-0.127 0.5334,-0.4826 0.1524,-0.381 0.1524,-1.143 V 6.7310029 q 0,-0.9398 -0.1778,-1.2192 -0.1778,-0.2793999 -0.8128,-0.2793999 z m 21.5392,11.684 q -1.8034,0 -3.2258,-0.8382 -1.4224,-0.8636 -2.2098,-2.286 -0.7874,-1.4478 -0.7874,-3.1242 0,-1.9304001 0.9906,-3.3528001 1.016,-1.4224 2.5654,-2.1589999 1.5748,-0.7366 3.2258,-0.7366 1.8034,0 3.175,0.889 1.397,0.8635999 2.159,2.2859999 0.762,1.397 0.762,2.9464001 0,1.7018 -0.889,3.175 -0.889,1.4478 -2.413,2.3368 -1.524,0.8636 -3.3528,0.8636 z m 0.5842,-0.5842 q 1.4224,0 2.286,-1.397 0.889,-1.397 0.889,-3.8608 0,-1.6764001 -0.508,-3.0480001 -0.508,-1.3716 -1.4478,-2.159 -0.9144,-0.8127999 -2.1336,-0.8127999 -1.4732,0 -2.2352,1.2191999 -0.762,1.2192 -0.762,3.6068 0,1.8034001 0.508,3.3020001 0.5334,1.4732 1.4224,2.3114 0.889,0.8382 1.9812,0.8382 z m 7.59459,0.2794 q -0.0508,0 -0.0508,-0.1524 0,-0.1524 0.0508,-0.1524 0.7366,0 1.0668,-0.127 0.3302,-0.127 0.4572,-0.4826 0.127,-0.381 0.127,-1.143 V 6.7818029 q 0,-0.762 -0.127,-1.1176 -0.127,-0.3555999 -0.4826,-0.4825999 -0.3302,-0.1524 -1.0414,-0.1524 -0.0508,0 -0.0508,-0.1524 0,-0.1524 0.0508,-0.1524 h 9.0932 q 0.254,0 0.254,0.2032 l 0.0254,1.5747999 q 0.0254,0.4826 0.0254,1.2192 0,0.0762 -0.1524,0.0762 -0.127,0 -0.1524,-0.0762 -0.5842,-1.3716 -1.4224,-2.0066 -0.8382,-0.6603999 -2.0574,-0.6603999 h -0.1778 q -0.5588,0 -0.8382,0.1524 -0.254,0.127 -0.3556,0.4825999 -0.0762,0.3556 -0.0762,1.1176 v 7.6454001 q 0,0.7874 0.1524,1.1684 0.1778,0.381 0.635,0.5334 0.4826,0.1524 1.4732,0.1524 0.0762,0 0.0762,0.1524 0,0.1524 -0.0762,0.1524 -0.9906,0 -1.5494,-0.0254 l -1.9558,-0.0254 -1.7018,0.0254 q -0.4318,0.0254 -1.2192,0.0254 z m 7.9248,-5.08 q -0.1524,0 -1.27,-0.1778 -1.0922,-0.1778 -3.7592,-0.1778 v -0.6604 q 2.667,0 3.7592,-0.1016 1.1176,-0.1016 1.27,-0.1016 0.0762,0 0.127,0.1778 0.0508,0.1524 0.0508,0.381 0,0.2286 -0.0508,0.4572 -0.0508,0.2032 -0.127,0.2032 z m 10.56636,-8.7376 q 0,-0.762 -0.1524,-1.1176 -0.127,-0.3556 -0.508,-0.4826 -0.3556,-0.1524 -1.143,-0.1524 -0.0762,0 -0.0762,-0.15239998 0,-0.1524 0.0762,-0.1524 l 1.3462,0.0254 q 1.1684,0.0508 1.8542,0.0508 0.762,0 1.9304,-0.0508 l 1.2954,-0.0254 q 0.0762,0 0.0762,0.1524 0,0.15239998 -0.0762,0.15239998 -0.7874,0 -1.1684,0.1524 -0.3556,0.1524 -0.508,0.5334 -0.127,0.3556 -0.127,1.1176 v 11.7094 q 0,0.7874 0.127,1.143 0.127,0.3556 0.4826,0.4826 0.381,0.127 1.1938,0.127 0.1016,0 0.1016,0.1524 0,0.1524 -0.1016,0.1524 -0.8382,0 -1.3208,-0.0254 l -1.905,-0.0254 -1.8796,0.0254 q -0.508,0.0254 -1.3716,0.0254 -0.0508,0 -0.0508,-0.1524 0,-0.1524 0.0508,-0.1524 0.8128,0 1.1938,-0.127 0.381,-0.127 0.508,-0.4826 0.1524,-0.381 0.1524,-1.143 z m 3.2258,5.4355999 2.032,-1.9558 3.8862,5.2324001 q 1.651,2.3622 2.4638,3.3528 0.8382,0.9652 1.3462,1.2192 0.508,0.2286 1.2954,0.2286 0.0762,0 0.0762,0.1524 0,0.1524 -0.0762,0.1524 h -2.8448 q -0.4064,0 -0.6858,0.0254 -0.2794,0.0254 -0.4572,0.0254 -0.4064,0 -0.7112,-0.1778 -0.2794,-0.2032 -0.7112,-0.7112 -0.4064,-0.508 -1.4732,-1.9558 -0.127,-0.1778 -0.3048,-0.381 -0.1524,-0.2286 -0.3556,-0.508 z m 4.3688,-4.8767999 q 0.7366,-0.7366 0.7366,-1.3462 0,-0.4572 -0.4064,-0.7112 -0.4064,-0.254 -1.143,-0.254 -0.0762,0 -0.0762,-0.15239998 0,-0.1524 0.0762,-0.1524 l 1.1938,0.0254 q 1.1176,0.0508 2.0828,0.0508 1.0414,0 2.159,-0.0508 l 1.143,-0.0254 q 0.0762,0 0.0762,0.1524 0,0.15239998 -0.0762,0.15239998 -1.1684,0 -2.5654,0.6858 -1.397,0.6604 -2.54,1.778 l -6.5278,6.6294 -0.6858,-0.0762 z m 13.03023,12.954 q 0.0508,0 0.0508,0.1524 0,0.1524 -0.0508,0.1524 -0.762,0 -1.1938,-0.0254 l -1.7272,-0.0254 -1.651,0.0254 q -0.4572,0.0254 -1.27,0.0254 -0.0508,0 -0.0508,-0.1524 0,-0.1524 0.0508,-0.1524 0.7112,0 1.0414,-0.127 0.3302,-0.127 0.4572,-0.4826 0.127,-0.381 0.127,-1.143 V 6.7818029 q 0,-0.762 -0.127,-1.1176 -0.1016,-0.3555999 -0.4318,-0.4825999 -0.3302,-0.1524 -1.016,-0.1524 -0.0762,0 -0.0762,-0.1524 0,-0.1524 0.0762,-0.1524 l 1.2446,0.0254 q 1.016,0.0508 1.6256,0.0508 0.4826,0 0.889,-0.0254 0.4064,-0.0254 0.7112,-0.0508 0.8382,-0.0762 1.5748,-0.0762 1.9812,0 3.0226,0.635 1.0414,0.6349999 1.0414,1.8287999 0,1.0414 -0.7366,1.9304 -0.7112,0.889 -1.9812,1.4224001 -1.2446,0.508 -2.7432,0.508 -0.8128,0 -1.397,-0.1016 l -0.0254,-0.5588 q 0.635,0.1778 1.6002,0.1778 1.4478,0 2.0066,-0.6604001 0.5588,-0.6858 0.5588,-2.032 0,-2.6415999 -1.9304,-2.6415999 -0.5334,0 -0.7874,0.127 -0.254,0.127 -0.3556,0.4825999 -0.1016,0.3302 -0.1016,1.0668 v 7.7216001 q 0,0.7874 0.1016,1.143 0.127,0.3556 0.4318,0.4826 0.3302,0.127 1.0414,0.127 z m 7.7724,0 q 0.0762,0 0.0762,0.1524 0,0.1524 -0.0762,0.1524 h -4.1656 q -0.381,0 -1.397,-1.5748 -1.016,-1.6002 -2.3876,-4.318 l 2.032,-0.5334 q 1.397,2.3622 2.3876,3.683 1.016,1.3208 1.8288,1.8796 0.8382,0.5588 1.7018,0.5588 z m 4.64821,-1.7526 q 0,0.762 0.127,1.143 0.127,0.3556 0.4572,0.4826 0.3302,0.127 1.0668,0.127 0.0508,0 0.0508,0.1524 0,0.1524 -0.0508,0.1524 -0.7874,0 -1.2192,-0.0254 l -1.7272,-0.0254 -1.651,0.0254 q -0.4572,0.0254 -1.27,0.0254 -0.0508,0 -0.0508,-0.1524 0,-0.1524 0.0508,-0.1524 0.7366,0 1.0668,-0.127 0.3556,-0.127 0.4826,-0.4826 0.127,-0.381 0.127,-1.143 V 6.7818029 q 0,-0.762 -0.127,-1.1176 -0.127,-0.3555999 -0.4826,-0.4825999 -0.3302,-0.1524 -1.0668,-0.1524 -0.0508,0 -0.0508,-0.1524 0,-0.1524 0.0508,-0.1524 l 1.27,0.0254 q 1.016,0.0508 1.651,0.0508 0.6858,0 1.7526,-0.0508 l 1.1938,-0.0254 q 0.0508,0 0.0508,0.1524 0,0.1524 -0.0508,0.1524 -0.7112,0 -1.0668,0.1524 -0.3302,0.1524 -0.4572,0.5333999 -0.127,0.3556 -0.127,1.1176 z m 9.9568,2.3622 q -2.032,0 -3.556,-0.8382 -1.4986,-0.8636 -2.286,-2.2606 -0.7874,-1.397 -0.7874,-2.9464 0,-1.9812001 0.889,-3.4290001 0.9144,-1.4732 2.5654,-2.2351999 1.651,-0.7874 3.8862,-0.7874 1.1176,0 2.1336,0.2032 1.0414,0.2032 1.7272,0.5842 0.1778,0.0762 0.2032,0.1778 0.0508,0.1016 0.0762,0.3809999 l 0.127,2.3876 q 0,0.0762 -0.1524,0.1016 -0.127,0 -0.1524,-0.0762 -1.9558,-3.2003999 -4.5466,-3.2003999 -1.8034,0 -2.8448,1.4477999 -1.016,1.4478 -1.016,4.1148001 0,2.5908 1.1684,4.191 1.1684,1.6002 3.175,1.6002 1.016,0 1.4732,-0.2032 0.4826,-0.2286 0.635,-0.8128 0.1778,-0.6096 0.1778,-1.905 0,-0.6604 -0.1016,-0.9144 -0.1016,-0.2794 -0.4318,-0.3556 -0.3302,-0.1016 -1.143,-0.1016 -0.1524,0 -0.1524,-0.2032 0,-0.0762 0.0254,-0.127 0.0508,-0.0762 0.1016,-0.0762 1.3208,0.1016 2.667,0.1016 0.6096,0 2.032,-0.0508 0.0508,0 0.0762,0.0762 0.0508,0.0508 0.0508,0.1016 0,0.1778 -0.127,0.1778 -0.381,-0.0254 -0.5334,0.0762 -0.1524,0.1016 -0.2032,0.4318 -0.0508,0.3048 -0.0508,1.1176 0,1.143 0.0508,1.6002 0.0762,0.4572 0.0762,0.635 0,0.1524 -0.0508,0.2032 -0.0508,0.0254 -0.254,0.1016 -1.7018,0.7112 -4.9276,0.7112 z m 19.71041,-12.192 q 0.0508,0 0.0508,0.1524 0,0.1524 -0.0508,0.1524 -0.7366,0 -1.3462,0.6095999 -0.6096,0.6096 -1.016,1.6764 l -3.5814,9.2710001 q -0.0254,0.1016 -0.2794,0.1016 -0.254,0 -0.2794,-0.1016 l -4.699,-9.7536001 q -0.508,-1.0668 -0.889,-1.4223999 -0.381,-0.381 -1.0414,-0.381 -0.0762,0 -0.0762,-0.1524 0,-0.1524 0.0762,-0.1524 l 1.1176,0.0254 q 0.9652,0.0508 1.8542,0.0508 0.7112,0 1.6764,-0.0508 l 1.1176,-0.0254 q 0.0508,0 0.0508,0.1524 0,0.1524 -0.0508,0.1524 -1.3208,0 -1.3208,0.7873999 0,0.2794 0.2032,0.762 l 3.3782,7.0866001 -1.3208,2.5908 3.3782,-9.0932001 q 0.2032,-0.5588 0.2032,-0.9652 0,-1.1683999 -1.5748,-1.1683999 -0.0762,0 -0.0762,-0.1524 0,-0.1524 0.0762,-0.1524 l 0.889,0.0254 q 0.8128,0.0508 1.6002,0.0508 0.4318,0 0.9906,-0.0508 z m 6.83261,12.192 q -1.8034,0 -3.2258,-0.8382 -1.4224,-0.8636 -2.2098,-2.286 -0.7874,-1.4478 -0.7874,-3.1242 0,-1.9304001 0.9906,-3.3528001 1.016,-1.4224 2.5654,-2.1589999 1.5748,-0.7366 3.2258,-0.7366 1.8034,0 3.175,0.889 1.397,0.8635999 2.159,2.2859999 0.762,1.397 0.762,2.9464001 0,1.7018 -0.889,3.175 -0.889,1.4478 -2.413,2.3368 -1.524,0.8636 -3.3528,0.8636 z m 0.5842,-0.5842 q 1.4224,0 2.286,-1.397 0.889,-1.397 0.889,-3.8608 0,-1.6764001 -0.508,-3.0480001 -0.508,-1.3716 -1.4478,-2.159 -0.9144,-0.8127999 -2.1336,-0.8127999 -1.4732,0 -2.2352,1.2191999 -0.762,1.2192 -0.762,3.6068 0,1.8034001 0.508,3.3020001 0.5334,1.4732 1.4224,2.3114 0.889,0.8382 1.9812,0.8382 z m 11.63318,-1.8796 q 0,0.6858 0.127,1.016 0.127,0.3302 0.4826,0.4826 0.381,0.127 1.1176,0.127 h 0.2794 q 1.4478,0 2.6416,-0.9398 1.1938,-0.9398 1.7526,-2.54 0.0254,-0.0508 0.1524,-0.0254 0.1524,0 0.1524,0.0508 -0.1778,1.3462 -0.1778,3.6068 0,0.2032 -0.1016,0.3048 -0.0762,0.0762 -0.3048,0.0762 h -10.16 q -0.0508,0 -0.0508,-0.1524 0,-0.1524 0.0508,-0.1524 0.6604,0 0.9652,-0.127 0.3048,-0.127 0.4064,-0.4826 0.127,-0.381 0.127,-1.143 V 6.7818029 q 0,-0.762 -0.127,-1.1176 -0.1016,-0.3555999 -0.4064,-0.4825999 -0.3048,-0.1524 -0.9652,-0.1524 -0.0508,0 -0.0508,-0.1524 0,-0.1524 0.0508,-0.1524 l 1.2446,0.0254 q 1.0668,0.0508 1.651,0.0508 0.6604,0 1.7272,-0.0508 l 1.1684,-0.0254 q 0.0762,0 0.0762,0.1524 0,0.1524 -0.0762,0.1524 -0.762,0 -1.143,0.1524 -0.3556,0.127 -0.4826,0.5079999 -0.127,0.3556 -0.127,1.1176 z m 14.1478,2.2606 q -0.6858,0 -1.5748,-0.0762 -0.3048,-0.0254 -0.762,-0.0508 -0.4572,-0.0254 -1.0414,-0.0254 l -1.651,0.0254 q -0.4572,0.0254 -1.27,0.0254 -0.0508,0 -0.0508,-0.1524 0,-0.1524 0.0508,-0.1524 0.762,0 1.0922,-0.127 0.3556,-0.127 0.4572,-0.4826 0.127,-0.381 0.127,-1.143 V 6.7818029 q 0,-0.762 -0.127,-1.1176 -0.1016,-0.3555999 -0.4572,-0.4825999 -0.3302,-0.1524 -1.0414,-0.1524 -0.0762,0 -0.0762,-0.1524 0,-0.1524 0.0762,-0.1524 l 1.2192,0.0254 q 1.016,0.0508 1.651,0.0508 0.7874,0 1.5748,-0.0762 1.016,-0.0508 1.524,-0.0508 2.1336,0 3.683,0.762 1.5494,0.7619999 2.3622,2.1081999 0.8128,1.3462 0.8128,3.0480001 0,1.7526 -0.8382,3.1496 -0.8382,1.397 -2.3368,2.1844 -1.4986,0.7874 -3.4036,0.7874 z m -0.2794,-0.5588 q 1.8542,0 2.8956,-1.3716 1.0414,-1.3716 1.0414,-3.9116 0,-2.4638001 -1.0414,-4.0640001 -1.0414,-1.6255999 -3.1242,-1.6255999 -0.8636,0 -1.2446,0.3555999 -0.3556,0.3556 -0.3556,1.2954 v 7.4422001 q 0,1.0414 0.3556,1.4732 0.381,0.4064 1.4732,0.4064 z"
       id="text1"
       aria-label="The Count of Krigvold" /><g
       id="g1"
       transform="matrix(0.0127,0,0,0.0127,3.7950178e-7,3.4266082e-6)"><g
         id="g4"
         transform="matrix(1.2518406,0,0,1.2518406,-46.197213,-64.519152)"
         style="fill:#f8f8f8;fill-opacity:1"><path
           d="m 757.02,185.66 v 84.035 H 654.61 V 185.66 H 552.18 v 84.035 H 449.77 V 185.66 H 339.5 v 223.2 h 527.79 v -223.2 z"
           id="path1"
           style="fill:#f8f8f8;fill-opacity:1" /><path
           d="m 399.5,1049.5 h 137.86 v -97.379 c 0,-17.402 14.109,-31.512 31.512,-31.512 h 68.27 c 17.402,0 31.512,14.109 31.512,31.512 v 97.379 h 137.86 V 429.82 h -407 z"
           id="path2-5"
           style="fill:#f8f8f8;fill-opacity:1" /><path
           d="m 279.83,491.38 v 76.023 H 187.197 V 491.38 H 93.513 v 558.23 h 283.69 V 491.38 Z"
           id="path3"
           style="fill:#f8f8f8;fill-opacity:1" /><path
           d="m 1015.1,491.38 v 76.023 H 922.459 V 491.38 h -93.684 v 558.23 h 283.71 V 491.38 Z"
           id="path4"
           style="fill:#f8f8f8;fill-opacity:1" /></g></g><g
       id="g2"
       transform="matrix(0.01876478,0,0,0.01876478,299.20213,-0.79787287)"
       style="stroke:none;stroke-opacity:1"><path
         id="rect1-1"
         style="fill:none;fill-opacity:1;stroke:#f8f8f8;stroke-width:29.744;stroke-linecap:round;stroke-dasharray:none;stroke-opacity:1"
         d="M 20.280384,57.391703 H 405.29039 L 677.53527,329.63665 V 714.64667 L 405.29039,986.89156 H 20.280384 L -251.9646,714.64667 V 329.63665 Z"
         sodipodi:nodetypes="ccccccccc" /><g
         fill-rule="evenodd"
         id="g73"
         transform="matrix(0.69767428,0,0,0.69767428,-205.92079,103.65423)"
         style="fill:#f8f8f8;fill-opacity:1;stroke:none;stroke-opacity:1"><path
           d="m 148.92,388.75 c 19.047,5.1953 3.4648,39.828 -25.973,41.559 -19.047,0 -31.168,-10.391 -24.242,-22.512 -19.047,-1.7305 -25.973,-19.047 -10.391,-25.973 -15.586,-12.121 -15.586,-29.438 0,-31.168 -3.4648,-10.391 -1.7305,-22.512 6.9258,-25.973 6.9258,-1.7305 15.586,5.1953 20.777,17.316 13.852,-13.852 25.973,-1.7305 22.512,19.047 20.777,-5.1953 20.777,15.586 10.391,27.707 z"
           id="path1-7"
           style="fill:#f8f8f8;fill-opacity:1;stroke:none;stroke-opacity:1" /><path
           d="m 218.18,430.3 c 10.391,17.316 -25.973,29.438 -46.754,6.9258 -13.852,-12.121 -12.121,-29.438 0,-31.168 -10.391,-17.316 -3.4648,-32.902 13.852,-25.973 -1.7305,-19.047 10.391,-31.168 22.512,-20.777 6.9258,-10.391 17.316,-15.586 24.242,-12.121 6.9258,5.1953 6.9258,15.586 1.7305,27.707 17.316,1.7305 17.316,19.047 0,29.438 15.586,12.121 1.7305,25.973 -15.586,25.973 z"
           id="path2"
           style="fill:#f8f8f8;fill-opacity:1;stroke:none;stroke-opacity:1" /><path
           d="m 110.82,444.16 c 10.391,-17.316 36.363,10.391 27.707,38.094 -6.9258,17.316 -22.512,25.973 -29.438,13.852 -10.391,19.047 -27.707,19.047 -29.438,1.7305 -15.586,8.6562 -31.168,3.4648 -27.707,-10.391 -12.121,-1.7305 -20.777,-8.6562 -20.777,-17.316 0,-6.9258 10.391,-13.852 22.512,-13.852 -6.9258,-17.316 8.6562,-24.242 25.973,-13.852 3.4648,-20.777 22.512,-13.852 31.168,1.7305 z"
           id="path3-5"
           style="fill:#f8f8f8;fill-opacity:1;stroke:none;stroke-opacity:1" /><path
           d="m 348.05,225.97 c 15.586,3.4648 3.4648,32.902 -22.512,34.633 -15.586,0 -25.973,-8.6562 -20.777,-17.316 -17.316,-3.4648 -22.512,-17.316 -8.6562,-24.242 -13.852,-10.391 -13.852,-24.242 0,-25.973 -3.4648,-10.391 -1.7305,-19.047 5.1953,-20.777 6.9258,-3.4648 13.852,3.4648 19.047,12.121 10.391,-10.391 22.512,0 19.047,17.316 17.316,-3.4648 17.316,13.852 8.6562,24.242 z"
           id="path4-6"
           style="fill:#f8f8f8;fill-opacity:1;stroke:none;stroke-opacity:1" /><path
           d="m 415.59,262.34 c 10.391,17.316 -25.973,27.707 -46.754,6.9258 -12.121,-13.852 -12.121,-31.168 0,-32.902 -10.391,-17.316 -3.4648,-32.902 13.852,-25.973 -1.7305,-19.047 10.391,-29.438 22.512,-20.777 6.9258,-10.391 17.316,-15.586 24.242,-10.391 6.9258,3.4648 6.9258,15.586 1.7305,25.973 17.316,1.7305 17.316,20.777 0,31.168 17.316,10.391 1.7305,24.242 -15.586,25.973 z"
           id="path5"
           style="fill:#f8f8f8;fill-opacity:1;stroke:none;stroke-opacity:1" /><path
           d="m 308.23,274.46 c 10.391,-15.586 36.363,10.391 27.707,39.828 -6.9258,17.316 -22.512,24.242 -29.438,13.852 -10.391,17.316 -27.707,17.316 -29.438,0 -15.586,10.391 -31.168,3.4648 -27.707,-10.391 -12.121,-1.7305 -20.777,-8.6562 -20.777,-15.586 0,-8.6562 10.391,-15.586 22.512,-15.586 -6.9258,-15.586 8.6562,-24.242 27.707,-12.121 1.7305,-20.777 20.777,-15.586 29.438,0 z"
           id="path6"
           style="fill:#f8f8f8;fill-opacity:1;stroke:none;stroke-opacity:1" /><path
           d="m 666.67,130.73 c 17.316,3.4648 5.1953,32.902 -22.512,34.633 -15.586,0 -25.973,-8.6562 -20.777,-19.047 -17.316,-1.7305 -24.242,-17.316 -8.6562,-24.242 -13.852,-10.391 -13.852,-24.242 -1.7305,-25.973 -1.7305,-10.391 0,-19.047 6.9258,-22.512 6.9258,-1.7305 13.852,3.4648 19.047,13.852 10.391,-10.391 22.512,0 19.047,17.316 17.316,-5.1953 19.047,13.852 8.6562,25.973 z"
           id="path7"
           style="fill:#f8f8f8;fill-opacity:1;stroke:none;stroke-opacity:1" /><path
           d="m 744.59,191.34 c 10.391,17.316 -25.973,27.707 -46.754,6.9258 -12.121,-13.852 -12.121,-31.168 0,-31.168 -10.391,-19.047 -1.7305,-34.633 13.852,-27.707 0,-19.047 12.121,-29.438 22.512,-19.047 6.9258,-10.391 17.316,-15.586 24.242,-12.121 6.9258,3.4648 8.6562,15.586 1.7305,27.707 19.047,1.7305 17.316,19.047 0,29.438 17.316,10.391 1.7305,25.973 -15.586,25.973 z"
           id="path8"
           style="fill:#f8f8f8;fill-opacity:1;stroke:none;stroke-opacity:1" /><path
           d="m 626.84,179.22 c 12.121,-15.586 38.094,10.391 29.438,39.828 -6.9258,17.316 -22.512,24.242 -29.438,13.852 -10.391,17.316 -27.707,17.316 -29.438,0 -15.586,8.6562 -31.168,3.4648 -27.707,-10.391 -12.121,-1.7305 -22.512,-8.6562 -22.512,-15.586 1.7305,-8.6562 10.391,-15.586 24.242,-15.586 -6.9258,-15.586 8.6562,-24.242 25.973,-12.121 1.7305,-20.777 22.512,-15.586 29.438,0 z"
           id="path9"
           style="fill:#f8f8f8;fill-opacity:1;stroke:none;stroke-opacity:1" /><path
           d="m 1135.9,494.37 c -3.4648,19.047 -38.094,3.4648 -39.828,-25.973 -1.7305,-17.316 10.391,-31.168 20.777,-24.242 3.4648,-20.777 19.047,-27.707 27.707,-10.391 10.391,-15.586 27.707,-17.316 29.438,-1.7305 12.121,-3.4648 22.512,0 25.973,6.9258 1.7305,6.9258 -3.4648,17.316 -15.586,22.512 12.121,12.121 0,25.973 -20.777,22.512 6.9258,19.047 -13.852,20.777 -27.707,10.391 z"
           id="path10"
           style="fill:#f8f8f8;fill-opacity:1;stroke:none;stroke-opacity:1" /><path
           d="m 1096.1,563.64 c -17.316,10.391 -29.438,-25.973 -6.9258,-46.754 12.121,-13.852 29.438,-12.121 31.168,0 17.316,-12.121 32.902,-3.4648 25.973,13.852 19.047,-1.7305 31.168,10.391 20.777,20.777 10.391,6.9258 15.586,17.316 12.121,24.242 -3.4648,6.9258 -15.586,8.6562 -27.707,3.4648 0,17.316 -19.047,17.316 -29.438,-1.7305 -10.391,17.316 -25.973,3.4648 -25.973,-13.852 z"
           id="path11"
           style="fill:#f8f8f8;fill-opacity:1;stroke:none;stroke-opacity:1" /><path
           d="m 1082.2,456.28 c 15.586,10.391 -10.391,38.094 -39.828,27.707 -17.316,-5.1953 -24.242,-20.777 -13.852,-27.707 -17.316,-10.391 -19.047,-27.707 0,-29.438 -10.391,-17.316 -5.1953,-32.902 8.6562,-29.438 1.7305,-12.121 8.6562,-20.777 17.316,-20.777 6.9258,0 13.852,10.391 13.852,22.512 17.316,-6.9258 24.242,8.6562 13.852,27.707 20.777,1.7305 13.852,20.777 0,29.438 z"
           id="path12"
           style="fill:#f8f8f8;fill-opacity:1;stroke:none;stroke-opacity:1" /><path
           d="m 886.58,435.5 c 0,-17.316 31.168,-8.6562 36.363,15.586 3.4648,15.586 -5.1953,27.707 -13.852,22.512 0,17.316 -12.121,25.973 -22.512,13.852 -6.9258,13.852 -20.777,15.586 -24.242,3.4648 -8.6562,5.1953 -19.047,3.4648 -22.512,-1.7305 -1.7305,-5.1953 1.7305,-13.852 10.391,-20.777 -12.121,-8.6562 -3.4648,-20.777 13.852,-20.777 -6.9258,-15.586 8.6562,-19.047 22.512,-12.121 z"
           id="path13"
           style="fill:#f8f8f8;fill-opacity:1;stroke:none;stroke-opacity:1" /><path
           d="m 907.36,361.04 c 15.586,-12.121 32.902,22.512 15.586,46.754 -12.121,13.852 -27.707,17.316 -31.168,3.4648 -15.586,13.852 -32.902,8.6562 -29.438,-8.6562 -17.316,5.1953 -31.168,-5.1953 -22.512,-17.316 -12.121,-5.1953 -19.047,-15.586 -15.586,-22.512 1.7305,-6.9258 13.852,-10.391 25.973,-6.9258 -1.7305,-17.316 15.586,-20.777 29.438,-3.4648 8.6562,-19.047 24.242,-6.9258 27.707,8.6562 z"
           id="path14"
           style="fill:#f8f8f8;fill-opacity:1;stroke:none;stroke-opacity:1" /><path
           d="m 938.53,466.67 c -17.316,-8.6562 5.1953,-39.828 34.633,-34.633 17.316,3.4648 27.707,17.316 17.316,25.973 20.777,6.9258 22.512,24.242 5.1953,29.438 12.121,13.852 10.391,31.168 -5.1953,29.438 0,12.121 -3.4648,22.512 -12.121,24.242 -8.6562,0 -15.586,-8.6562 -19.047,-20.777 -13.852,8.6562 -24.242,-5.1953 -17.316,-24.242 -19.047,1.7305 -17.316,-19.047 -3.4648,-29.438 z"
           id="path15"
           style="fill:#f8f8f8;fill-opacity:1;stroke:none;stroke-opacity:1" /><path
           d="m 522.95,335.07 c -8.6562,-17.316 25.973,-29.438 48.484,-8.6562 12.121,13.852 12.121,31.168 -1.7305,32.902 12.121,17.316 5.1953,32.902 -12.121,25.973 1.7305,19.047 -10.391,31.168 -22.512,20.777 -5.1953,10.391 -15.586,15.586 -22.512,12.121 -6.9258,-3.4648 -8.6562,-15.586 -3.4648,-27.707 -17.316,-1.7305 -17.316,-19.047 0,-29.438 -17.316,-12.121 -3.4648,-25.973 13.852,-25.973 z"
           id="path16"
           style="fill:#f8f8f8;fill-opacity:1;stroke:none;stroke-opacity:1" /><path
           d="m 528.14,239.83 c 6.9258,-19.047 38.094,0 36.363,31.168 -1.7305,17.316 -15.586,29.438 -24.242,20.777 -5.1953,19.047 -22.512,24.242 -29.438,6.9258 -12.121,13.852 -29.438,12.121 -29.438,-3.4648 -12.121,1.7305 -22.512,-1.7305 -24.242,-10.391 -1.7305,-6.9258 6.9258,-15.586 19.047,-19.047 -10.391,-13.852 3.4648,-25.973 22.512,-19.047 -3.4648,-20.777 17.316,-19.047 29.438,-6.9258 z"
           id="path17"
           style="fill:#f8f8f8;fill-opacity:1;stroke:none;stroke-opacity:1" /><path
           d="m 590.48,326.41 c -20.777,3.4648 -17.316,-34.633 10.391,-46.754 17.316,-6.9258 32.902,0 29.438,12.121 20.777,-3.4648 31.168,10.391 19.047,22.512 19.047,5.1953 24.242,20.777 10.391,27.707 8.6562,10.391 8.6562,22.512 3.4648,27.707 -6.9258,5.1953 -17.316,1.7305 -25.973,-8.6562 -8.6562,17.316 -24.242,10.391 -27.707,-10.391 -17.316,12.121 -25.973,-6.9258 -19.047,-24.242 z"
           id="path18"
           style="fill:#f8f8f8;fill-opacity:1;stroke:none;stroke-opacity:1" /><path
           d="m 285.71,492.64 c 8.6562,15.586 -22.512,25.973 -41.559,6.9258 -12.121,-10.391 -12.121,-25.973 0,-27.707 -10.391,-15.586 -3.4648,-29.438 12.121,-24.242 -1.7305,-15.586 8.6562,-25.973 19.047,-17.316 5.1953,-8.6562 13.852,-13.852 20.777,-10.391 6.9258,3.4648 6.9258,13.852 1.7305,24.242 15.586,0 15.586,17.316 0,25.973 15.586,10.391 3.4648,22.512 -12.121,22.512 z"
           id="path19"
           style="fill:#f8f8f8;fill-opacity:1;stroke:none;stroke-opacity:1" /><path
           d="m 141.99,522.08 c -5.1953,-17.316 29.438,-20.777 43.289,1.7305 8.6562,13.852 5.1953,27.707 -6.9258,27.707 6.9258,17.316 -1.7305,29.438 -15.586,20.777 -1.7305,15.586 -13.852,24.242 -22.512,13.852 -6.9258,6.9258 -17.316,10.391 -22.512,5.1953 -5.1953,-5.1953 -5.1953,-15.586 1.7305,-24.242 -13.852,-3.4648 -10.391,-19.047 6.9258,-25.973 -13.852,-12.121 1.7305,-22.512 15.586,-19.047 z"
           id="path20"
           style="fill:#f8f8f8;fill-opacity:1;stroke:none;stroke-opacity:1" /><path
           d="m 320.35,402.6 c -17.316,1.7305 -15.586,-31.168 8.6562,-41.559 15.586,-6.9258 29.438,-1.7305 25.973,10.391 17.316,-3.4648 29.438,8.6562 17.316,19.047 15.586,5.1953 22.512,19.047 10.391,24.242 5.1953,8.6562 6.9258,19.047 1.7305,24.242 -5.1953,3.4648 -15.586,1.7305 -22.512,-6.9258 -6.9258,13.852 -22.512,8.6562 -25.973,-10.391 -13.852,10.391 -20.777,-5.1953 -15.586,-19.047 z"
           id="path21"
           style="fill:#f8f8f8;fill-opacity:1;stroke:none;stroke-opacity:1" /><path
           d="m 735.93,357.57 c -19.047,5.1953 -19.047,-32.902 6.9258,-46.754 15.586,-8.6562 32.902,-3.4648 29.438,8.6562 20.777,-5.1953 34.633,6.9258 22.512,20.777 19.047,3.4648 25.973,19.047 13.852,25.973 6.9258,10.391 10.391,20.777 3.4648,25.973 -5.1953,6.9258 -15.586,3.4648 -25.973,-3.4648 -6.9258,15.586 -22.512,10.391 -27.707,-10.391 -15.586,13.852 -25.973,-3.4648 -22.512,-20.777 z"
           id="path22"
           style="fill:#f8f8f8;fill-opacity:1;stroke:none;stroke-opacity:1" /><path
           d="m 742.86,293.51 c -1.7305,17.316 -32.902,5.1953 -36.363,-20.777 -1.7305,-15.586 8.6562,-27.707 17.316,-22.512 1.7305,-17.316 15.586,-24.242 24.242,-10.391 8.6562,-13.852 24.242,-15.586 25.973,-1.7305 10.391,-3.4648 20.777,-1.7305 22.512,5.1953 3.4648,5.1953 -1.7305,13.852 -12.121,19.047 10.391,10.391 1.7305,22.512 -17.316,20.777 6.9258,17.316 -12.121,19.047 -24.242,10.391 z"
           id="path23"
           style="fill:#f8f8f8;fill-opacity:1;stroke:none;stroke-opacity:1" /><path
           d="m 962.77,319.48 c 3.4648,17.316 -29.438,15.586 -39.828,-8.6562 -6.9258,-15.586 0,-29.438 10.391,-25.973 -3.4648,-19.047 8.6562,-29.438 19.047,-17.316 5.1953,-17.316 19.047,-22.512 24.242,-10.391 8.6562,-5.1953 19.047,-6.9258 24.242,-1.7305 3.4648,5.1953 1.7305,15.586 -6.9258,22.512 13.852,6.9258 8.6562,22.512 -10.391,24.242 10.391,15.586 -5.1953,22.512 -20.777,17.316 z"
           id="path24"
           style="fill:#f8f8f8;fill-opacity:1;stroke:none;stroke-opacity:1" /><path
           d="m 978.36,393.94 c -8.6562,19.047 -39.828,-1.7305 -36.363,-31.168 3.4648,-19.047 15.586,-29.438 25.973,-20.777 5.1953,-19.047 24.242,-22.512 27.707,-5.1953 13.852,-13.852 31.168,-10.391 29.438,3.4648 13.852,0 24.242,3.4648 24.242,12.121 1.7305,6.9258 -6.9258,15.586 -19.047,19.047 10.391,13.852 -3.4648,25.973 -22.512,17.316 1.7305,20.777 -19.047,19.047 -29.438,5.1953 z"
           id="path25"
           style="fill:#f8f8f8;fill-opacity:1;stroke:none;stroke-opacity:1" /><path
           d="m 441.56,134.2 c 17.316,3.4648 3.4648,34.633 -22.512,36.363 -17.316,0 -27.707,-10.391 -20.777,-19.047 -19.047,-3.4648 -24.242,-17.316 -10.391,-24.242 -13.852,-10.391 -13.852,-24.242 0,-25.973 -3.4648,-10.391 0,-20.777 5.1953,-22.512 6.9258,-3.4648 15.586,3.4648 20.777,13.852 10.391,-10.391 22.512,0 19.047,17.316 17.316,-5.1953 17.316,12.121 8.6562,24.242 z"
           id="path26"
           style="fill:#f8f8f8;fill-opacity:1;stroke:none;stroke-opacity:1" /><path
           d="m 519.48,196.54 c 8.6562,17.316 -27.707,27.707 -46.754,6.9258 -13.852,-13.852 -13.852,-31.168 0,-32.902 -12.121,-17.316 -3.4648,-32.902 13.852,-25.973 -1.7305,-19.047 10.391,-29.438 20.777,-20.777 6.9258,-10.391 17.316,-13.852 24.242,-10.391 6.9258,3.4648 8.6562,15.586 3.4648,25.973 17.316,1.7305 17.316,20.777 -1.7305,31.168 17.316,10.391 3.4648,24.242 -13.852,25.973 z"
           id="path27"
           style="fill:#f8f8f8;fill-opacity:1;stroke:none;stroke-opacity:1" /><path
           d="m 202.6,291.77 c 19.047,-3.4648 19.047,32.902 -6.9258,46.754 -17.316,8.6562 -32.902,3.4648 -29.438,-8.6562 -20.777,5.1953 -34.633,-6.9258 -22.512,-20.777 -19.047,-5.1953 -25.973,-19.047 -12.121,-27.707 -8.6562,-8.6562 -10.391,-20.777 -5.1953,-25.973 6.9258,-5.1953 17.316,-3.4648 27.707,5.1953 5.1953,-15.586 22.512,-10.391 27.707,8.6562 15.586,-12.121 25.973,5.1953 20.777,22.512 z"
           id="path28"
           style="fill:#f8f8f8;fill-opacity:1;stroke:none;stroke-opacity:1" /><path
           d="m 715.15,94.371 c 1.7305,13.852 -27.707,12.121 -38.094,-8.6562 -5.1953,-13.852 0,-25.973 10.391,-22.512 -3.4648,-17.316 6.9258,-25.973 17.316,-17.316 3.4648,-13.852 15.586,-17.316 20.777,-6.9258 8.6562,-6.9258 17.316,-6.9258 22.512,-1.7305 3.4648,3.4648 0,13.852 -6.9258,20.777 12.121,5.1953 6.9258,17.316 -8.6562,20.777 8.6562,13.852 -5.1953,19.047 -17.316,15.586 z"
           id="path29"
           style="fill:#f8f8f8;fill-opacity:1;stroke:none;stroke-opacity:1" /><path
           d="m 824.24,210.39 c -6.9258,19.047 -38.094,-1.7305 -34.633,-31.168 1.7305,-19.047 15.586,-29.438 24.242,-20.777 6.9258,-19.047 24.242,-22.512 29.438,-5.1953 13.852,-13.852 31.168,-12.121 29.438,3.4648 12.121,-1.7305 22.512,3.4648 24.242,12.121 1.7305,6.9258 -6.9258,15.586 -19.047,19.047 10.391,13.852 -3.4648,24.242 -24.242,17.316 3.4648,20.777 -17.316,19.047 -29.438,5.1953 z"
           id="path30"
           style="fill:#f8f8f8;fill-opacity:1;stroke:none;stroke-opacity:1" /><path
           d="m 822.51,113.42 c 8.6562,12.121 -19.047,24.242 -38.094,8.6562 -10.391,-8.6562 -12.121,-22.512 -1.7305,-24.242 -10.391,-13.852 -5.1953,-27.707 8.6562,-22.512 -3.4648,-15.586 5.1953,-25.973 15.586,-19.047 5.1953,-8.6562 12.121,-13.852 17.316,-10.391 6.9258,1.7305 8.6562,12.121 5.1953,20.777 13.852,0 15.586,13.852 1.7305,24.242 15.586,6.9258 5.1953,20.777 -8.6562,22.512 z"
           id="path31"
           style="fill:#f8f8f8;fill-opacity:1;stroke:none;stroke-opacity:1" /><path
           d="m 588.75,89.176 c 15.586,1.7305 6.9258,29.438 -15.586,32.902 -13.852,3.4648 -25.973,-5.1953 -20.777,-13.852 -15.586,0 -22.512,-12.121 -12.121,-19.047 -12.121,-8.6562 -13.852,-20.777 -3.4648,-24.242 -3.4648,-8.6562 -1.7305,-17.316 3.4648,-20.777 5.1953,-1.7305 13.852,1.7305 19.047,10.391 8.6562,-10.391 20.777,-1.7305 19.047,13.852 15.586,-6.9258 17.316,8.6562 10.391,20.777 z"
           id="path32"
           style="fill:#f8f8f8;fill-opacity:1;stroke:none;stroke-opacity:1" /><path
           d="m 503.89,90.91 c 12.121,6.9258 -5.1953,29.438 -27.707,22.512 -13.852,-3.4648 -19.047,-13.852 -12.121,-20.777 -13.852,-6.9258 -15.586,-19.047 -1.7305,-20.777 -8.6562,-12.121 -5.1953,-24.242 6.9258,-22.512 0,-8.6562 3.4648,-15.586 10.391,-17.316 5.1953,0 10.391,6.9258 12.121,17.316 12.121,-6.9258 19.047,5.1953 10.391,19.047 15.586,0 12.121,15.586 1.7305,22.512 z"
           id="path33"
           style="fill:#f8f8f8;fill-opacity:1;stroke:none;stroke-opacity:1" /><path
           d="m 261.47,241.56 c 12.121,8.6562 -6.9258,29.438 -27.707,24.242 -13.852,-5.1953 -20.777,-15.586 -12.121,-20.777 -13.852,-6.9258 -15.586,-20.777 -1.7305,-22.512 -8.6562,-12.121 -5.1953,-24.242 6.9258,-22.512 0,-8.6562 5.1953,-15.586 10.391,-15.586 6.9258,0 12.121,6.9258 12.121,15.586 12.121,-5.1953 19.047,6.9258 12.121,20.777 13.852,0 10.391,13.852 0,20.777 z"
           id="path34"
           style="fill:#f8f8f8;fill-opacity:1;stroke:none;stroke-opacity:1" /><path
           d="m 363.64,141.12 c 13.852,-5.1953 17.316,22.512 -1.7305,34.633 -12.121,6.9258 -24.242,5.1953 -24.242,-5.1953 -13.852,5.1953 -24.242,-3.4648 -17.316,-13.852 -13.852,-1.7305 -19.047,-12.121 -10.391,-19.047 -6.9258,-6.9258 -8.6562,-15.586 -5.1953,-19.047 3.4648,-5.1953 12.121,-3.4648 20.777,1.7305 3.4648,-12.121 17.316,-8.6562 20.777,5.1953 12.121,-10.391 19.047,1.7305 17.316,15.586 z"
           id="path35"
           style="fill:#f8f8f8;fill-opacity:1;stroke:none;stroke-opacity:1" /><path
           d="m 931.6,232.9 c 5.1953,13.852 -22.512,19.047 -34.633,0 -8.6562,-10.391 -6.9258,-24.242 3.4648,-22.512 -6.9258,-15.586 1.7305,-25.973 13.852,-19.047 0,-13.852 10.391,-20.777 17.316,-12.121 6.9258,-6.9258 15.586,-8.6562 19.047,-5.1953 5.1953,3.4648 5.1953,12.121 0,19.047 12.121,3.4648 10.391,17.316 -5.1953,22.512 12.121,10.391 0,19.047 -13.852,17.316 z"
           id="path36"
           style="fill:#f8f8f8;fill-opacity:1;stroke:none;stroke-opacity:1" /><path
           d="m 1134.2,402.6 c 5.1953,13.852 -22.512,19.047 -34.633,0 -8.6562,-12.121 -5.1953,-24.242 3.4648,-24.242 -5.1953,-13.852 1.7305,-24.242 13.852,-17.316 1.7305,-13.852 10.391,-20.777 19.047,-12.121 5.1953,-6.9258 13.852,-10.391 19.047,-6.9258 3.4648,5.1953 3.4648,13.852 -1.7305,20.777 12.121,3.4648 10.391,17.316 -5.1953,22.512 12.121,10.391 0,19.047 -13.852,17.316 z"
           id="path37"
           style="fill:#f8f8f8;fill-opacity:1;stroke:none;stroke-opacity:1" /><path
           d="m 1101.3,341.99 c 8.6562,15.586 -22.512,24.242 -41.559,6.9258 -10.391,-12.121 -10.391,-27.707 1.7305,-29.438 -10.391,-13.852 -3.4648,-29.438 10.391,-22.512 0,-17.316 10.391,-25.973 19.047,-17.316 6.9258,-10.391 15.586,-13.852 22.512,-10.391 5.1953,3.4648 6.9258,13.852 1.7305,22.512 15.586,1.7305 15.586,17.316 0,27.707 13.852,8.6562 1.7305,22.512 -13.852,22.512 z"
           id="path38"
           style="fill:#f8f8f8;fill-opacity:1;stroke:none;stroke-opacity:1" /><path
           d="m 1051.1,281.39 c 5.1953,13.852 -24.242,19.047 -36.363,0 -8.6562,-10.391 -5.1953,-24.242 3.4648,-22.512 -5.1953,-15.586 1.7305,-25.973 13.852,-19.047 1.7305,-13.852 12.121,-20.777 19.047,-12.121 5.1953,-6.9258 13.852,-8.6562 19.047,-5.1953 5.1953,3.4648 3.4648,12.121 -1.7305,19.047 12.121,3.4648 10.391,17.316 -3.4648,22.512 10.391,10.391 -1.7305,19.047 -13.852,17.316 z"
           id="path39"
           style="fill:#f8f8f8;fill-opacity:1;stroke:none;stroke-opacity:1" /><path
           d="m 1016.4,219.05 c 3.4648,17.316 -31.168,17.316 -43.289,-8.6562 -6.9258,-13.852 -1.7305,-29.438 10.391,-25.973 -5.1953,-19.047 6.9258,-29.438 19.047,-19.047 3.4648,-17.316 17.316,-22.512 24.242,-10.391 8.6562,-6.9258 19.047,-8.6562 24.242,-3.4648 5.1953,5.1953 1.7305,15.586 -5.1953,24.242 13.852,5.1953 8.6562,20.777 -10.391,25.973 12.121,13.852 -5.1953,22.512 -19.047,17.316 z"
           id="path40"
           style="fill:#f8f8f8;fill-opacity:1;stroke:none;stroke-opacity:1" /><path
           d="m 881.39,127.27 c -1.7305,15.586 -29.438,8.6562 -34.633,-12.121 -1.7305,-13.852 3.4648,-25.973 13.852,-20.777 C 858.8785,78.786 871,71.86 877.925,82.251 c 6.9258,-12.121 19.047,-15.586 22.512,-5.1953 8.6562,-3.4648 17.316,-3.4648 20.777,1.7305 1.7305,5.1953 -1.7305,13.852 -8.6562,19.047 10.391,6.9258 3.4648,19.047 -12.121,19.047 6.9258,13.852 -8.6562,17.316 -19.047,10.391 z"
           id="path41"
           style="fill:#f8f8f8;fill-opacity:1;stroke:none;stroke-opacity:1" /><path
           d="m 948.92,158.44 c 6.9258,10.391 -13.852,20.777 -29.438,8.6562 -8.6562,-8.6562 -10.391,-19.047 -1.7305,-20.777 -8.6562,-10.391 -5.1953,-20.777 5.1953,-17.316 -1.7305,-12.121 5.1953,-19.047 12.121,-13.852 3.4648,-6.9258 10.391,-12.121 13.852,-10.391 5.1953,1.7305 6.9258,10.391 5.1953,17.316 10.391,0 12.121,10.391 1.7305,19.047 12.121,5.1953 3.4648,15.586 -6.9258,17.316 z"
           id="path42"
           style="fill:#f8f8f8;fill-opacity:1;stroke:none;stroke-opacity:1" /><path
           d="m 637.23,63.203 c -8.6562,10.391 13.852,19.047 27.707,8.6562 10.391,-8.6562 10.391,-19.047 3.4648,-20.777 8.6562,-10.391 3.4648,-20.777 -6.9258,-17.316 1.7305,-12.121 -3.4648,-19.047 -12.121,-13.852 -3.4648,-6.9258 -8.6562,-12.121 -13.852,-10.391 -5.1953,1.7305 -6.9258,10.391 -3.4648,17.316 -12.121,0 -12.121,10.391 -1.7305,19.047 -12.121,5.1953 -5.1953,15.586 6.9258,17.316 z"
           id="path43"
           style="fill:#f8f8f8;fill-opacity:1;stroke:none;stroke-opacity:1" /><path
           d="m 462.34,343.72 c 13.852,8.6562 -5.1953,29.438 -27.707,24.242 -13.852,-3.4648 -19.047,-15.586 -12.121,-20.777 -13.852,-6.9258 -15.586,-20.777 -1.7305,-22.512 -8.6562,-12.121 -5.1953,-24.242 6.9258,-20.777 0,-10.391 3.4648,-17.316 10.391,-17.316 5.1953,0 10.391,6.9258 12.121,15.586 12.121,-5.1953 19.047,6.9258 12.121,20.777 13.852,0 10.391,13.852 0,20.777 z"
           id="path44"
           style="fill:#f8f8f8;fill-opacity:1;stroke:none;stroke-opacity:1" /><path
           d="m 335.93,516.88 c 0,12.121 -24.242,8.6562 -29.438,-10.391 -3.4648,-10.391 3.4648,-20.777 10.391,-17.316 -1.7305,-12.121 8.6562,-19.047 15.586,-10.391 5.1953,-10.391 15.586,-13.852 17.316,-5.1953 6.9258,-3.4648 15.586,-1.7305 17.316,1.7305 3.4648,3.4648 0,10.391 -6.9258,15.586 10.391,6.9258 3.4648,15.586 -8.6562,15.586 5.1953,12.121 -6.9258,15.586 -15.586,10.391 z"
           id="path45"
           style="fill:#f8f8f8;fill-opacity:1;stroke:none;stroke-opacity:1" /><path
           d="m 396.54,445.89 c -8.6562,-10.391 10.391,-22.512 27.707,-12.121 8.6562,5.1953 12.121,15.586 3.4648,19.047 10.391,8.6562 8.6562,19.047 -3.4648,17.316 5.1953,12.121 -1.7305,20.777 -10.391,17.316 -1.7305,6.9258 -6.9258,12.121 -12.121,10.391 -5.1953,-1.7305 -6.9258,-8.6562 -5.1953,-15.586 -12.121,1.7305 -13.852,-8.6562 -5.1953,-19.047 -12.121,-3.4648 -5.1953,-15.586 5.1953,-17.316 z"
           id="path46"
           style="fill:#f8f8f8;fill-opacity:1;stroke:none;stroke-opacity:1" /><path
           d="m 202.6,570.56 c -8.6562,-10.391 12.121,-22.512 27.707,-12.121 10.391,5.1953 12.121,15.586 5.1953,19.047 8.6562,8.6562 6.9258,19.047 -3.4648,19.047 3.4648,10.391 -1.7305,19.047 -10.391,15.586 -3.4648,6.9258 -8.6562,12.121 -13.852,10.391 -3.4648,-1.7305 -6.9258,-8.6562 -5.1953,-15.586 -10.391,1.7305 -13.852,-8.6562 -5.1953,-19.047 -12.121,-3.4648 -5.1953,-13.852 5.1953,-17.316 z"
           id="path47"
           style="fill:#f8f8f8;fill-opacity:1;stroke:none;stroke-opacity:1" /><path
           d="m 509.09,468.4 c -8.6562,8.6562 -20.777,-12.121 -10.391,-27.707 6.9258,-10.391 17.316,-12.121 20.777,-3.4648 8.6562,-10.391 20.777,-6.9258 17.316,3.4648 12.121,-1.7305 20.777,3.4648 15.586,12.121 6.9258,1.7305 12.121,8.6562 10.391,13.852 -1.7305,3.4648 -8.6562,6.9258 -15.586,3.4648 0,12.121 -10.391,13.852 -19.047,3.4648 -5.1953,12.121 -15.586,5.1953 -19.047,-5.1953 z"
           id="path48"
           style="fill:#f8f8f8;fill-opacity:1;stroke:none;stroke-opacity:1" /><path
           d="m 604.33,393.94 c -3.4648,-13.852 25.973,-13.852 34.633,6.9258 5.1953,13.852 1.7305,25.973 -8.6562,22.512 3.4648,15.586 -6.9258,24.242 -15.586,15.586 -5.1953,13.852 -15.586,19.047 -20.777,8.6562 -8.6562,5.1953 -15.586,6.9258 -20.777,1.7305 -3.4648,-3.4648 -1.7305,-12.121 5.1953,-19.047 -12.121,-5.1953 -6.9258,-19.047 8.6562,-20.777 -10.391,-12.121 3.4648,-19.047 17.316,-15.586 z"
           id="path49"
           style="fill:#f8f8f8;fill-opacity:1;stroke:none;stroke-opacity:1" /><path
           d="m 725.54,435.5 c -10.391,8.6562 -22.512,-12.121 -10.391,-27.707 6.9258,-10.391 17.316,-12.121 19.047,-3.4648 10.391,-8.6562 20.777,-6.9258 19.047,5.1953 10.391,-3.4648 19.047,1.7305 13.852,10.391 6.9258,3.4648 12.121,8.6562 10.391,13.852 -1.7305,5.1953 -8.6562,6.9258 -15.586,5.1953 0,10.391 -10.391,12.121 -19.047,3.4648 -5.1953,12.121 -15.586,5.1953 -17.316,-6.9258 z"
           id="path50"
           style="fill:#f8f8f8;fill-opacity:1;stroke:none;stroke-opacity:1" /><path
           d="m 692.64,503.03 c -17.316,0 -12.121,-32.902 13.852,-39.828 15.586,-5.1953 27.707,1.7305 24.242,13.852 17.316,-1.7305 25.973,10.391 13.852,20.777 15.586,5.1953 19.047,19.047 6.9258,24.242 5.1953,8.6562 5.1953,19.047 0,22.512 -6.9258,3.4648 -15.586,0 -22.512,-8.6562 -6.9258,13.852 -20.777,5.1953 -22.512,-12.121 -15.586,8.6562 -20.777,-8.6562 -13.852,-20.777 z"
           id="path51"
           style="fill:#f8f8f8;fill-opacity:1;stroke:none;stroke-opacity:1" /><path
           d="m 782.68,459.74 c -8.6562,-8.6562 12.121,-20.777 27.707,-10.391 10.391,5.1953 13.852,15.586 5.1953,19.047 10.391,8.6562 8.6562,19.047 -3.4648,17.316 3.4648,12.121 -1.7305,20.777 -10.391,17.316 -1.7305,6.9258 -6.9258,12.121 -12.121,10.391 -5.1952,-1.73 -6.9258,-8.6562 -6.9258,-15.586 -10.391,1.7305 -12.121,-10.391 -3.4648,-19.047 -12.121,-3.4648 -6.9258,-15.586 3.4648,-19.047 z"
           id="path52"
           style="fill:#f8f8f8;fill-opacity:1;stroke:none;stroke-opacity:1" /><path
           d="m 924.68,530.73 c 13.852,-5.1953 19.047,22.512 1.7305,34.633 -12.121,8.6562 -24.242,6.9258 -24.242,-3.4648 -13.852,6.9258 -24.242,0 -17.316,-12.121 -13.852,-1.7305 -20.777,-10.391 -12.121,-19.047 -6.9258,-5.1953 -10.391,-13.852 -6.9258,-17.316 3.4648,-5.1953 12.121,-5.1953 20.777,0 1.7305,-12.121 15.586,-10.391 20.777,3.4648 10.391,-12.121 19.047,0 17.316,13.852 z"
           id="path53"
           style="fill:#f8f8f8;fill-opacity:1;stroke:none;stroke-opacity:1" /><path
           d="m 1028.6,613.85 c -17.316,1.7305 -12.121,-31.168 12.121,-38.094 15.586,-5.1953 29.438,1.7305 24.242,12.121 19.047,-1.7305 27.707,12.121 15.586,20.777 15.586,6.9258 19.047,20.777 6.9258,25.973 5.1953,8.6562 5.1953,19.047 -1.7305,22.512 -5.1953,3.4648 -13.852,0 -20.777,-8.6562 -8.6562,12.121 -22.512,5.1953 -22.512,-12.121 -15.586,8.6562 -20.777,-8.6562 -13.852,-22.512 z"
           id="path54"
           style="fill:#f8f8f8;fill-opacity:1;stroke:none;stroke-opacity:1" /><path
           d="m 971.43,625.97 c -8.6562,-8.6562 10.391,-22.512 27.707,-12.121 8.6562,5.1953 12.121,15.586 3.4648,19.047 10.391,8.6562 8.6562,20.777 -3.4648,19.047 5.1953,10.391 -1.7305,19.047 -10.391,15.586 -1.7305,6.9258 -6.9258,12.121 -12.121,10.391 -5.1953,0 -6.9258,-6.9258 -5.1953,-15.586 -12.121,1.7305 -13.852,-8.6562 -5.1953,-19.047 -12.121,-3.4648 -5.1953,-13.852 5.1953,-17.316 z"
           id="path55"
           style="fill:#f8f8f8;fill-opacity:1;stroke:none;stroke-opacity:1" /><path
           d="m 282.25,142.86 c 13.852,-3.4648 17.316,24.242 -1.7305,36.363 -12.121,6.9258 -24.242,5.1953 -24.242,-5.1953 -13.852,5.1953 -24.242,-3.4648 -17.316,-13.852 -13.852,-1.7305 -19.047,-13.852 -10.391,-19.047 -6.9258,-6.9258 -8.6562,-15.586 -5.1953,-20.777 3.4648,-3.4648 12.121,-3.4648 20.777,3.4648 3.4648,-13.852 17.316,-10.391 20.777,5.1953 12.121,-10.391 19.047,1.7305 17.316,13.852 z"
           id="path56"
           style="fill:#f8f8f8;fill-opacity:1;stroke:none;stroke-opacity:1" /><path
           d="m 60.605,388.75 c 13.852,-3.4648 17.316,24.242 -1.7305,36.363 -12.121,6.9258 -24.242,5.1953 -24.242,-5.1953 -13.852,5.1953 -24.242,-3.4648 -17.316,-13.852 -13.852,-1.7305 -19.047,-12.121 -10.391,-19.047 -6.9258,-6.9258 -8.6562,-15.586 -5.1953,-19.047 3.4648,-5.1953 12.121,-3.4648 20.777,1.7305 3.4648,-12.121 17.316,-10.391 20.777,5.1953 12.121,-10.391 20.777,1.7305 17.316,13.852 z"
           id="path57"
           style="fill:#f8f8f8;fill-opacity:1;stroke:none;stroke-opacity:1" /><path
           d="m 64.07,523.81 c 1.7305,-15.586 29.438,-5.1953 31.168,17.316 1.7305,13.852 -6.9258,24.242 -15.586,19.047 -1.7305,15.586 -13.852,20.777 -20.777,8.6562 -6.9258,12.121 -19.047,12.121 -20.777,1.7305 -10.391,3.4648 -17.316,1.7305 -20.777,-5.1953 -1.7305,-5.1953 3.4648,-12.121 12.121,-15.586 -10.391,-10.391 -1.7305,-20.777 13.852,-17.316 -5.1953,-15.586 10.391,-17.316 20.777,-8.6562 z"
           id="path58"
           style="fill:#f8f8f8;fill-opacity:1;stroke:none;stroke-opacity:1" /><path
           d="m 199.13,219.05 c 13.852,6.9258 -5.1953,27.707 -27.707,22.512 -12.121,-3.4648 -19.047,-13.852 -12.121,-20.777 -13.852,-6.9258 -15.586,-20.777 -1.7305,-22.512 -8.6562,-10.391 -5.1953,-22.512 6.9258,-20.777 0,-8.6562 5.1953,-17.316 10.391,-17.316 6.9258,0 12.121,6.9258 12.121,15.586 12.121,-5.1953 19.047,6.9258 12.121,20.777 15.586,0 10.391,15.586 0,22.512 z"
           id="path59"
           style="fill:#f8f8f8;fill-opacity:1;stroke:none;stroke-opacity:1" /><path
           d="m 79.652,302.16 c -8.6562,10.391 13.852,20.777 27.707,8.6562 10.391,-6.9258 10.391,-19.047 3.4648,-20.777 8.6562,-8.6562 3.4648,-20.777 -6.9258,-17.316 1.7305,-12.121 -3.4648,-19.047 -12.121,-13.852 -3.4648,-6.9258 -8.6562,-12.121 -13.852,-10.391 -5.1953,3.4648 -6.9258,10.391 -3.4648,17.316 -12.121,0 -12.121,10.391 -1.7305,19.047 -12.121,5.1953 -5.1953,15.586 6.9258,17.316 z"
           id="path60"
           style="fill:#f8f8f8;fill-opacity:1;stroke:none;stroke-opacity:1" /><path
           d="m 55.41,350.65 c 6.9258,10.391 22.512,-6.9258 15.586,-24.242 -3.4648,-10.391 -13.852,-15.586 -17.316,-8.6562 -6.9258,-10.391 -19.047,-10.391 -19.047,0 -10.391,-5.1953 -20.777,-1.7305 -17.316,6.9258 -8.6562,1.7305 -13.852,6.9258 -13.852,12.121 0,3.4648 6.9258,8.6562 15.586,8.6562 -5.1953,10.391 5.1953,13.852 17.316,6.9258 1.7305,12.121 13.852,8.6562 19.047,-1.7305 z"
           id="path61"
           style="fill:#f8f8f8;fill-opacity:1;stroke:none;stroke-opacity:1" /><path
           d="m 275.32,639.83 c -5.1953,8.6562 -15.586,15.586 -25.973,13.852 -3.4648,1.7305 -3.4648,3.4648 -8.6562,3.4648 -1.7305,-3.4648 -1.7305,-5.1953 0,-8.6562 -8.6562,-8.6562 -6.9258,-20.777 -1.7305,-29.438 3.4648,3.4648 10.391,6.9258 17.316,12.121 6.9258,3.4648 13.852,6.9258 19.047,8.6562 z m 6.9258,-5.1953 c -3.4648,6.9258 -13.852,1.7305 -25.973,-5.1953 -10.391,-6.9258 -20.777,-12.121 -17.316,-20.777 5.1953,-6.9258 13.852,-6.9258 20.777,-5.1953 8.6562,0 12.121,-5.1953 17.316,-12.121 3.4648,-5.1953 5.1953,-5.1953 6.9258,-6.9258 l 3.4648,3.4648 c -3.4648,1.7305 -5.1953,1.7305 -6.9258,6.9258 -1.7305,5.1953 -5.1953,12.121 -3.4648,17.316 5.1953,6.9258 10.391,12.121 5.1953,22.512 z"
           id="path62"
           style="fill:#f8f8f8;fill-opacity:1;stroke:none;stroke-opacity:1" /><path
           d="m 315.15,641.56 c 3.4648,10.391 13.852,17.316 25.973,15.586 3.4648,1.7305 3.4648,3.4648 8.6562,3.4648 1.7305,-3.4648 1.7305,-5.1953 1.7305,-8.6562 6.9258,-8.6562 5.1953,-22.512 0,-31.168 -3.4648,3.4648 -10.391,6.9258 -17.316,12.121 -8.6562,3.4648 -13.852,6.9258 -19.047,8.6562 z m -10.391,-5.1953 c 5.1953,8.6562 15.586,1.7305 27.707,-5.1953 13.852,-6.9258 24.242,-12.121 19.047,-20.777 -5.1953,-6.9258 -13.852,-8.6562 -20.777,-6.9258 -10.391,1.7305 -13.852,-5.1953 -17.316,-12.121 -3.4648,-5.1953 -5.1953,-6.9258 -8.6562,-8.6562 l -3.4648,5.1953 c 3.4648,0 5.1953,1.7305 6.9258,6.9258 3.4648,5.1953 6.9258,12.121 3.4648,19.047 -5.1953,6.9258 -12.121,12.121 -6.9258,22.512 z"
           id="path63"
           style="fill:#f8f8f8;fill-opacity:1;stroke:none;stroke-opacity:1" /><path
           d="m 70.996,606.93 c -1.7305,10.391 1.7305,24.242 10.391,29.438 1.7305,3.4648 1.7305,5.1953 5.1953,8.6562 3.4648,-3.4648 3.4648,-3.4648 6.9258,-6.9258 10.391,-1.7305 19.047,-12.121 20.777,-22.512 -6.9258,0 -13.852,-1.7305 -22.512,-3.4648 -6.9258,0 -15.586,-1.7305 -20.777,-5.1953 z m -1.7305,-10.391 c -1.7305,10.391 8.6562,12.121 24.242,15.586 13.852,1.7305 24.242,5.1953 25.973,-5.1953 1.7305,-8.6562 -3.4648,-13.852 -10.391,-19.047 -8.6562,-5.1953 -6.9258,-10.391 -5.1953,-19.047 0,-6.9258 0,-8.6562 -1.7305,-12.121 h -5.1953 c 1.7305,3.4648 1.7305,5.1953 0,12.121 -1.7305,5.1953 -3.4648,12.121 -8.6562,15.586 -8.6562,1.7305 -17.316,1.7305 -19.047,12.121 z"
           id="path64"
           style="fill:#f8f8f8;fill-opacity:1;stroke:none;stroke-opacity:1" /><path
           d="m 510.82,549.79 c 5.1953,10.391 15.586,17.316 25.973,15.586 3.4648,1.7305 5.1953,3.4648 8.6562,3.4648 1.7305,-3.4648 1.7305,-5.1953 1.7305,-8.6562 6.9258,-8.6562 6.9258,-22.512 1.7305,-31.168 -5.1953,3.4648 -12.121,6.9258 -19.047,12.121 -6.9258,3.4648 -13.852,6.9258 -19.047,8.6562 z m -8.6562,-5.1953 c 5.1953,8.6562 13.852,1.7305 27.707,-5.1953 12.121,-6.9258 22.512,-12.121 17.316,-20.777 -3.4648,-6.9258 -12.121,-8.6562 -20.777,-6.9258 -8.6562,1.7305 -12.121,-5.1953 -17.316,-12.121 -3.4648,-5.1953 -5.1953,-6.9258 -8.6562,-8.6562 l -3.4648,5.1953 c 3.4648,0 5.1953,1.7305 8.6562,6.9258 1.7305,5.1953 5.1953,12.121 1.7305,19.047 -3.4648,6.9258 -10.391,12.121 -5.1953,22.512 z"
           id="path65"
           style="fill:#f8f8f8;fill-opacity:1;stroke:none;stroke-opacity:1" /><path
           d="m 290.91,395.67 c -3.4648,8.6562 -13.852,15.586 -24.242,13.852 -3.4648,1.7305 -5.1953,3.4648 -8.6562,3.4648 -1.7305,-3.4648 -1.7305,-5.1953 -1.7305,-8.6562 -6.9258,-8.6562 -5.1953,-20.777 0,-27.707 3.4648,3.4648 10.391,6.9258 17.316,10.391 6.9258,3.4648 12.121,6.9258 17.316,8.6562 z m 8.6562,-5.1953 c -5.1953,8.6562 -13.852,1.7305 -25.973,-5.1953 -12.121,-6.9258 -20.777,-12.121 -17.316,-19.047 5.1953,-6.9258 13.852,-8.6562 20.777,-6.9258 8.6562,1.7305 12.121,-3.4648 15.586,-10.391 3.4648,-5.1953 5.1953,-6.9258 8.6562,-8.6562 l 3.4648,3.4648 c -3.4648,1.7305 -5.1953,3.4648 -6.9258,8.6562 -3.4648,5.1953 -6.9258,10.391 -3.4648,15.586 3.4648,6.9258 10.391,12.121 5.1953,22.512 z"
           id="path66"
           style="fill:#f8f8f8;fill-opacity:1;stroke:none;stroke-opacity:1" /><path
           d="m 858.88,676.19 c -1.7305,10.391 0,22.512 10.391,27.707 1.7305,5.1953 1.7305,5.1953 3.4648,8.6562 5.1953,-1.7305 5.1953,-3.4648 8.6562,-6.9258 10.391,-1.7305 17.316,-10.391 19.047,-22.512 -5.1953,1.7305 -12.121,0 -20.777,-1.7305 -8.656,-1.7305 -15.586,-3.4648 -20.777,-5.1953 z m -3.4648,-10.391 c -1.7305,8.6562 10.391,10.391 24.242,13.852 13.852,1.7305 25.973,5.1953 27.707,-3.4648 1.7305,-8.6562 -5.1953,-15.586 -12.121,-19.047 -6.9258,-5.1953 -5.1953,-12.121 -5.1953,-20.777 1.7305,-6.9258 0,-8.6562 0,-12.121 l -5.1953,1.7305 c 1.7305,1.7305 1.7305,3.4648 0,10.391 -1.7305,5.1953 -3.4648,13.852 -8.6562,15.586 -8.6562,3.4648 -17.316,1.7305 -20.777,13.852 z"
           id="path67"
           style="fill:#f8f8f8;fill-opacity:1;stroke:none;stroke-opacity:1" /><path
           d="m 805.2,548.05 c -3.4648,10.391 0,22.512 10.391,27.707 0,5.1953 1.7305,5.1953 3.4648,10.391 3.4648,-3.4648 5.1953,-3.4648 6.9258,-6.9258 12.121,-1.7305 19.047,-12.121 20.777,-22.512 -5.1953,0 -13.852,-1.7305 -20.777,-3.4648 -8.6562,-1.7305 -15.586,-3.4648 -20.777,-5.1953 z m -3.4648,-10.391 c -1.7305,10.391 10.391,12.121 24.242,13.852 13.852,3.4648 25.973,6.9258 27.707,-3.4648 1.7305,-8.6562 -5.1953,-15.586 -12.121,-19.047 -8.6562,-5.1953 -6.9258,-12.121 -5.1953,-20.777 1.7305,-20.777 -1.7305,-13.852 -5.1953,0 -1.7305,5.1953 -3.4648,13.852 -10.391,15.586 -8.6562,3.4648 -17.316,3.4648 -19.047,13.852 z"
           id="path68"
           style="fill:#f8f8f8;fill-opacity:1;stroke:none;stroke-opacity:1" /><path
           d="m 822.51,281.39 c -3.4648,15.586 0,31.168 13.852,39.828 1.7305,5.1953 1.7305,6.9258 5.1953,12.121 6.9258,-3.4648 6.9258,-3.4648 10.391,-8.6562 15.586,-1.7305 25.973,-17.316 27.707,-31.168 -6.9258,0 -17.316,-1.7305 -27.707,-5.1953 -12.121,-1.7305 -22.512,-3.4648 -29.438,-6.9258 z m -5.1953,-13.852 c -1.7305,13.852 13.852,15.586 34.633,19.047 19.047,3.4648 34.633,8.6562 38.094,-5.1953 1.7305,-12.121 -6.9258,-20.777 -15.586,-25.973 -12.121,-6.9258 -10.391,-8.6562 -8.6562,-20.777 3.4648,-24.242 -3.4648,-19.047 -6.9258,-8.6562 -3.4648,8.6562 -5.1953,19.047 -13.852,22.512 -12.121,3.4648 -24.242,3.4648 -27.707,19.047 z"
           id="path69"
           style="fill:#f8f8f8;fill-opacity:1;stroke:none;stroke-opacity:1" /><path
           d="m 590.48,509.96 c -3.4648,8.6562 -12.121,13.852 -20.777,12.121 -3.4648,1.7305 -3.4648,1.7305 -6.9258,3.4648 -1.7305,-3.4648 -1.7305,-5.1953 -1.7305,-8.6562 -5.1953,-6.9258 -5.1953,-17.316 0,-24.242 3.4648,3.4648 8.6562,6.9258 13.852,10.391 6.9258,3.4648 12.121,6.9258 15.586,6.9258 z m 8.6562,-5.1953 c -5.1953,6.9258 -12.121,1.7305 -22.512,-3.4648 -10.391,-5.1953 -19.047,-10.391 -15.586,-17.316 3.4648,-5.1953 10.391,-6.9258 17.316,-5.1953 8.6562,1.7305 10.391,-3.4648 13.852,-8.6562 3.4648,-5.1953 5.1953,-6.9258 6.9258,-6.9258 l 3.4648,3.4648 c -3.4648,0 -3.4648,1.7305 -6.9258,5.1953 -1.7305,5.1953 -5.1953,10.391 -1.7305,15.586 3.4648,5.1953 8.6562,10.391 5.1953,17.316 z"
           id="path70"
           style="fill:#f8f8f8;fill-opacity:1;stroke:none;stroke-opacity:1" /><path
           d="m 683.98,591.34 c 3.4648,10.391 13.852,17.316 25.973,15.586 3.4648,3.4648 3.4648,3.4648 8.6562,5.1953 1.7305,-5.1953 1.7305,-6.9258 1.7305,-10.391 6.9258,-8.6562 5.1953,-20.777 0,-31.168 -3.4648,5.1953 -10.391,8.6562 -17.316,12.121 -8.6562,3.4648 -13.852,8.6562 -19.047,8.6562 z m -10.391,-5.1953 c 5.1953,8.6562 15.586,1.7305 27.707,-5.1953 13.852,-6.9258 24.242,-12.121 19.047,-20.777 -5.1953,-6.9258 -13.852,-8.6562 -20.777,-6.9258 -10.391,1.7305 -13.852,-5.1953 -17.316,-12.121 -3.4648,-5.1953 -5.1953,-6.9258 -8.6562,-6.9258 l -3.4648,3.4648 c 3.4648,0 5.1953,1.7305 6.9258,6.9258 3.4648,5.1953 6.9258,13.852 3.4648,19.047 -5.1953,6.9258 -12.121,12.121 -6.9258,22.512 z"
           id="path71"
           style="fill:#f8f8f8;fill-opacity:1;stroke:none;stroke-opacity:1" /><path
           d="m 921.21,691.77 c 3.4648,10.391 13.852,19.047 24.242,17.316 3.4648,1.7305 5.1953,3.4648 8.6562,5.1953 1.7305,-5.1953 1.7305,-6.9258 1.7305,-10.391 8.6562,-8.6562 8.6562,-20.777 3.4648,-29.438 -3.4648,3.4648 -10.391,5.1953 -19.047,8.6562 -6.9258,5.1953 -13.852,8.6562 -19.047,8.6562 z m -8.6562,-6.9258 c 3.4648,10.391 13.852,3.4648 27.707,-1.7305 12.121,-6.9258 24.242,-10.391 19.047,-20.777 -3.4648,-6.9258 -12.121,-8.6562 -20.777,-6.9258 -8.6562,0 -12.121,-6.9258 -15.586,-13.852 -3.4648,-5.1953 -5.1953,-6.9258 -8.6562,-8.6562 l -3.4648,3.4648 c 3.4648,1.7305 5.1953,3.4648 6.9258,8.6562 1.7305,5.1953 5.1953,12.121 1.7305,17.316 -5.1953,8.6562 -12.121,12.121 -6.9258,22.512 z"
           id="path72"
           style="fill:#f8f8f8;fill-opacity:1;stroke:none;stroke-opacity:1" /><path
           d="m 635.5,458.01 c 38.094,-67.531 48.484,-102.16 38.094,-180.09 -1.7305,-12.121 -15.586,-83.117 3.4648,-81.387 10.391,0 13.852,25.973 15.586,34.633 12.121,67.531 25.973,114.29 6.9258,183.55 -17.316,60.605 -55.41,128.14 -41.559,192.21 3.4648,12.121 22.512,20.777 32.902,22.512 -48.484,79.652 -41.559,202.6 -39.828,292.64 1.7305,48.484 15.586,95.238 15.586,96.969 10.391,-96.969 -1.7305,-15.586 -3.4648,-102.16 -3.4648,-86.582 -15.586,-218.18 41.559,-289.18 17.316,-5.1953 38.094,-13.852 50.215,-19.047 67.531,-27.707 96.969,-25.973 166.23,-31.168 36.363,-1.7305 67.531,-12.121 95.238,-36.363 10.391,-10.391 39.828,-39.828 53.68,-34.633 13.852,3.4648 -10.391,20.777 -13.852,24.242 -39.828,39.828 -50.215,67.531 -109.09,79.652 -29.438,6.9258 -60.605,10.391 -91.773,15.586 -46.754,10.391 -86.582,43.289 -117.75,79.652 -32.902,36.363 -32.902,36.363 -32.902,83.117 0,150.65 -5.1953,128.14 0,280.52 3.4648,72.727 84.848,43.289 83.117,121.21 h -65.801 c -5.1953,0 -5.1953,-27.707 -17.316,-29.438 v 29.438 h -84.848 c -5.1953,-12.121 -5.1953,-19.047 -3.4648,-31.168 13.852,-107.36 15.586,-105.63 -8.6562,-221.64 0,0 19.047,93.508 6.9258,155.84 0,17.316 -13.852,79.652 -15.586,96.969 h -100.43 v -48.484 c -13.852,6.9258 -27.707,19.047 -32.902,48.484 h -64.07 c 10.391,-107.36 95.238,-110.82 95.238,-167.96 v -285.71 c 24.242,13.852 60.605,15.586 70.996,62.336 15.586,69.266 -5.1953,70.996 -13.852,128.14 -12.121,84.848 -5.1953,126.41 -1.7305,211.25 15.586,-76.191 1.7305,-131.6 13.852,-212.99 8.6562,-58.875 27.707,-57.145 12.121,-128.14 -13.852,-62.336 -51.949,-58.875 -83.117,-72.727 -3.4648,-20.777 -12.121,-34.633 -20.777,-57.145 -10.391,-24.242 -31.168,-43.289 -53.68,-51.949 -36.363,-15.586 -60.605,-24.242 -100.43,-34.633 -51.949,-12.121 -84.848,-20.777 -119.48,-65.801 -13.852,-17.316 -22.512,-27.707 -39.828,-43.289 -25.973,-24.242 -20.777,-48.484 13.852,-17.316 45.023,39.828 46.754,64.07 114.29,76.191 27.707,5.1953 67.531,20.777 95.238,24.242 19.047,1.7305 53.68,6.9258 58.875,-19.047 1.7305,-8.6562 1.7305,-29.438 1.7305,-36.363 0,-62.336 8.6562,-58.875 -39.828,-100.43 -24.242,-20.777 -36.363,-45.023 -48.484,-74.457 -12.121,-25.973 1.7305,-34.633 17.316,-12.121 27.707,39.828 19.047,45.023 62.336,76.191 50.215,36.363 43.289,50.215 48.484,105.63 1.7305,29.438 8.6562,69.266 25.973,95.238 6.9258,10.391 13.852,19.047 24.242,24.242 12.121,8.6562 22.512,3.4648 27.707,-1.7305 -3.4648,17.316 -17.316,38.094 -13.852,72.727 1.7305,10.391 25.973,55.41 32.902,81.387 0,-48.484 -24.242,-55.41 -25.973,-83.117 -3.4648,-17.316 8.6562,-60.605 12.121,-72.727 3.4648,-10.391 3.4648,-17.316 6.9258,-29.438 15.586,-45.023 38.094,-83.117 60.605,-122.95 z"
           id="path73"
           style="fill:#f8f8f8;fill-opacity:1;stroke:none;stroke-opacity:1" /></g></g></g></svg>
